<svg xmlns="http://www.w3.org/2000/svg" contentStyleType="text/css" height="852px" preserveAspectRatio="none" style="width:1023px;height:852px;background:#FFFFFF;" version="1.1" viewBox="-5 0.3936 1023 852" width="1023px" zoomAndPan="magnify" data-pres-formatted="1"><rect id="pres-background" x="-5" y="0.3936" width="1023" height="852" fill="#FFFFFF" stroke="none" /><defs /><g><rect fill="#FFFFFF" height="30.6982" style="stroke:#FFFFFF;stroke-width:1.0;" width="983.2852" x="15" y="12.3936" /><ellipse cx="254.2686" cy="58.0918" fill="#111111" rx="10" ry="10" style="stroke:#222222;stroke-width:1.0;" /><rect fill="#F7F7F7" height="56.7969" rx="9" ry="9" style="stroke:#202020;stroke-width:1.2;" width="195.9531" x="156.292" y="88.0918" /><text fill="#111111" font-family="Times New Roman" font-size="16" lengthAdjust="spacing" textLength="175.9531" x="166.292" y="113.0293">Request Sprint cancellation</text><text fill="#111111" font-family="Times New Roman" font-size="16" lengthAdjust="spacing" textLength="121.7344" x="166.292" y="131.4277">and provide reason</text><polygon fill="#FFFFFF" points="254.2686,319.6729,266.2686,331.6729,254.2686,343.6729,242.2686,331.6729,254.2686,319.6729" style="stroke:#202020;stroke-width:1.2;" /><text fill="#111111" font-family="Times New Roman" font-size="15" lengthAdjust="spacing" textLength="133.6963" x="260.2686" y="247.4341">Confirm cancellation?</text><text fill="#111111" font-family="Times New Roman" font-size="15" lengthAdjust="spacing" textLength="3.75" x="260.2686" y="264.6826"> </text><text fill="#111111" font-family="Times New Roman" font-size="15" lengthAdjust="spacing" textLength="3.75" x="260.2686" y="281.9312"> </text><text fill="#111111" font-family="Times New Roman" font-size="15" lengthAdjust="spacing" textLength="3.75" x="260.2686" y="299.1797"> </text><text fill="#111111" font-family="Times New Roman" font-size="15" lengthAdjust="spacing" textLength="3.75" x="260.2686" y="316.4282"> </text><text fill="#111111" font-family="Times New Roman" font-size="14" lengthAdjust="spacing" textLength="60.6416" x="181.627" y="318.6445">[confirm]  </text><text fill="#111111" font-family="Times New Roman" font-size="6" lengthAdjust="spacing" textLength="1.5" x="181.627" y="327.2744"> </text><text fill="#111111" font-family="Times New Roman" font-size="14" lengthAdjust="spacing" textLength="59.8691" x="266.2686" y="302.5459">  [continue</text><text fill="#111111" font-family="Times New Roman" font-size="14" lengthAdjust="spacing" textLength="103.4482" x="266.2686" y="318.6445">  Sprint — AF-01]</text><text fill="#111111" font-family="Times New Roman" font-size="6" lengthAdjust="spacing" textLength="1.5" x="266.2686" y="327.2744"> </text><rect fill="#F7F7F7" height="38.3984" rx="9" ry="9" style="stroke:#202020;stroke-width:1.2;" width="155.5078" x="21" y="363.6729" /><text fill="#111111" font-family="Times New Roman" font-size="16" lengthAdjust="spacing" textLength="135.5078" x="31" y="388.6104">Confirm cancellation</text><polygon fill="#FFFFFF" points="254.2686,766.0508,266.2686,778.0508,254.2686,790.0508,242.2686,778.0508,254.2686,766.0508" style="stroke:#202020;stroke-width:1.2;" /><ellipse cx="254.2686" cy="821.0508" fill="none" rx="11" ry="11" style="stroke:#222222;stroke-width:1.0;" /><ellipse cx="254.2686" cy="821.0508" fill="#222222" rx="6" ry="6" style="stroke:#222222;stroke-width:1.0;" /><line style="stroke:#202020;stroke-width:1.4;" x1="7" x2="7" y1="12.3936" y2="840.0508" /><rect fill="#F7F7F7" height="56.7969" rx="9" ry="9" style="stroke:#202020;stroke-width:1.2;" width="192.8359" x="653.3525" y="164.8887" /><text fill="#111111" font-family="Times New Roman" font-size="16" lengthAdjust="spacing" textLength="172.8359" x="663.3525" y="189.8262">Display impact on selected</text><text fill="#111111" font-family="Times New Roman" font-size="16" lengthAdjust="spacing" textLength="130.625" x="663.3525" y="208.2246">and completed work</text><polygon fill="#FFFFFF" points="594.2559,500.0586,606.2559,512.0586,594.2559,524.0586,582.2559,512.0586,594.2559,500.0586" style="stroke:#202020;stroke-width:1.2;" /><text fill="#111111" font-family="Times New Roman" font-size="15" lengthAdjust="spacing" textLength="109.1455" x="600.2559" y="427.8198">Sprint still active?</text><text fill="#111111" font-family="Times New Roman" font-size="15" lengthAdjust="spacing" textLength="3.75" x="600.2559" y="445.0684"> </text><text fill="#111111" font-family="Times New Roman" font-size="15" lengthAdjust="spacing" textLength="3.75" x="600.2559" y="462.3169"> </text><text fill="#111111" font-family="Times New Roman" font-size="15" lengthAdjust="spacing" textLength="3.75" x="600.2559" y="479.5654"> </text><text fill="#111111" font-family="Times New Roman" font-size="15" lengthAdjust="spacing" textLength="3.75" x="600.2559" y="496.814"> </text><text fill="#111111" font-family="Times New Roman" font-size="14" lengthAdjust="spacing" textLength="49.7451" x="532.5107" y="499.0303">[active]  </text><text fill="#111111" font-family="Times New Roman" font-size="6" lengthAdjust="spacing" textLength="1.5" x="532.5107" y="507.6602"> </text><text fill="#111111" font-family="Times New Roman" font-size="14" lengthAdjust="spacing" textLength="85.1348" x="606.2559" y="482.9316">  [completed or</text><text fill="#111111" font-family="Times New Roman" font-size="14" lengthAdjust="spacing" textLength="122.835" x="606.2559" y="499.0303">  cancelled — EX-01]</text><text fill="#111111" font-family="Times New Roman" font-size="6" lengthAdjust="spacing" textLength="1.5" x="606.2559" y="507.6602"> </text><rect fill="#F7F7F7" height="38.3984" rx="9" ry="9" style="stroke:#202020;stroke-width:1.2;" width="149.7344" x="418.7461" y="534.0586" /><text fill="#111111" font-family="Times New Roman" font-size="16" lengthAdjust="spacing" textLength="129.7344" x="428.7461" y="558.9961">Cancel active Sprint</text><rect fill="#F7F7F7" height="56.7969" rx="9" ry="9" style="stroke:#202020;stroke-width:1.2;" width="177.2969" x="404.9648" y="592.457" /><text fill="#111111" font-family="Times New Roman" font-size="16" lengthAdjust="spacing" textLength="157.2969" x="414.9648" y="617.3945">Return incomplete items</text><text fill="#111111" font-family="Times New Roman" font-size="16" lengthAdjust="spacing" textLength="123.5391" x="414.9648" y="635.793">to Product Backlog</text><rect fill="#F7F7F7" height="56.7969" rx="9" ry="9" style="stroke:#202020;stroke-width:1.2;" width="159.5156" x="413.8555" y="669.2539" /><text fill="#111111" font-family="Times New Roman" font-size="16" lengthAdjust="spacing" textLength="127.4922" x="423.8555" y="694.1914">Record cancellation</text><text fill="#111111" font-family="Times New Roman" font-size="16" lengthAdjust="spacing" textLength="139.5156" x="423.8555" y="712.5898">reason and timestamp</text><rect fill="#F7F7F7" height="38.3984" rx="9" ry="9" style="stroke:#202020;stroke-width:1.2;" width="185.2734" x="602.2617" y="534.0586" /><text fill="#111111" font-family="Times New Roman" font-size="16" lengthAdjust="spacing" textLength="165.2734" x="612.2617" y="558.9961">Reject Sprint cancellation</text><polygon fill="#FFFFFF" points="594.2559,732.0508,606.2559,744.0508,594.2559,756.0508,582.2559,744.0508,594.2559,732.0508" style="stroke:#202020;stroke-width:1.2;" /><rect fill="#F7F7F7" height="38.3984" rx="9" ry="9" style="stroke:#202020;stroke-width:1.2;" width="175.5" x="817.5352" y="363.6729" /><text fill="#111111" font-family="Times New Roman" font-size="16" lengthAdjust="spacing" textLength="155.5" x="827.5352" y="388.6104">Leave Sprint unchanged</text><line style="stroke:#202020;stroke-width:1.4;" x1="398.9648" x2="398.9648" y1="12.3936" y2="840.0508" /><line style="stroke:#202020;stroke-width:1.4;" x1="1005.0352" x2="1005.0352" y1="12.3936" y2="840.0508" /><line style="stroke:#202020;stroke-width:1.2;" x1="254.2686" x2="254.2686" y1="68.0918" y2="88.0918" /><polyline points="250.2686,78.0918 254.2686,88.0918 258.2686,78.0918" fill="none" stroke="#202020" stroke-width="1.4" stroke-linejoin="miter" stroke-linecap="butt" class="open-arrowhead" /><line style="stroke:#202020;stroke-width:1.2;" x1="242.2686" x2="98.7539" y1="331.6729" y2="331.6729" /><line style="stroke:#202020;stroke-width:1.2;" x1="98.7539" x2="98.7539" y1="331.6729" y2="363.6729" /><polyline points="94.7539,353.6729 98.7539,363.6729 102.7539,353.6729" fill="none" stroke="#202020" stroke-width="1.4" stroke-linejoin="miter" stroke-linecap="butt" class="open-arrowhead" /><line style="stroke:#202020;stroke-width:1.2;" x1="254.2686" x2="254.2686" y1="790.0508" y2="810.0508" /><polyline points="250.2686,800.0508 254.2686,810.0508 258.2686,800.0508" fill="none" stroke="#202020" stroke-width="1.4" stroke-linejoin="miter" stroke-linecap="butt" class="open-arrowhead" /><line style="stroke:#202020;stroke-width:1.2;" x1="493.6133" x2="493.6133" y1="572.457" y2="592.457" /><polyline points="489.6133,582.457 493.6133,592.457 497.6133,582.457" fill="none" stroke="#202020" stroke-width="1.4" stroke-linejoin="miter" stroke-linecap="butt" class="open-arrowhead" /><line style="stroke:#202020;stroke-width:1.2;" x1="493.6133" x2="493.6133" y1="649.2539" y2="669.2539" /><polyline points="489.6133,659.2539 493.6133,669.2539 497.6133,659.2539" fill="none" stroke="#202020" stroke-width="1.4" stroke-linejoin="miter" stroke-linecap="butt" class="open-arrowhead" /><line style="stroke:#202020;stroke-width:1.2;" x1="582.2559" x2="493.6133" y1="512.0586" y2="512.0586" /><line style="stroke:#202020;stroke-width:1.2;" x1="493.6133" x2="493.6133" y1="512.0586" y2="534.0586" /><polyline points="489.6133,524.0586 493.6133,534.0586 497.6133,524.0586" fill="none" stroke="#202020" stroke-width="1.4" stroke-linejoin="miter" stroke-linecap="butt" class="open-arrowhead" /><line style="stroke:#202020;stroke-width:1.2;" x1="606.2559" x2="694.8984" y1="512.0586" y2="512.0586" /><line style="stroke:#202020;stroke-width:1.2;" x1="694.8984" x2="694.8984" y1="512.0586" y2="534.0586" /><polyline points="690.8984,524.0586 694.8984,534.0586 698.8984,524.0586" fill="none" stroke="#202020" stroke-width="1.4" stroke-linejoin="miter" stroke-linecap="butt" class="open-arrowhead" /><line style="stroke:#202020;stroke-width:1.2;" x1="493.6133" x2="493.6133" y1="726.0508" y2="744.0508" /><line style="stroke:#202020;stroke-width:1.2;" x1="493.6133" x2="582.2559" y1="744.0508" y2="744.0508" /><polyline points="572.2559,740.0508 582.2559,744.0508 572.2559,748.0508" fill="none" stroke="#202020" stroke-width="1.4" stroke-linejoin="miter" stroke-linecap="butt" class="open-arrowhead" /><line style="stroke:#202020;stroke-width:1.2;" x1="694.8984" x2="694.8984" y1="572.457" y2="744.0508" /><line style="stroke:#202020;stroke-width:1.2;" x1="694.8984" x2="606.2559" y1="744.0508" y2="744.0508" /><polyline points="616.2559,740.0508 606.2559,744.0508 616.2559,748.0508" fill="none" stroke="#202020" stroke-width="1.4" stroke-linejoin="miter" stroke-linecap="butt" class="open-arrowhead" /><line style="stroke:#202020;stroke-width:1.2;" x1="254.2686" x2="254.2686" y1="144.8887" y2="149.8887" /><line style="stroke:#202020;stroke-width:1.2;" x1="254.2686" x2="749.7705" y1="149.8887" y2="149.8887" /><line style="stroke:#202020;stroke-width:1.2;" x1="749.7705" x2="749.7705" y1="149.8887" y2="164.8887" /><polyline points="745.7705,154.8887 749.7705,164.8887 753.7705,154.8887" fill="none" stroke="#202020" stroke-width="1.4" stroke-linejoin="miter" stroke-linecap="butt" class="open-arrowhead" /><line style="stroke:#202020;stroke-width:1.2;" x1="98.7539" x2="98.7539" y1="402.0713" y2="439.4373" /><line style="stroke:#202020;stroke-width:1.2;" x1="98.7539" x2="594.2559" y1="439.4373" y2="439.4373" /><line style="stroke:#202020;stroke-width:1.2;" x1="594.2559" x2="594.2559" y1="439.4373" y2="500.0586" /><polyline points="590.2559,490.0586 594.2559,500.0586 598.2559,490.0586" fill="none" stroke="#202020" stroke-width="1.4" stroke-linejoin="miter" stroke-linecap="butt" class="open-arrowhead" /><line style="stroke:#202020;stroke-width:1.2;" x1="266.2686" x2="905.2852" y1="331.6729" y2="331.6729" /><line style="stroke:#202020;stroke-width:1.2;" x1="905.2852" x2="905.2852" y1="331.6729" y2="363.6729" /><polyline points="901.2852,353.6729 905.2852,363.6729 909.2852,353.6729" fill="none" stroke="#202020" stroke-width="1.4" stroke-linejoin="miter" stroke-linecap="butt" class="open-arrowhead" /><line style="stroke:#202020;stroke-width:1.2;" x1="594.2559" x2="594.2559" y1="756.0508" y2="760.0508" /><line style="stroke:#202020;stroke-width:1.2;" x1="594.2559" x2="224.2686" y1="760.0508" y2="760.0508" /><line style="stroke:#202020;stroke-width:1.2;" x1="224.2686" x2="224.2686" y1="760.0508" y2="778.0508" /><line style="stroke:#202020;stroke-width:1.2;" x1="224.2686" x2="242.2686" y1="778.0508" y2="778.0508" /><polyline points="232.2686,774.0508 242.2686,778.0508 232.2686,782.0508" fill="none" stroke="#202020" stroke-width="1.4" stroke-linejoin="miter" stroke-linecap="butt" class="open-arrowhead" /><line style="stroke:#202020;stroke-width:1.2;" x1="905.2852" x2="905.2852" y1="402.0713" y2="778.0508" /><line style="stroke:#202020;stroke-width:1.2;" x1="905.2852" x2="266.2686" y1="778.0508" y2="778.0508" /><polyline points="276.2686,774.0508 266.2686,778.0508 276.2686,782.0508" fill="none" stroke="#202020" stroke-width="1.4" stroke-linejoin="miter" stroke-linecap="butt" class="open-arrowhead" /><line style="stroke:#202020;stroke-width:1.2;" x1="749.7705" x2="749.7705" y1="221.6855" y2="259.0515" /><line style="stroke:#202020;stroke-width:1.2;" x1="749.7705" x2="254.2686" y1="259.0515" y2="259.0515" /><line style="stroke:#202020;stroke-width:1.2;" x1="254.2686" x2="254.2686" y1="259.0515" y2="319.6729" /><polyline points="250.2686,309.6729 254.2686,319.6729 258.2686,309.6729" fill="none" stroke="#202020" stroke-width="1.4" stroke-linejoin="miter" stroke-linecap="butt" class="open-arrowhead" /><text fill="#111111" font-family="Times New Roman" font-size="18" font-weight="bold" lengthAdjust="spacing" textLength="119.4785" x="149.4932" y="29.1982">Product Owner</text><text fill="#111111" font-family="Times New Roman" font-size="7" font-weight="bold" lengthAdjust="spacing" textLength="1.75" x="144.9932" y="39.627"> </text><text fill="#111111" font-family="Times New Roman" font-size="18" font-weight="bold" lengthAdjust="spacing" textLength="54.9932" x="672.7534" y="29.1982">System</text><text fill="#111111" font-family="Times New Roman" font-size="7" font-weight="bold" lengthAdjust="spacing" textLength="1.75" x="668.2534" y="39.627"> </text></g><g id="pres-frame" fill="none" stroke="#202020" stroke-width="1.4"><rect x="7" y="12.3936" width="998.0352" height="827.6572" /><line x1="7" x2="1005.0352" y1="38.6982" y2="38.6982" /></g></svg>