<svg xmlns="http://www.w3.org/2000/svg" contentStyleType="text/css" height="842px" preserveAspectRatio="none" style="width:711px;height:842px;background:#FFFFFF;" version="1.1" viewBox="-5 0.3936 711 842" width="711px" zoomAndPan="magnify" data-pres-formatted="1"><rect id="pres-background" x="-5" y="0.3936" width="711" height="842" fill="#FFFFFF" stroke="none" /><defs /><g><rect fill="#FFFFFF" height="30.6982" style="stroke:#FFFFFF;stroke-width:1.0;" width="671.6099" x="15" y="12.3936" /><ellipse cx="183.8516" cy="58.0918" fill="#111111" rx="10" ry="10" style="stroke:#222222;stroke-width:1.0;" /><rect fill="#F7F7F7" height="56.7969" rx="9" ry="9" style="stroke:#202020;stroke-width:1.2;" width="214.6094" x="76.5469" y="88.0918" /><text fill="#111111" font-family="Times New Roman" font-size="16" lengthAdjust="spacing" textLength="194.6094" x="86.5469" y="113.0293">Select a Product Backlog Item</text><text fill="#111111" font-family="Times New Roman" font-size="16" lengthAdjust="spacing" textLength="129.7266" x="86.5469" y="131.4277">and request removal</text><polygon fill="#FFFFFF" points="183.8516,589.458,195.8516,601.458,183.8516,613.458,171.8516,601.458,183.8516,589.458" style="stroke:#202020;stroke-width:1.2;" /><text fill="#111111" font-family="Times New Roman" font-size="15" lengthAdjust="spacing" textLength="110.3833" x="189.8516" y="517.2192">Confirm removal?</text><text fill="#111111" font-family="Times New Roman" font-size="15" lengthAdjust="spacing" textLength="3.75" x="189.8516" y="534.4678"> </text><text fill="#111111" font-family="Times New Roman" font-size="15" lengthAdjust="spacing" textLength="3.75" x="189.8516" y="551.7163"> </text><text fill="#111111" font-family="Times New Roman" font-size="15" lengthAdjust="spacing" textLength="3.75" x="189.8516" y="568.9648"> </text><text fill="#111111" font-family="Times New Roman" font-size="15" lengthAdjust="spacing" textLength="3.75" x="189.8516" y="586.2134"> </text><text fill="#111111" font-family="Times New Roman" font-size="14" lengthAdjust="spacing" textLength="60.6416" x="111.21" y="588.4297">[confirm]  </text><text fill="#111111" font-family="Times New Roman" font-size="6" lengthAdjust="spacing" textLength="1.5" x="111.21" y="597.0596"> </text><text fill="#111111" font-family="Times New Roman" font-size="14" lengthAdjust="spacing" textLength="47.4072" x="195.8516" y="572.3311">  [cancel</text><text fill="#111111" font-family="Times New Roman" font-size="14" lengthAdjust="spacing" textLength="65.7207" x="195.8516" y="588.4297">  — AF-01]</text><text fill="#111111" font-family="Times New Roman" font-size="6" lengthAdjust="spacing" textLength="1.5" x="195.8516" y="597.0596"> </text><rect fill="#F7F7F7" height="38.3984" rx="9" ry="9" style="stroke:#202020;stroke-width:1.2;" width="130.6406" x="21" y="633.458" /><text fill="#111111" font-family="Times New Roman" font-size="16" lengthAdjust="spacing" textLength="110.6406" x="31" y="658.3955">Confirm removal</text><line style="stroke:#202020;stroke-width:1.4;" x1="7" x2="7" y1="12.3936" y2="829.6533" /><rect fill="#F7F7F7" height="38.3984" rx="9" ry="9" style="stroke:#202020;stroke-width:1.2;" width="260.7969" x="356.5708" y="305.9746" /><text fill="#111111" font-family="Times New Roman" font-size="16" lengthAdjust="spacing" textLength="240.7969" x="366.5708" y="330.9121">Reject the removal of the locked item</text><ellipse cx="486.9692" cy="381.6738" fill="none" rx="11" ry="11" style="stroke:#222222;stroke-width:1.0;" /><ellipse cx="486.9692" cy="381.6738" fill="#222222" rx="6" ry="6" style="stroke:#222222;stroke-width:1.0;" /><polygon fill="#FFFFFF" points="486.9692,242.876,498.9692,254.876,486.9692,266.876,474.9692,254.876,486.9692,242.876" style="stroke:#202020;stroke-width:1.2;" /><text fill="#111111" font-family="Times New Roman" font-size="15" lengthAdjust="spacing" textLength="151.6187" x="492.9692" y="170.6372">Item in the active Sprint?</text><text fill="#111111" font-family="Times New Roman" font-size="15" lengthAdjust="spacing" textLength="3.75" x="492.9692" y="187.8857"> </text><text fill="#111111" font-family="Times New Roman" font-size="15" lengthAdjust="spacing" textLength="3.75" x="492.9692" y="205.1343"> </text><text fill="#111111" font-family="Times New Roman" font-size="15" lengthAdjust="spacing" textLength="3.75" x="492.9692" y="222.3828"> </text><text fill="#111111" font-family="Times New Roman" font-size="15" lengthAdjust="spacing" textLength="3.75" x="492.9692" y="239.6313"> </text><text fill="#111111" font-family="Times New Roman" font-size="14" lengthAdjust="spacing" textLength="120.8936" x="492.9692" y="279.9463">  [locked in the active</text><text fill="#111111" font-family="Times New Roman" font-size="14" lengthAdjust="spacing" textLength="104.2139" x="492.9692" y="296.0449">  Sprint — EX-01]</text><text fill="#111111" font-family="Times New Roman" font-size="6" lengthAdjust="spacing" textLength="1.5" x="492.9692" y="304.6748"> </text><text fill="#111111" font-family="Times New Roman" font-size="14" lengthAdjust="spacing" textLength="143.8555" x="498.9692" y="241.8477">[not in the active Sprint]  </text><text fill="#111111" font-family="Times New Roman" font-size="6" lengthAdjust="spacing" textLength="1.5" x="498.9692" y="250.4775"> </text><rect fill="#F7F7F7" height="56.7969" rx="9" ry="9" style="stroke:#202020;stroke-width:1.2;" width="167.9609" x="402.9888" y="434.6738" /><text fill="#111111" font-family="Times New Roman" font-size="16" lengthAdjust="spacing" textLength="147.9609" x="412.9888" y="459.6113">Display the impact and</text><text fill="#111111" font-family="Times New Roman" font-size="16" lengthAdjust="spacing" textLength="132.8438" x="412.9888" y="478.0098">request confirmation</text><rect fill="#F7F7F7" height="56.7969" rx="9" ry="9" style="stroke:#202020;stroke-width:1.2;" width="156.4063" x="311.2349" y="706.8564" /><text fill="#111111" font-family="Times New Roman" font-size="16" lengthAdjust="spacing" textLength="136.4063" x="321.2349" y="731.7939">Remove the item and</text><text fill="#111111" font-family="Times New Roman" font-size="16" lengthAdjust="spacing" textLength="107.5" x="321.2349" y="750.1924">record the action</text><ellipse cx="389.438" cy="794.6533" fill="none" rx="11" ry="11" style="stroke:#222222;stroke-width:1.0;" /><ellipse cx="389.438" cy="794.6533" fill="#222222" rx="6" ry="6" style="stroke:#222222;stroke-width:1.0;" /><rect fill="#F7F7F7" height="56.7969" rx="9" ry="9" style="stroke:#202020;stroke-width:1.2;" width="193.7188" x="487.6411" y="633.458" /><text fill="#111111" font-family="Times New Roman" font-size="16" lengthAdjust="spacing" textLength="173.7188" x="497.6411" y="658.3955">Leave the Product Backlog</text><text fill="#111111" font-family="Times New Roman" font-size="16" lengthAdjust="spacing" textLength="102.625" x="497.6411" y="676.7939">Item unchanged</text><ellipse cx="584.5005" cy="736.2549" fill="none" rx="11" ry="11" style="stroke:#222222;stroke-width:1.0;" /><ellipse cx="584.5005" cy="736.2549" fill="#222222" rx="6" ry="6" style="stroke:#222222;stroke-width:1.0;" /><line style="stroke:#202020;stroke-width:1.4;" x1="305.2349" x2="305.2349" y1="12.3936" y2="829.6533" /><line style="stroke:#202020;stroke-width:1.4;" x1="693.3599" x2="693.3599" y1="12.3936" y2="829.6533" /><line style="stroke:#202020;stroke-width:1.2;" x1="183.8516" x2="183.8516" y1="68.0918" y2="88.0918" /><polyline points="179.8516,78.0918 183.8516,88.0918 187.8516,78.0918" fill="none" stroke="#202020" stroke-width="1.4" stroke-linejoin="miter" stroke-linecap="butt" class="open-arrowhead" /><line style="stroke:#202020;stroke-width:1.2;" x1="171.8516" x2="86.3203" y1="601.458" y2="601.458" /><line style="stroke:#202020;stroke-width:1.2;" x1="86.3203" x2="86.3203" y1="601.458" y2="633.458" /><polyline points="82.3203,623.458 86.3203,633.458 90.3203,623.458" fill="none" stroke="#202020" stroke-width="1.4" stroke-linejoin="miter" stroke-linecap="butt" class="open-arrowhead" /><line style="stroke:#202020;stroke-width:1.2;" x1="486.9692" x2="486.9692" y1="344.373" y2="370.6738" /><polyline points="482.9692,360.6738 486.9692,370.6738 490.9692,360.6738" fill="none" stroke="#202020" stroke-width="1.4" stroke-linejoin="miter" stroke-linecap="butt" class="open-arrowhead" /><line style="stroke:#202020;stroke-width:1.2;" x1="486.9692" x2="486.9692" y1="266.876" y2="305.9746" /><polyline points="482.9692,295.9746 486.9692,305.9746 490.9692,295.9746" fill="none" stroke="#202020" stroke-width="1.4" stroke-linejoin="miter" stroke-linecap="butt" class="open-arrowhead" /><line style="stroke:#202020;stroke-width:1.2;" x1="498.9692" x2="627.3677" y1="254.876" y2="254.876" /><polyline points="623.3677,340.6738 627.3677,350.6738 631.3677,340.6738" fill="none" stroke="#202020" stroke-width="1.4" stroke-linejoin="miter" stroke-linecap="butt" class="open-arrowhead" /><line style="stroke:#202020;stroke-width:1.2;" x1="627.3677" x2="627.3677" y1="254.876" y2="414.6738" /><line style="stroke:#202020;stroke-width:1.2;" x1="627.3677" x2="486.9692" y1="414.6738" y2="414.6738" /><line style="stroke:#202020;stroke-width:1.2;" x1="486.9692" x2="486.9692" y1="414.6738" y2="434.6738" /><polyline points="482.9692,424.6738 486.9692,434.6738 490.9692,424.6738" fill="none" stroke="#202020" stroke-width="1.4" stroke-linejoin="miter" stroke-linecap="butt" class="open-arrowhead" /><line style="stroke:#202020;stroke-width:1.2;" x1="389.438" x2="389.438" y1="763.6533" y2="783.6533" /><polyline points="385.438,773.6533 389.438,783.6533 393.438,773.6533" fill="none" stroke="#202020" stroke-width="1.4" stroke-linejoin="miter" stroke-linecap="butt" class="open-arrowhead" /><line style="stroke:#202020;stroke-width:1.2;" x1="584.5005" x2="584.5005" y1="690.2549" y2="725.2549" /><polyline points="580.5005,715.2549 584.5005,725.2549 588.5005,715.2549" fill="none" stroke="#202020" stroke-width="1.4" stroke-linejoin="miter" stroke-linecap="butt" class="open-arrowhead" /><line style="stroke:#202020;stroke-width:1.2;" x1="183.8516" x2="183.8516" y1="144.8887" y2="182.2546" /><line style="stroke:#202020;stroke-width:1.2;" x1="183.8516" x2="486.9692" y1="182.2546" y2="182.2546" /><line style="stroke:#202020;stroke-width:1.2;" x1="486.9692" x2="486.9692" y1="182.2546" y2="242.876" /><polyline points="482.9692,232.876 486.9692,242.876 490.9692,232.876" fill="none" stroke="#202020" stroke-width="1.4" stroke-linejoin="miter" stroke-linecap="butt" class="open-arrowhead" /><line style="stroke:#202020;stroke-width:1.2;" x1="86.3203" x2="86.3203" y1="671.8564" y2="689.3564" /><line style="stroke:#202020;stroke-width:1.2;" x1="86.3203" x2="389.438" y1="689.3564" y2="689.3564" /><line style="stroke:#202020;stroke-width:1.2;" x1="389.438" x2="389.438" y1="689.3564" y2="706.8564" /><polyline points="385.438,696.8564 389.438,706.8564 393.438,696.8564" fill="none" stroke="#202020" stroke-width="1.4" stroke-linejoin="miter" stroke-linecap="butt" class="open-arrowhead" /><line style="stroke:#202020;stroke-width:1.2;" x1="195.8516" x2="584.5005" y1="601.458" y2="601.458" /><line style="stroke:#202020;stroke-width:1.2;" x1="584.5005" x2="584.5005" y1="601.458" y2="633.458" /><polyline points="580.5005,623.458 584.5005,633.458 588.5005,623.458" fill="none" stroke="#202020" stroke-width="1.4" stroke-linejoin="miter" stroke-linecap="butt" class="open-arrowhead" /><line style="stroke:#202020;stroke-width:1.2;" x1="486.9692" x2="486.9692" y1="491.4707" y2="528.8367" /><line style="stroke:#202020;stroke-width:1.2;" x1="486.9692" x2="183.8516" y1="528.8367" y2="528.8367" /><line style="stroke:#202020;stroke-width:1.2;" x1="183.8516" x2="183.8516" y1="528.8367" y2="589.458" /><polyline points="179.8516,579.458 183.8516,589.458 187.8516,579.458" fill="none" stroke="#202020" stroke-width="1.4" stroke-linejoin="miter" stroke-linecap="butt" class="open-arrowhead" /><text fill="#111111" font-family="Times New Roman" font-size="18" font-weight="bold" lengthAdjust="spacing" textLength="119.4785" x="102.6282" y="29.1982">Product Owner</text><text fill="#111111" font-family="Times New Roman" font-size="7" font-weight="bold" lengthAdjust="spacing" textLength="1.75" x="98.1282" y="39.627"> </text><text fill="#111111" font-family="Times New Roman" font-size="18" font-weight="bold" lengthAdjust="spacing" textLength="54.9932" x="470.0508" y="29.1982">System</text><text fill="#111111" font-family="Times New Roman" font-size="7" font-weight="bold" lengthAdjust="spacing" textLength="1.75" x="465.5508" y="39.627"> </text></g><g id="pres-frame" fill="none" stroke="#202020" stroke-width="1.4"><rect x="7" y="12.3936" width="686.3599" height="817.2597" /><line x1="7" x2="693.3599" y1="38.6982" y2="38.6982" /></g></svg>