<svg xmlns="http://www.w3.org/2000/svg" contentStyleType="text/css" height="472px" preserveAspectRatio="none" style="width:523px;height:472px;background:#FFFFFF;" version="1.1" viewBox="-5 0.3936 523 472" width="523px" zoomAndPan="magnify" data-pres-formatted="1"><rect id="pres-background" x="-5" y="0.3936" width="523" height="472" fill="#FFFFFF" stroke="none" /><defs /><g><rect fill="#FFFFFF" height="30.6982" style="stroke:#FFFFFF;stroke-width:1.0;" width="483.3584" x="15" y="12.3936" /><ellipse cx="122.7539" cy="58.0918" fill="#111111" rx="10" ry="10" style="stroke:#222222;stroke-width:1.0;" /><rect fill="#F7F7F7" height="38.3984" rx="9" ry="9" style="stroke:#202020;stroke-width:1.2;" width="203.5078" x="21" y="88.0918" /><text fill="#111111" font-family="Times New Roman" font-size="16" lengthAdjust="spacing" textLength="183.5078" x="31" y="113.0293">Select Product Backlog Item</text><line style="stroke:#202020;stroke-width:1.4;" x1="7" x2="7" y1="12.3936" y2="459.6729" /><rect fill="#F7F7F7" height="56.7969" rx="9" ry="9" style="stroke:#202020;stroke-width:1.2;" width="127.9766" x="263.6094" y="146.4902" /><text fill="#111111" font-family="Times New Roman" font-size="16" lengthAdjust="spacing" textLength="103.5" x="273.6094" y="171.4277">Retrieve current</text><text fill="#111111" font-family="Times New Roman" font-size="16" lengthAdjust="spacing" textLength="107.9766" x="273.6094" y="189.8262">item information</text><rect fill="#F7F7F7" height="56.7969" rx="9" ry="9" style="stroke:#202020;stroke-width:1.2;" width="186.1797" x="234.5078" y="321.8267" /><text fill="#111111" font-family="Times New Roman" font-size="16" lengthAdjust="spacing" textLength="155.0781" x="244.5078" y="346.7642">Display item details and</text><text fill="#111111" font-family="Times New Roman" font-size="16" lengthAdjust="spacing" textLength="166.1797" x="244.5078" y="365.1626">related Sprint information</text><ellipse cx="327.5977" cy="409.6235" fill="none" rx="11" ry="11" style="stroke:#222222;stroke-width:1.0;" /><ellipse cx="327.5977" cy="409.6235" fill="#222222" rx="6" ry="6" style="stroke:#222222;stroke-width:1.0;" /><polygon fill="#FFFFFF" points="327.5977,266.7773,339.5977,278.7773,327.5977,290.7773,315.5977,278.7773,327.5977,266.7773" style="stroke:#202020;stroke-width:1.2;" /><text fill="#111111" font-family="Times New Roman" font-size="15" lengthAdjust="spacing" textLength="118.2861" x="333.5977" y="229.0356">Item still available?</text><text fill="#111111" font-family="Times New Roman" font-size="15" lengthAdjust="spacing" textLength="3.75" x="333.5977" y="246.2842"> </text><text fill="#111111" font-family="Times New Roman" font-size="15" lengthAdjust="spacing" textLength="3.75" x="333.5977" y="263.5327"> </text><text fill="#111111" font-family="Times New Roman" font-size="14" lengthAdjust="spacing" textLength="66.8486" x="333.5977" y="303.8477">[available]  </text><text fill="#111111" font-family="Times New Roman" font-size="6" lengthAdjust="spacing" textLength="1.5" x="333.5977" y="312.4775"> </text><text fill="#111111" font-family="Times New Roman" font-size="14" lengthAdjust="spacing" textLength="64.9277" x="339.5977" y="249.6504">  [no longer</text><text fill="#111111" font-family="Times New Roman" font-size="14" lengthAdjust="spacing" textLength="120.5107" x="339.5977" y="265.749">  available — EX-01]</text><text fill="#111111" font-family="Times New Roman" font-size="6" lengthAdjust="spacing" textLength="1.5" x="339.5977" y="274.3789"> </text><ellipse cx="482.1084" cy="278.7773" fill="none" rx="11" ry="11" style="stroke:#222222;stroke-width:1.0;" /><ellipse cx="482.1084" cy="278.7773" fill="#222222" rx="6" ry="6" style="stroke:#222222;stroke-width:1.0;" /><line style="stroke:#202020;stroke-width:1.4;" x1="228.5078" x2="228.5078" y1="12.3936" y2="459.6729" /><line style="stroke:#202020;stroke-width:1.4;" x1="505.1084" x2="505.1084" y1="12.3936" y2="459.6729" /><line style="stroke:#202020;stroke-width:1.2;" x1="122.7539" x2="122.7539" y1="68.0918" y2="88.0918" /><polyline points="118.7539,78.0918 122.7539,88.0918 126.7539,78.0918" fill="none" stroke="#202020" stroke-width="1.4" stroke-linejoin="miter" stroke-linecap="butt" class="open-arrowhead" /><line style="stroke:#202020;stroke-width:1.2;" x1="327.5977" x2="327.5977" y1="378.6235" y2="398.6235" /><polyline points="323.5977,388.6235 327.5977,398.6235 331.5977,388.6235" fill="none" stroke="#202020" stroke-width="1.4" stroke-linejoin="miter" stroke-linecap="butt" class="open-arrowhead" /><line style="stroke:#202020;stroke-width:1.2;" x1="327.5977" x2="327.5977" y1="290.7773" y2="321.8267" /><polyline points="323.5977,311.8267 327.5977,321.8267 331.5977,311.8267" fill="none" stroke="#202020" stroke-width="1.4" stroke-linejoin="miter" stroke-linecap="butt" class="open-arrowhead" /><line style="stroke:#202020;stroke-width:1.2;" x1="339.5977" x2="471.1084" y1="278.7773" y2="278.7773" /><polyline points="461.1084,274.7773 471.1084,278.7773 461.1084,282.7773" fill="none" stroke="#202020" stroke-width="1.4" stroke-linejoin="miter" stroke-linecap="butt" class="open-arrowhead" /><line style="stroke:#202020;stroke-width:1.2;" x1="327.5977" x2="327.5977" y1="203.2871" y2="266.7773" /><polyline points="323.5977,256.7773 327.5977,266.7773 331.5977,256.7773" fill="none" stroke="#202020" stroke-width="1.4" stroke-linejoin="miter" stroke-linecap="butt" class="open-arrowhead" /><line style="stroke:#202020;stroke-width:1.2;" x1="122.7539" x2="122.7539" y1="126.4902" y2="131.4902" /><line style="stroke:#202020;stroke-width:1.2;" x1="122.7539" x2="327.5977" y1="131.4902" y2="131.4902" /><line style="stroke:#202020;stroke-width:1.2;" x1="327.5977" x2="327.5977" y1="131.4902" y2="146.4902" /><polyline points="323.5977,136.4902 327.5977,146.4902 331.5977,136.4902" fill="none" stroke="#202020" stroke-width="1.4" stroke-linejoin="miter" stroke-linecap="butt" class="open-arrowhead" /><text fill="#111111" font-family="Times New Roman" font-size="18" font-weight="bold" lengthAdjust="spacing" textLength="35.9824" x="106.0127" y="29.1982">User</text><text fill="#111111" font-family="Times New Roman" font-size="7" font-weight="bold" lengthAdjust="spacing" textLength="1.75" x="101.5127" y="39.627"> </text><text fill="#111111" font-family="Times New Roman" font-size="18" font-weight="bold" lengthAdjust="spacing" textLength="54.9932" x="337.5615" y="29.1982">System</text><text fill="#111111" font-family="Times New Roman" font-size="7" font-weight="bold" lengthAdjust="spacing" textLength="1.75" x="333.0615" y="39.627"> </text></g><g id="pres-frame" fill="none" stroke="#202020" stroke-width="1.4"><rect x="7" y="12.3936" width="498.1084" height="447.2793" /><line x1="7" x2="505.1084" y1="38.6982" y2="38.6982" /></g></svg>