<svg xmlns="http://www.w3.org/2000/svg" contentStyleType="text/css" height="1059px" preserveAspectRatio="none" style="width:1070px;height:1059px;background:#FFFFFF;" version="1.1" viewBox="-5 0.3936 1070 1059" width="1070px" zoomAndPan="magnify" data-pres-formatted="1"><rect id="pres-background" x="-5" y="0.3936" width="1070" height="1059" fill="#FFFFFF" stroke="none" /><defs /><g><rect fill="#FFFFFF" height="30.6982" style="stroke:#FFFFFF;stroke-width:1.0;" width="1030.9683" x="15" y="12.3936" /><ellipse cx="226.4941" cy="58.0918" fill="#111111" rx="10" ry="10" style="stroke:#222222;stroke-width:1.0;" /><rect fill="#F7F7F7" height="56.7969" rx="9" ry="9" style="stroke:#202020;stroke-width:1.2;" width="144.8281" x="154.0801" y="88.0918" /><text fill="#111111" font-family="Times New Roman" font-size="16" lengthAdjust="spacing" textLength="99.5234" x="164.0801" y="113.0293">Select item that</text><text fill="#111111" font-family="Times New Roman" font-size="16" lengthAdjust="spacing" textLength="124.8281" x="164.0801" y="131.4277">requires refinement</text><rect fill="#F7F7F7" height="56.7969" rx="9" ry="9" style="stroke:#202020;stroke-width:1.2;" width="185.2656" x="133.8613" y="241.6855" /><text fill="#111111" font-family="Times New Roman" font-size="16" lengthAdjust="spacing" textLength="165.2656" x="143.8613" y="266.623">Clarify expected outcome</text><text fill="#111111" font-family="Times New Roman" font-size="16" lengthAdjust="spacing" textLength="146.5547" x="143.8613" y="285.0215">and acceptance criteria</text><rect fill="#F7F7F7" height="56.7969" rx="9" ry="9" style="stroke:#202020;stroke-width:1.2;" width="196.8203" x="21" y="632.1108" /><text fill="#111111" font-family="Times New Roman" font-size="16" lengthAdjust="spacing" textLength="176.8203" x="31" y="657.0483">Define smaller independent</text><text fill="#111111" font-family="Times New Roman" font-size="16" lengthAdjust="spacing" textLength="137.7422" x="31" y="675.4468">items with Developer</text><rect fill="#F7F7F7" height="56.7969" rx="9" ry="9" style="stroke:#202020;stroke-width:1.2;" width="163.9531" x="144.5176" y="863.7046" /><text fill="#111111" font-family="Times New Roman" font-size="16" lengthAdjust="spacing" textLength="143.9531" x="154.5176" y="888.6421">Confirm refined scope</text><text fill="#111111" font-family="Times New Roman" font-size="16" lengthAdjust="spacing" textLength="98.1953" x="154.5176" y="907.0405">and description</text><line style="stroke:#202020;stroke-width:1.4;" x1="7" x2="7" y1="12.3936" y2="1047.2983" /><rect fill="#F7F7F7" height="56.7969" rx="9" ry="9" style="stroke:#202020;stroke-width:1.2;" width="151.5156" x="435.9766" y="164.8887" /><text fill="#111111" font-family="Times New Roman" font-size="16" lengthAdjust="spacing" textLength="131.5156" x="445.9766" y="189.8262">Display current item</text><text fill="#111111" font-family="Times New Roman" font-size="16" lengthAdjust="spacing" textLength="126.1797" x="445.9766" y="208.2246">details and estimate</text><polygon fill="#FFFFFF" points="511.7344,588.1108,523.7344,600.1108,511.7344,612.1108,499.7344,600.1108,511.7344,588.1108" style="stroke:#202020;stroke-width:1.2;" /><text fill="#111111" font-family="Times New Roman" font-size="15" lengthAdjust="spacing" textLength="129.5435" x="517.7344" y="515.8721">Item in active Sprint?</text><text fill="#111111" font-family="Times New Roman" font-size="15" lengthAdjust="spacing" textLength="3.75" x="517.7344" y="533.1206"> </text><text fill="#111111" font-family="Times New Roman" font-size="15" lengthAdjust="spacing" textLength="3.75" x="517.7344" y="550.3691"> </text><text fill="#111111" font-family="Times New Roman" font-size="15" lengthAdjust="spacing" textLength="3.75" x="517.7344" y="567.6177"> </text><text fill="#111111" font-family="Times New Roman" font-size="15" lengthAdjust="spacing" textLength="3.75" x="517.7344" y="584.8662"> </text><text fill="#111111" font-family="Times New Roman" font-size="14" lengthAdjust="spacing" textLength="86.3311" x="413.4033" y="587.0825">[not in Sprint]  </text><text fill="#111111" font-family="Times New Roman" font-size="6" lengthAdjust="spacing" textLength="1.5" x="413.4033" y="595.7124"> </text><text fill="#111111" font-family="Times New Roman" font-size="14" lengthAdjust="spacing" textLength="97.2002" x="523.7344" y="570.9839">  [in active Sprint</text><text fill="#111111" font-family="Times New Roman" font-size="14" lengthAdjust="spacing" textLength="66.4863" x="523.7344" y="587.0825">  — EX-01]</text><text fill="#111111" font-family="Times New Roman" font-size="6" lengthAdjust="spacing" textLength="1.5" x="523.7344" y="595.7124"> </text><rect fill="#F7F7F7" height="56.7969" rx="9" ry="9" style="stroke:#202020;stroke-width:1.2;" width="151.0469" x="329.127" y="708.9077" /><text fill="#111111" font-family="Times New Roman" font-size="16" lengthAdjust="spacing" textLength="131.0469" x="339.127" y="733.8452">Preserve traceability</text><text fill="#111111" font-family="Times New Roman" font-size="16" lengthAdjust="spacing" textLength="98.6484" x="339.127" y="752.2437">to original item</text><rect fill="#F7F7F7" height="38.3984" rx="9" ry="9" style="stroke:#202020;stroke-width:1.2;" width="191.5156" x="523.0605" y="632.1108" /><text fill="#111111" font-family="Times New Roman" font-size="16" lengthAdjust="spacing" textLength="171.5156" x="533.0605" y="657.0483">Reject item decomposition</text><polygon fill="#FFFFFF" points="511.7344,775.7046,523.7344,787.7046,511.7344,799.7046,499.7344,787.7046,511.7344,775.7046" style="stroke:#202020;stroke-width:1.2;" /><rect fill="#F7F7F7" height="56.7969" rx="9" ry="9" style="stroke:#202020;stroke-width:1.2;" width="159.9453" x="431.7617" y="940.5015" /><text fill="#111111" font-family="Times New Roman" font-size="16" lengthAdjust="spacing" textLength="139.9453" x="441.7617" y="965.439">Save refined item and</text><text fill="#111111" font-family="Times New Roman" font-size="16" lengthAdjust="spacing" textLength="119.5" x="441.7617" y="983.8374">record participants</text><ellipse cx="511.7344" cy="1028.2983" fill="none" rx="11" ry="11" style="stroke:#222222;stroke-width:1.0;" /><ellipse cx="511.7344" cy="1028.2983" fill="#222222" rx="6" ry="6" style="stroke:#222222;stroke-width:1.0;" /><line style="stroke:#202020;stroke-width:1.4;" x1="323.127" x2="323.127" y1="12.3936" y2="1047.2983" /><rect fill="#F7F7F7" height="56.7969" rx="9" ry="9" style="stroke:#202020;stroke-width:1.2;" width="259.0469" x="724.5762" y="318.4824" /><text fill="#111111" font-family="Times New Roman" font-size="16" lengthAdjust="spacing" textLength="213.2656" x="734.5762" y="343.4199">Add implementation clarification</text><text fill="#111111" font-family="Times New Roman" font-size="16" lengthAdjust="spacing" textLength="239.0469" x="734.5762" y="361.8184">and propose decomposition if needed</text><polygon fill="#FFFFFF" points="854.0996,438.7695,866.0996,450.7695,854.0996,462.7695,842.0996,450.7695,854.0996,438.7695" style="stroke:#202020;stroke-width:1.2;" /><text fill="#111111" font-family="Times New Roman" font-size="15" lengthAdjust="spacing" textLength="151.6187" x="860.0996" y="401.0278">Too large for one Sprint?</text><text fill="#111111" font-family="Times New Roman" font-size="15" lengthAdjust="spacing" textLength="3.75" x="860.0996" y="418.2764"> </text><text fill="#111111" font-family="Times New Roman" font-size="15" lengthAdjust="spacing" textLength="3.75" x="860.0996" y="435.5249"> </text><text fill="#111111" font-family="Times New Roman" font-size="14" lengthAdjust="spacing" textLength="61.0313" x="860.0996" y="475.8398">  [too large</text><text fill="#111111" font-family="Times New Roman" font-size="14" lengthAdjust="spacing" textLength="65.7207" x="860.0996" y="491.9385">  — AF-01]</text><text fill="#111111" font-family="Times New Roman" font-size="6" lengthAdjust="spacing" textLength="1.5" x="860.0996" y="500.5684"> </text><text fill="#111111" font-family="Times New Roman" font-size="14" lengthAdjust="spacing" textLength="95.6553" x="866.0996" y="437.7412">[fits one Sprint]  </text><text fill="#111111" font-family="Times New Roman" font-size="6" lengthAdjust="spacing" textLength="1.5" x="866.0996" y="446.3711"> </text><polygon fill="#FFFFFF" points="854.0996,819.7046,866.0996,831.7046,854.0996,843.7046,842.0996,831.7046,854.0996,819.7046" style="stroke:#202020;stroke-width:1.2;" /><line style="stroke:#202020;stroke-width:1.4;" x1="718.5762" x2="718.5762" y1="12.3936" y2="1047.2983" /><line style="stroke:#202020;stroke-width:1.4;" x1="1052.7183" x2="1052.7183" y1="12.3936" y2="1047.2983" /><line style="stroke:#202020;stroke-width:1.2;" x1="226.4941" x2="226.4941" y1="68.0918" y2="88.0918" /><polyline points="222.4941,78.0918 226.4941,88.0918 230.4941,78.0918" fill="none" stroke="#202020" stroke-width="1.4" stroke-linejoin="miter" stroke-linecap="butt" class="open-arrowhead" /><line style="stroke:#202020;stroke-width:1.2;" x1="523.7344" x2="618.8184" y1="600.1108" y2="600.1108" /><line style="stroke:#202020;stroke-width:1.2;" x1="618.8184" x2="618.8184" y1="600.1108" y2="632.1108" /><polyline points="614.8184,622.1108 618.8184,632.1108 622.8184,622.1108" fill="none" stroke="#202020" stroke-width="1.4" stroke-linejoin="miter" stroke-linecap="butt" class="open-arrowhead" /><line style="stroke:#202020;stroke-width:1.2;" x1="404.6504" x2="404.6504" y1="765.7046" y2="787.7046" /><line style="stroke:#202020;stroke-width:1.2;" x1="404.6504" x2="499.7344" y1="787.7046" y2="787.7046" /><polyline points="489.7344,783.7046 499.7344,787.7046 489.7344,791.7046" fill="none" stroke="#202020" stroke-width="1.4" stroke-linejoin="miter" stroke-linecap="butt" class="open-arrowhead" /><line style="stroke:#202020;stroke-width:1.2;" x1="618.8184" x2="618.8184" y1="670.5093" y2="787.7046" /><line style="stroke:#202020;stroke-width:1.2;" x1="618.8184" x2="523.7344" y1="787.7046" y2="787.7046" /><polyline points="533.7344,783.7046 523.7344,787.7046 533.7344,791.7046" fill="none" stroke="#202020" stroke-width="1.4" stroke-linejoin="miter" stroke-linecap="butt" class="open-arrowhead" /><line style="stroke:#202020;stroke-width:1.2;" x1="511.7344" x2="511.7344" y1="997.2983" y2="1017.2983" /><polyline points="507.7344,1007.2983 511.7344,1017.2983 515.7344,1007.2983" fill="none" stroke="#202020" stroke-width="1.4" stroke-linejoin="miter" stroke-linecap="butt" class="open-arrowhead" /><line style="stroke:#202020;stroke-width:1.2;" x1="866.0996" x2="1025.7183" y1="450.7695" y2="450.7695" /><polyline points="1021.7183,648.2864 1025.7183,658.2864 1029.7183,648.2864" fill="none" stroke="#202020" stroke-width="1.4" stroke-linejoin="miter" stroke-linecap="butt" class="open-arrowhead" /><line style="stroke:#202020;stroke-width:1.2;" x1="1025.7183" x2="1025.7183" y1="450.7695" y2="831.7046" /><line style="stroke:#202020;stroke-width:1.2;" x1="1025.7183" x2="866.0996" y1="831.7046" y2="831.7046" /><polyline points="876.0996,827.7046 866.0996,831.7046 876.0996,835.7046" fill="none" stroke="#202020" stroke-width="1.4" stroke-linejoin="miter" stroke-linecap="butt" class="open-arrowhead" /><line style="stroke:#202020;stroke-width:1.2;" x1="854.0996" x2="854.0996" y1="375.2793" y2="438.7695" /><polyline points="850.0996,428.7695 854.0996,438.7695 858.0996,428.7695" fill="none" stroke="#202020" stroke-width="1.4" stroke-linejoin="miter" stroke-linecap="butt" class="open-arrowhead" /><line style="stroke:#202020;stroke-width:1.2;" x1="226.4941" x2="226.4941" y1="144.8887" y2="149.8887" /><line style="stroke:#202020;stroke-width:1.2;" x1="226.4941" x2="511.7344" y1="149.8887" y2="149.8887" /><line style="stroke:#202020;stroke-width:1.2;" x1="511.7344" x2="511.7344" y1="149.8887" y2="164.8887" /><polyline points="507.7344,154.8887 511.7344,164.8887 515.7344,154.8887" fill="none" stroke="#202020" stroke-width="1.4" stroke-linejoin="miter" stroke-linecap="butt" class="open-arrowhead" /><line style="stroke:#202020;stroke-width:1.2;" x1="511.7344" x2="511.7344" y1="221.6855" y2="226.6855" /><line style="stroke:#202020;stroke-width:1.2;" x1="511.7344" x2="226.4941" y1="226.6855" y2="226.6855" /><line style="stroke:#202020;stroke-width:1.2;" x1="226.4941" x2="226.4941" y1="226.6855" y2="241.6855" /><polyline points="222.4941,231.6855 226.4941,241.6855 230.4941,231.6855" fill="none" stroke="#202020" stroke-width="1.4" stroke-linejoin="miter" stroke-linecap="butt" class="open-arrowhead" /><line style="stroke:#202020;stroke-width:1.2;" x1="226.4941" x2="226.4941" y1="298.4824" y2="303.4824" /><line style="stroke:#202020;stroke-width:1.2;" x1="226.4941" x2="854.0996" y1="303.4824" y2="303.4824" /><line style="stroke:#202020;stroke-width:1.2;" x1="854.0996" x2="854.0996" y1="303.4824" y2="318.4824" /><polyline points="850.0996,308.4824 854.0996,318.4824 858.0996,308.4824" fill="none" stroke="#202020" stroke-width="1.4" stroke-linejoin="miter" stroke-linecap="butt" class="open-arrowhead" /><line style="stroke:#202020;stroke-width:1.2;" x1="119.4102" x2="119.4102" y1="688.9077" y2="693.9077" /><line style="stroke:#202020;stroke-width:1.2;" x1="119.4102" x2="404.6504" y1="693.9077" y2="693.9077" /><line style="stroke:#202020;stroke-width:1.2;" x1="404.6504" x2="404.6504" y1="693.9077" y2="708.9077" /><polyline points="400.6504,698.9077 404.6504,708.9077 408.6504,698.9077" fill="none" stroke="#202020" stroke-width="1.4" stroke-linejoin="miter" stroke-linecap="butt" class="open-arrowhead" /><line style="stroke:#202020;stroke-width:1.2;" x1="499.7344" x2="119.4102" y1="600.1108" y2="600.1108" /><line style="stroke:#202020;stroke-width:1.2;" x1="119.4102" x2="119.4102" y1="600.1108" y2="632.1108" /><polyline points="115.4102,622.1108 119.4102,632.1108 123.4102,622.1108" fill="none" stroke="#202020" stroke-width="1.4" stroke-linejoin="miter" stroke-linecap="butt" class="open-arrowhead" /><line style="stroke:#202020;stroke-width:1.2;" x1="854.0996" x2="854.0996" y1="462.7695" y2="525.4402" /><line style="stroke:#202020;stroke-width:1.2;" x1="854.0996" x2="511.7344" y1="525.4402" y2="525.4402" /><line style="stroke:#202020;stroke-width:1.2;" x1="511.7344" x2="511.7344" y1="525.4402" y2="588.1108" /><polyline points="507.7344,578.1108 511.7344,588.1108 515.7344,578.1108" fill="none" stroke="#202020" stroke-width="1.4" stroke-linejoin="miter" stroke-linecap="butt" class="open-arrowhead" /><line style="stroke:#202020;stroke-width:1.2;" x1="511.7344" x2="511.7344" y1="799.7046" y2="804.7046" /><line style="stroke:#202020;stroke-width:1.2;" x1="511.7344" x2="854.0996" y1="804.7046" y2="804.7046" /><line style="stroke:#202020;stroke-width:1.2;" x1="854.0996" x2="854.0996" y1="804.7046" y2="819.7046" /><polyline points="850.0996,809.7046 854.0996,819.7046 858.0996,809.7046" fill="none" stroke="#202020" stroke-width="1.4" stroke-linejoin="miter" stroke-linecap="butt" class="open-arrowhead" /><line style="stroke:#202020;stroke-width:1.2;" x1="854.0996" x2="854.0996" y1="843.7046" y2="848.7046" /><line style="stroke:#202020;stroke-width:1.2;" x1="854.0996" x2="226.4941" y1="848.7046" y2="848.7046" /><line style="stroke:#202020;stroke-width:1.2;" x1="226.4941" x2="226.4941" y1="848.7046" y2="863.7046" /><polyline points="222.4941,853.7046 226.4941,863.7046 230.4941,853.7046" fill="none" stroke="#202020" stroke-width="1.4" stroke-linejoin="miter" stroke-linecap="butt" class="open-arrowhead" /><line style="stroke:#202020;stroke-width:1.2;" x1="226.4941" x2="226.4941" y1="920.5015" y2="925.5015" /><line style="stroke:#202020;stroke-width:1.2;" x1="226.4941" x2="511.7344" y1="925.5015" y2="925.5015" /><line style="stroke:#202020;stroke-width:1.2;" x1="511.7344" x2="511.7344" y1="925.5015" y2="940.5015" /><polyline points="507.7344,930.5015 511.7344,940.5015 515.7344,930.5015" fill="none" stroke="#202020" stroke-width="1.4" stroke-linejoin="miter" stroke-linecap="butt" class="open-arrowhead" /><text fill="#111111" font-family="Times New Roman" font-size="18" font-weight="bold" lengthAdjust="spacing" textLength="119.4785" x="111.5742" y="29.1982">Product Owner</text><text fill="#111111" font-family="Times New Roman" font-size="7" font-weight="bold" lengthAdjust="spacing" textLength="1.75" x="107.0742" y="39.627"> </text><text fill="#111111" font-family="Times New Roman" font-size="18" font-weight="bold" lengthAdjust="spacing" textLength="54.9932" x="495.605" y="29.1982">System</text><text fill="#111111" font-family="Times New Roman" font-size="7" font-weight="bold" lengthAdjust="spacing" textLength="1.75" x="491.105" y="39.627"> </text><text fill="#111111" font-family="Times New Roman" font-size="18" font-weight="bold" lengthAdjust="spacing" textLength="77.9678" x="844.9133" y="29.1982">Developer</text><text fill="#111111" font-family="Times New Roman" font-size="7" font-weight="bold" lengthAdjust="spacing" textLength="1.75" x="840.4133" y="39.627"> </text></g><g id="pres-frame" fill="none" stroke="#202020" stroke-width="1.4"><rect x="7" y="12.3936" width="1045.7183" height="1034.9047" /><line x1="7" x2="1052.7183" y1="38.6982" y2="38.6982" /></g></svg>