<svg xmlns="http://www.w3.org/2000/svg" contentStyleType="text/css" height="754px" preserveAspectRatio="none" style="width:1019px;height:754px;background:#FFFFFF;" version="1.1" viewBox="-5 0.3936 1019 754" width="1019px" zoomAndPan="magnify" data-pres-formatted="1"><rect id="pres-background" x="-5" y="0.3936" width="1019" height="754" fill="#FFFFFF" stroke="none" /><defs /><g><rect fill="#FFFFFF" height="30.6982" style="stroke:#FFFFFF;stroke-width:1.0;" width="979.7715" x="15" y="12.3936" /><ellipse cx="331.2559" cy="58.0918" fill="#111111" rx="10" ry="10" style="stroke:#222222;stroke-width:1.0;" /><rect fill="#F7F7F7" height="56.7969" rx="9" ry="9" style="stroke:#202020;stroke-width:1.2;" width="214.6094" x="223.9512" y="88.0918" /><text fill="#111111" font-family="Times New Roman" font-size="16" lengthAdjust="spacing" textLength="194.6094" x="233.9512" y="113.0293">Select a Product Backlog Item</text><text fill="#111111" font-family="Times New Roman" font-size="16" lengthAdjust="spacing" textLength="129.7266" x="233.9512" y="131.4277">and request removal</text><polygon fill="#FFFFFF" points="183.8516,441.6602,195.8516,453.6602,183.8516,465.6602,171.8516,453.6602,183.8516,441.6602" style="stroke:#202020;stroke-width:1.2;" /><text fill="#111111" font-family="Times New Roman" font-size="15" lengthAdjust="spacing" textLength="110.3833" x="189.8516" y="369.4214">Confirm removal?</text><text fill="#111111" font-family="Times New Roman" font-size="15" lengthAdjust="spacing" textLength="3.75" x="189.8516" y="386.6699"> </text><text fill="#111111" font-family="Times New Roman" font-size="15" lengthAdjust="spacing" textLength="3.75" x="189.8516" y="403.9185"> </text><text fill="#111111" font-family="Times New Roman" font-size="15" lengthAdjust="spacing" textLength="3.75" x="189.8516" y="421.167"> </text><text fill="#111111" font-family="Times New Roman" font-size="15" lengthAdjust="spacing" textLength="3.75" x="189.8516" y="438.4155"> </text><text fill="#111111" font-family="Times New Roman" font-size="14" lengthAdjust="spacing" textLength="60.6416" x="111.21" y="440.6318">[confirm]  </text><text fill="#111111" font-family="Times New Roman" font-size="6" lengthAdjust="spacing" textLength="1.5" x="111.21" y="449.2617"> </text><text fill="#111111" font-family="Times New Roman" font-size="14" lengthAdjust="spacing" textLength="47.4072" x="195.8516" y="424.5332">  [cancel</text><text fill="#111111" font-family="Times New Roman" font-size="14" lengthAdjust="spacing" textLength="65.7207" x="195.8516" y="440.6318">  — AF-01]</text><text fill="#111111" font-family="Times New Roman" font-size="6" lengthAdjust="spacing" textLength="1.5" x="195.8516" y="449.2617"> </text><rect fill="#F7F7F7" height="38.3984" rx="9" ry="9" style="stroke:#202020;stroke-width:1.2;" width="130.6406" x="21" y="485.6602" /><text fill="#111111" font-family="Times New Roman" font-size="16" lengthAdjust="spacing" textLength="110.6406" x="31" y="510.5977">Confirm removal</text><line style="stroke:#202020;stroke-width:1.4;" x1="7" x2="7" y1="12.3936" y2="741.8555" /><polygon fill="#FFFFFF" points="771.6992,242.876,783.6992,254.876,771.6992,266.876,759.6992,254.876,771.6992,242.876" style="stroke:#202020;stroke-width:1.2;" /><text fill="#111111" font-family="Times New Roman" font-size="15" lengthAdjust="spacing" textLength="151.6187" x="777.6992" y="170.6372">Item in the active Sprint?</text><text fill="#111111" font-family="Times New Roman" font-size="15" lengthAdjust="spacing" textLength="3.75" x="777.6992" y="187.8857"> </text><text fill="#111111" font-family="Times New Roman" font-size="15" lengthAdjust="spacing" textLength="3.75" x="777.6992" y="205.1343"> </text><text fill="#111111" font-family="Times New Roman" font-size="15" lengthAdjust="spacing" textLength="3.75" x="777.6992" y="222.3828"> </text><text fill="#111111" font-family="Times New Roman" font-size="15" lengthAdjust="spacing" textLength="3.75" x="777.6992" y="239.6313"> </text><text fill="#111111" font-family="Times New Roman" font-size="14" lengthAdjust="spacing" textLength="143.8555" x="615.8438" y="241.8477">[not in the active Sprint]  </text><text fill="#111111" font-family="Times New Roman" font-size="6" lengthAdjust="spacing" textLength="1.5" x="615.8438" y="250.4775"> </text><text fill="#111111" font-family="Times New Roman" font-size="14" lengthAdjust="spacing" textLength="120.8936" x="783.6992" y="225.749">  [locked in the active</text><text fill="#111111" font-family="Times New Roman" font-size="14" lengthAdjust="spacing" textLength="104.2139" x="783.6992" y="241.8477">  Sprint — EX-01]</text><text fill="#111111" font-family="Times New Roman" font-size="6" lengthAdjust="spacing" textLength="1.5" x="783.6992" y="250.4775"> </text><rect fill="#F7F7F7" height="56.7969" rx="9" ry="9" style="stroke:#202020;stroke-width:1.2;" width="167.9609" x="540.3145" y="286.876" /><text fill="#111111" font-family="Times New Roman" font-size="16" lengthAdjust="spacing" textLength="147.9609" x="550.3145" y="311.8135">Display the impact and</text><text fill="#111111" font-family="Times New Roman" font-size="16" lengthAdjust="spacing" textLength="132.8438" x="550.3145" y="330.2119">request confirmation</text><rect fill="#F7F7F7" height="56.7969" rx="9" ry="9" style="stroke:#202020;stroke-width:1.2;" width="156.4063" x="448.5605" y="559.0586" /><text fill="#111111" font-family="Times New Roman" font-size="16" lengthAdjust="spacing" textLength="136.4063" x="458.5605" y="583.9961">Remove the item and</text><text fill="#111111" font-family="Times New Roman" font-size="16" lengthAdjust="spacing" textLength="107.5" x="458.5605" y="602.3945">record the action</text><ellipse cx="526.7637" cy="646.8555" fill="none" rx="11" ry="11" style="stroke:#222222;stroke-width:1.0;" /><ellipse cx="526.7637" cy="646.8555" fill="#222222" rx="6" ry="6" style="stroke:#222222;stroke-width:1.0;" /><rect fill="#F7F7F7" height="56.7969" rx="9" ry="9" style="stroke:#202020;stroke-width:1.2;" width="193.7188" x="624.9668" y="485.6602" /><text fill="#111111" font-family="Times New Roman" font-size="16" lengthAdjust="spacing" textLength="173.7188" x="634.9668" y="510.5977">Leave the Product Backlog</text><text fill="#111111" font-family="Times New Roman" font-size="16" lengthAdjust="spacing" textLength="102.625" x="634.9668" y="528.9961">Item unchanged</text><rect fill="#F7F7F7" height="56.7969" rx="9" ry="9" style="stroke:#202020;stroke-width:1.2;" width="140.8359" x="848.6855" y="286.876" /><text fill="#111111" font-family="Times New Roman" font-size="16" lengthAdjust="spacing" textLength="120.8359" x="858.6855" y="311.8135">Reject the removal</text><text fill="#111111" font-family="Times New Roman" font-size="16" lengthAdjust="spacing" textLength="115.9609" x="858.6855" y="330.2119">of the locked item</text><polygon fill="#FFFFFF" points="771.6992,667.8555,783.6992,679.8555,771.6992,691.8555,759.6992,679.8555,771.6992,667.8555" style="stroke:#202020;stroke-width:1.2;" /><ellipse cx="771.6992" cy="722.8555" fill="none" rx="11" ry="11" style="stroke:#222222;stroke-width:1.0;" /><ellipse cx="771.6992" cy="722.8555" fill="#222222" rx="6" ry="6" style="stroke:#222222;stroke-width:1.0;" /><line style="stroke:#202020;stroke-width:1.4;" x1="442.5605" x2="442.5605" y1="12.3936" y2="741.8555" /><line style="stroke:#202020;stroke-width:1.4;" x1="1001.5215" x2="1001.5215" y1="12.3936" y2="741.8555" /><line style="stroke:#202020;stroke-width:1.2;" x1="331.2559" x2="331.2559" y1="68.0918" y2="88.0918" /><polyline points="327.2559,78.0918 331.2559,88.0918 335.2559,78.0918" fill="none" stroke="#202020" stroke-width="1.4" stroke-linejoin="miter" stroke-linecap="butt" class="open-arrowhead" /><line style="stroke:#202020;stroke-width:1.2;" x1="171.8516" x2="86.3203" y1="453.6602" y2="453.6602" /><line style="stroke:#202020;stroke-width:1.2;" x1="86.3203" x2="86.3203" y1="453.6602" y2="485.6602" /><polyline points="82.3203,475.6602 86.3203,485.6602 90.3203,475.6602" fill="none" stroke="#202020" stroke-width="1.4" stroke-linejoin="miter" stroke-linecap="butt" class="open-arrowhead" /><line style="stroke:#202020;stroke-width:1.2;" x1="526.7637" x2="526.7637" y1="615.8555" y2="635.8555" /><polyline points="522.7637,625.8555 526.7637,635.8555 530.7637,625.8555" fill="none" stroke="#202020" stroke-width="1.4" stroke-linejoin="miter" stroke-linecap="butt" class="open-arrowhead" /><line style="stroke:#202020;stroke-width:1.2;" x1="759.6992" x2="624.2949" y1="254.876" y2="254.876" /><line style="stroke:#202020;stroke-width:1.2;" x1="624.2949" x2="624.2949" y1="254.876" y2="286.876" /><polyline points="620.2949,276.876 624.2949,286.876 628.2949,276.876" fill="none" stroke="#202020" stroke-width="1.4" stroke-linejoin="miter" stroke-linecap="butt" class="open-arrowhead" /><line style="stroke:#202020;stroke-width:1.2;" x1="783.6992" x2="919.1035" y1="254.876" y2="254.876" /><line style="stroke:#202020;stroke-width:1.2;" x1="919.1035" x2="919.1035" y1="254.876" y2="286.876" /><polyline points="915.1035,276.876 919.1035,286.876 923.1035,276.876" fill="none" stroke="#202020" stroke-width="1.4" stroke-linejoin="miter" stroke-linecap="butt" class="open-arrowhead" /><line style="stroke:#202020;stroke-width:1.2;" x1="919.1035" x2="919.1035" y1="343.6729" y2="679.8555" /><line style="stroke:#202020;stroke-width:1.2;" x1="919.1035" x2="783.6992" y1="679.8555" y2="679.8555" /><polyline points="793.6992,675.8555 783.6992,679.8555 793.6992,683.8555" fill="none" stroke="#202020" stroke-width="1.4" stroke-linejoin="miter" stroke-linecap="butt" class="open-arrowhead" /><line style="stroke:#202020;stroke-width:1.2;" x1="771.6992" x2="771.6992" y1="691.8555" y2="711.8555" /><polyline points="767.6992,701.8555 771.6992,711.8555 775.6992,701.8555" fill="none" stroke="#202020" stroke-width="1.4" stroke-linejoin="miter" stroke-linecap="butt" class="open-arrowhead" /><line style="stroke:#202020;stroke-width:1.2;" x1="86.3203" x2="86.3203" y1="524.0586" y2="541.5586" /><line style="stroke:#202020;stroke-width:1.2;" x1="86.3203" x2="526.7637" y1="541.5586" y2="541.5586" /><line style="stroke:#202020;stroke-width:1.2;" x1="526.7637" x2="526.7637" y1="541.5586" y2="559.0586" /><polyline points="522.7637,549.0586 526.7637,559.0586 530.7637,549.0586" fill="none" stroke="#202020" stroke-width="1.4" stroke-linejoin="miter" stroke-linecap="butt" class="open-arrowhead" /><line style="stroke:#202020;stroke-width:1.2;" x1="195.8516" x2="721.8262" y1="453.6602" y2="453.6602" /><line style="stroke:#202020;stroke-width:1.2;" x1="721.8262" x2="721.8262" y1="453.6602" y2="485.6602" /><polyline points="717.8262,475.6602 721.8262,485.6602 725.8262,475.6602" fill="none" stroke="#202020" stroke-width="1.4" stroke-linejoin="miter" stroke-linecap="butt" class="open-arrowhead" /><line style="stroke:#202020;stroke-width:1.2;" x1="721.8262" x2="721.8262" y1="542.457" y2="679.8555" /><line style="stroke:#202020;stroke-width:1.2;" x1="721.8262" x2="759.6992" y1="679.8555" y2="679.8555" /><polyline points="749.6992,675.8555 759.6992,679.8555 749.6992,683.8555" fill="none" stroke="#202020" stroke-width="1.4" stroke-linejoin="miter" stroke-linecap="butt" class="open-arrowhead" /><line style="stroke:#202020;stroke-width:1.2;" x1="624.2949" x2="624.2949" y1="343.6729" y2="381.0388" /><line style="stroke:#202020;stroke-width:1.2;" x1="624.2949" x2="183.8516" y1="381.0388" y2="381.0388" /><line style="stroke:#202020;stroke-width:1.2;" x1="183.8516" x2="183.8516" y1="381.0388" y2="441.6602" /><polyline points="179.8516,431.6602 183.8516,441.6602 187.8516,431.6602" fill="none" stroke="#202020" stroke-width="1.4" stroke-linejoin="miter" stroke-linecap="butt" class="open-arrowhead" /><line style="stroke:#202020;stroke-width:1.2;" x1="331.2559" x2="331.2559" y1="144.8887" y2="182.2546" /><line style="stroke:#202020;stroke-width:1.2;" x1="331.2559" x2="771.6992" y1="182.2546" y2="182.2546" /><line style="stroke:#202020;stroke-width:1.2;" x1="771.6992" x2="771.6992" y1="182.2546" y2="242.876" /><polyline points="767.6992,232.876 771.6992,242.876 775.6992,232.876" fill="none" stroke="#202020" stroke-width="1.4" stroke-linejoin="miter" stroke-linecap="butt" class="open-arrowhead" /><text fill="#111111" font-family="Times New Roman" font-size="18" font-weight="bold" lengthAdjust="spacing" textLength="119.4785" x="171.291" y="29.1982">Product Owner</text><text fill="#111111" font-family="Times New Roman" font-size="7" font-weight="bold" lengthAdjust="spacing" textLength="1.75" x="166.791" y="39.627"> </text><text fill="#111111" font-family="Times New Roman" font-size="18" font-weight="bold" lengthAdjust="spacing" textLength="54.9932" x="692.7944" y="29.1982">System</text><text fill="#111111" font-family="Times New Roman" font-size="7" font-weight="bold" lengthAdjust="spacing" textLength="1.75" x="688.2944" y="39.627"> </text></g><g id="pres-frame" fill="none" stroke="#202020" stroke-width="1.4"><rect x="7" y="12.3936" width="994.5215" height="729.4619" /><line x1="7" x2="1001.5215" y1="38.6982" y2="38.6982" /></g></svg>