<svg xmlns="http://www.w3.org/2000/svg" contentStyleType="text/css" height="1010px" preserveAspectRatio="none" style="width:663px;height:1010px;background:#FFFFFF;" version="1.1" viewBox="-5 0.3936 663 1010" width="663px" zoomAndPan="magnify" data-pres-formatted="1"><rect id="pres-background" x="-5" y="0.3936" width="663" height="1010" fill="#FFFFFF" stroke="none" /><defs /><g><rect fill="#FFFFFF" height="30.6982" style="stroke:#FFFFFF;stroke-width:1.0;" width="623.6172" x="15" y="12.3936" /><ellipse cx="108.5195" cy="58.0918" fill="#111111" rx="10" ry="10" style="stroke:#222222;stroke-width:1.0;" /><rect fill="#F7F7F7" height="56.7969" rx="9" ry="9" style="stroke:#202020;stroke-width:1.2;" width="175.0391" x="21" y="88.0918" /><text fill="#111111" font-family="Times New Roman" font-size="16" lengthAdjust="spacing" textLength="155.0391" x="31" y="113.0293">Select a project member</text><text fill="#111111" font-family="Times New Roman" font-size="16" lengthAdjust="spacing" textLength="129.7266" x="31" y="131.4277">and request removal</text><rect fill="#F7F7F7" height="38.3984" rx="9" ry="9" style="stroke:#202020;stroke-width:1.2;" width="154.1875" x="31.4258" y="755.458" /><text fill="#111111" font-family="Times New Roman" font-size="16" lengthAdjust="spacing" textLength="134.1875" x="41.4258" y="780.3955">Confirm the removal</text><line style="stroke:#202020;stroke-width:1.4;" x1="7" x2="7" y1="12.3936" y2="997.4502" /><rect fill="#F7F7F7" height="38.3984" rx="9" ry="9" style="stroke:#202020;stroke-width:1.2;" width="402.3281" x="206.0391" y="305.9746" /><text fill="#111111" font-family="Times New Roman" font-size="16" lengthAdjust="spacing" textLength="382.3281" x="216.0391" y="330.9121">Reject the removal of the Project Owner's own membership</text><ellipse cx="407.2031" cy="381.6738" fill="none" rx="11" ry="11" style="stroke:#222222;stroke-width:1.0;" /><ellipse cx="407.2031" cy="381.6738" fill="#222222" rx="6" ry="6" style="stroke:#222222;stroke-width:1.0;" /><polygon fill="#FFFFFF" points="407.2031,242.876,419.2031,254.876,407.2031,266.876,395.2031,254.876,407.2031,242.876" style="stroke:#202020;stroke-width:1.2;" /><text fill="#111111" font-family="Times New Roman" font-size="15" lengthAdjust="spacing" textLength="165.7764" x="413.2031" y="170.6372">Own membership selected?</text><text fill="#111111" font-family="Times New Roman" font-size="15" lengthAdjust="spacing" textLength="3.75" x="413.2031" y="187.8857"> </text><text fill="#111111" font-family="Times New Roman" font-size="15" lengthAdjust="spacing" textLength="3.75" x="413.2031" y="205.1343"> </text><text fill="#111111" font-family="Times New Roman" font-size="15" lengthAdjust="spacing" textLength="3.75" x="413.2031" y="222.3828"> </text><text fill="#111111" font-family="Times New Roman" font-size="15" lengthAdjust="spacing" textLength="3.75" x="413.2031" y="239.6313"> </text><text fill="#111111" font-family="Times New Roman" font-size="14" lengthAdjust="spacing" textLength="108.4795" x="413.2031" y="279.9463">  [own membership</text><text fill="#111111" font-family="Times New Roman" font-size="14" lengthAdjust="spacing" textLength="66.4863" x="413.2031" y="296.0449">  — EX-01]</text><text fill="#111111" font-family="Times New Roman" font-size="6" lengthAdjust="spacing" textLength="1.5" x="413.2031" y="304.6748"> </text><text fill="#111111" font-family="Times New Roman" font-size="14" lengthAdjust="spacing" textLength="107.6729" x="419.2031" y="241.8477">[another member]  </text><text fill="#111111" font-family="Times New Roman" font-size="6" lengthAdjust="spacing" textLength="1.5" x="419.2031" y="250.4775"> </text><rect fill="#F7F7F7" height="56.7969" rx="9" ry="9" style="stroke:#202020;stroke-width:1.2;" width="283.2656" x="265.5703" y="434.6738" /><text fill="#111111" font-family="Times New Roman" font-size="16" lengthAdjust="spacing" textLength="263.2656" x="275.5703" y="459.6113">Display the member's active assignments</text><text fill="#111111" font-family="Times New Roman" font-size="16" lengthAdjust="spacing" textLength="157.7266" x="275.5703" y="478.0098">and ask for confirmation</text><rect fill="#F7F7F7" height="38.3984" rx="9" ry="9" style="stroke:#202020;stroke-width:1.2;" width="339.4375" x="237.4844" y="618.0596" /><text fill="#111111" font-family="Times New Roman" font-size="16" lengthAdjust="spacing" textLength="319.4375" x="247.4844" y="642.9971">Require the work to be reassigned before removal</text><ellipse cx="407.2031" cy="702.458" fill="none" rx="11" ry="11" style="stroke:#222222;stroke-width:1.0;" /><ellipse cx="407.2031" cy="702.458" fill="#222222" rx="6" ry="6" style="stroke:#222222;stroke-width:1.0;" /><polygon fill="#FFFFFF" points="407.2031,554.9609,419.2031,566.9609,407.2031,578.9609,395.2031,566.9609,407.2031,554.9609" style="stroke:#202020;stroke-width:1.2;" /><text fill="#111111" font-family="Times New Roman" font-size="15" lengthAdjust="spacing" textLength="148.3154" x="413.2031" y="517.2192">Unfinished Sprint work?</text><text fill="#111111" font-family="Times New Roman" font-size="15" lengthAdjust="spacing" textLength="3.75" x="413.2031" y="534.4678"> </text><text fill="#111111" font-family="Times New Roman" font-size="15" lengthAdjust="spacing" textLength="3.75" x="413.2031" y="551.7163"> </text><text fill="#111111" font-family="Times New Roman" font-size="14" lengthAdjust="spacing" textLength="103.8242" x="413.2031" y="592.0313">  [owns unfinished</text><text fill="#111111" font-family="Times New Roman" font-size="14" lengthAdjust="spacing" textLength="97.9932" x="413.2031" y="608.1299">  work — AF-01]</text><text fill="#111111" font-family="Times New Roman" font-size="6" lengthAdjust="spacing" textLength="1.5" x="413.2031" y="616.7598"> </text><text fill="#111111" font-family="Times New Roman" font-size="14" lengthAdjust="spacing" textLength="43.5381" x="419.2031" y="553.9326">[none]  </text><text fill="#111111" font-family="Times New Roman" font-size="6" lengthAdjust="spacing" textLength="1.5" x="419.2031" y="562.5625"> </text><rect fill="#F7F7F7" height="56.7969" rx="9" ry="9" style="stroke:#202020;stroke-width:1.2;" width="223.5" x="295.4531" y="813.8564" /><text fill="#111111" font-family="Times New Roman" font-size="16" lengthAdjust="spacing" textLength="203.5" x="305.4531" y="838.7939">Remove Scrum accountabilities</text><text fill="#111111" font-family="Times New Roman" font-size="16" lengthAdjust="spacing" textLength="154.6172" x="305.4531" y="857.1924">and project membership</text><rect fill="#F7F7F7" height="56.7969" rx="9" ry="9" style="stroke:#202020;stroke-width:1.2;" width="173.2734" x="320.5664" y="890.6533" /><text fill="#111111" font-family="Times New Roman" font-size="16" lengthAdjust="spacing" textLength="153.2734" x="330.5664" y="915.5908">Record the removal and</text><text fill="#111111" font-family="Times New Roman" font-size="16" lengthAdjust="spacing" textLength="147.9453" x="330.5664" y="933.9893">refresh the member list</text><ellipse cx="407.2031" cy="978.4502" fill="none" rx="11" ry="11" style="stroke:#222222;stroke-width:1.0;" /><ellipse cx="407.2031" cy="978.4502" fill="#222222" rx="6" ry="6" style="stroke:#222222;stroke-width:1.0;" /><line style="stroke:#202020;stroke-width:1.4;" x1="200.0391" x2="200.0391" y1="12.3936" y2="997.4502" /><line style="stroke:#202020;stroke-width:1.4;" x1="645.3672" x2="645.3672" y1="12.3936" y2="997.4502" /><line style="stroke:#202020;stroke-width:1.2;" x1="108.5195" x2="108.5195" y1="68.0918" y2="88.0918" /><polyline points="104.5195,78.0918 108.5195,88.0918 112.5195,78.0918" fill="none" stroke="#202020" stroke-width="1.4" stroke-linejoin="miter" stroke-linecap="butt" class="open-arrowhead" /><line style="stroke:#202020;stroke-width:1.2;" x1="407.2031" x2="407.2031" y1="344.373" y2="370.6738" /><polyline points="403.2031,360.6738 407.2031,370.6738 411.2031,360.6738" fill="none" stroke="#202020" stroke-width="1.4" stroke-linejoin="miter" stroke-linecap="butt" class="open-arrowhead" /><line style="stroke:#202020;stroke-width:1.2;" x1="407.2031" x2="407.2031" y1="266.876" y2="305.9746" /><polyline points="403.2031,295.9746 407.2031,305.9746 411.2031,295.9746" fill="none" stroke="#202020" stroke-width="1.4" stroke-linejoin="miter" stroke-linecap="butt" class="open-arrowhead" /><line style="stroke:#202020;stroke-width:1.2;" x1="419.2031" x2="618.3672" y1="254.876" y2="254.876" /><polyline points="614.3672,340.6738 618.3672,350.6738 622.3672,340.6738" fill="none" stroke="#202020" stroke-width="1.4" stroke-linejoin="miter" stroke-linecap="butt" class="open-arrowhead" /><line style="stroke:#202020;stroke-width:1.2;" x1="618.3672" x2="618.3672" y1="254.876" y2="414.6738" /><line style="stroke:#202020;stroke-width:1.2;" x1="618.3672" x2="407.2031" y1="414.6738" y2="414.6738" /><line style="stroke:#202020;stroke-width:1.2;" x1="407.2031" x2="407.2031" y1="414.6738" y2="434.6738" /><polyline points="403.2031,424.6738 407.2031,434.6738 411.2031,424.6738" fill="none" stroke="#202020" stroke-width="1.4" stroke-linejoin="miter" stroke-linecap="butt" class="open-arrowhead" /><line style="stroke:#202020;stroke-width:1.2;" x1="407.2031" x2="407.2031" y1="656.458" y2="691.458" /><polyline points="403.2031,681.458 407.2031,691.458 411.2031,681.458" fill="none" stroke="#202020" stroke-width="1.4" stroke-linejoin="miter" stroke-linecap="butt" class="open-arrowhead" /><line style="stroke:#202020;stroke-width:1.2;" x1="407.2031" x2="407.2031" y1="578.9609" y2="618.0596" /><polyline points="403.2031,608.0596 407.2031,618.0596 411.2031,608.0596" fill="none" stroke="#202020" stroke-width="1.4" stroke-linejoin="miter" stroke-linecap="butt" class="open-arrowhead" /><line style="stroke:#202020;stroke-width:1.2;" x1="419.2031" x2="586.9219" y1="566.9609" y2="566.9609" /><polyline points="582.9219,661.5088 586.9219,671.5088 590.9219,661.5088" fill="none" stroke="#202020" stroke-width="1.4" stroke-linejoin="miter" stroke-linecap="butt" class="open-arrowhead" /><line style="stroke:#202020;stroke-width:1.2;" x1="586.9219" x2="586.9219" y1="566.9609" y2="740.458" /><line style="stroke:#202020;stroke-width:1.2;" x1="586.9219" x2="108.5195" y1="740.458" y2="740.458" /><line style="stroke:#202020;stroke-width:1.2;" x1="108.5195" x2="108.5195" y1="740.458" y2="755.458" /><polyline points="104.5195,745.458 108.5195,755.458 112.5195,745.458" fill="none" stroke="#202020" stroke-width="1.4" stroke-linejoin="miter" stroke-linecap="butt" class="open-arrowhead" /><line style="stroke:#202020;stroke-width:1.2;" x1="407.2031" x2="407.2031" y1="491.4707" y2="554.9609" /><polyline points="403.2031,544.9609 407.2031,554.9609 411.2031,544.9609" fill="none" stroke="#202020" stroke-width="1.4" stroke-linejoin="miter" stroke-linecap="butt" class="open-arrowhead" /><line style="stroke:#202020;stroke-width:1.2;" x1="407.2031" x2="407.2031" y1="870.6533" y2="890.6533" /><polyline points="403.2031,880.6533 407.2031,890.6533 411.2031,880.6533" fill="none" stroke="#202020" stroke-width="1.4" stroke-linejoin="miter" stroke-linecap="butt" class="open-arrowhead" /><line style="stroke:#202020;stroke-width:1.2;" x1="407.2031" x2="407.2031" y1="947.4502" y2="967.4502" /><polyline points="403.2031,957.4502 407.2031,967.4502 411.2031,957.4502" fill="none" stroke="#202020" stroke-width="1.4" stroke-linejoin="miter" stroke-linecap="butt" class="open-arrowhead" /><line style="stroke:#202020;stroke-width:1.2;" x1="108.5195" x2="108.5195" y1="144.8887" y2="182.2546" /><line style="stroke:#202020;stroke-width:1.2;" x1="108.5195" x2="407.2031" y1="182.2546" y2="182.2546" /><line style="stroke:#202020;stroke-width:1.2;" x1="407.2031" x2="407.2031" y1="182.2546" y2="242.876" /><polyline points="403.2031,232.876 407.2031,242.876 411.2031,232.876" fill="none" stroke="#202020" stroke-width="1.4" stroke-linejoin="miter" stroke-linecap="butt" class="open-arrowhead" /><line style="stroke:#202020;stroke-width:1.2;" x1="108.5195" x2="108.5195" y1="793.8564" y2="798.8564" /><line style="stroke:#202020;stroke-width:1.2;" x1="108.5195" x2="407.2031" y1="798.8564" y2="798.8564" /><line style="stroke:#202020;stroke-width:1.2;" x1="407.2031" x2="407.2031" y1="798.8564" y2="813.8564" /><polyline points="403.2031,803.8564 407.2031,813.8564 411.2031,803.8564" fill="none" stroke="#202020" stroke-width="1.4" stroke-linejoin="miter" stroke-linecap="butt" class="open-arrowhead" /><text fill="#111111" font-family="Times New Roman" font-size="18" font-weight="bold" lengthAdjust="spacing" textLength="113.4404" x="53.0493" y="29.1982">Project Owner</text><text fill="#111111" font-family="Times New Roman" font-size="7" font-weight="bold" lengthAdjust="spacing" textLength="1.75" x="48.5493" y="39.627"> </text><text fill="#111111" font-family="Times New Roman" font-size="18" font-weight="bold" lengthAdjust="spacing" textLength="54.9932" x="393.4565" y="29.1982">System</text><text fill="#111111" font-family="Times New Roman" font-size="7" font-weight="bold" lengthAdjust="spacing" textLength="1.75" x="388.9565" y="39.627"> </text></g><g id="pres-frame" fill="none" stroke="#202020" stroke-width="1.4"><rect x="7" y="12.3936" width="638.3672" height="985.0566" /><line x1="7" x2="645.3672" y1="38.6982" y2="38.6982" /></g></svg>