<svg xmlns="http://www.w3.org/2000/svg" contentStyleType="text/css" height="733px" preserveAspectRatio="none" style="width:1076px;height:733px;background:#FFFFFF;" version="1.1" viewBox="-5 0.3936 1076 733" width="1076px" zoomAndPan="magnify" data-pres-formatted="1"><rect id="pres-background" x="-5" y="0.3936" width="1076" height="733" fill="#FFFFFF" stroke="none" /><defs /><g><rect fill="#FFFFFF" height="30.6982" style="stroke:#FFFFFF;stroke-width:1.0;" width="1037.1152" x="15" y="12.3936" /><ellipse cx="343.3379" cy="58.0918" fill="#111111" rx="10" ry="10" style="stroke:#222222;stroke-width:1.0;" /><rect fill="#F7F7F7" height="38.3984" rx="9" ry="9" style="stroke:#202020;stroke-width:1.2;" width="175.4922" x="255.5918" y="88.0918" /><text fill="#111111" font-family="Times New Roman" font-size="16" lengthAdjust="spacing" textLength="155.4922" x="265.5918" y="113.0293">Request project archival</text><polygon fill="#FFFFFF" points="193.6133,447.1631,205.6133,459.1631,193.6133,471.1631,181.6133,459.1631,193.6133,447.1631" style="stroke:#202020;stroke-width:1.2;" /><text fill="#111111" font-family="Times New Roman" font-size="15" lengthAdjust="spacing" textLength="109.541" x="199.6133" y="374.9243">Confirm archival?</text><text fill="#111111" font-family="Times New Roman" font-size="15" lengthAdjust="spacing" textLength="3.75" x="199.6133" y="392.1729"> </text><text fill="#111111" font-family="Times New Roman" font-size="15" lengthAdjust="spacing" textLength="3.75" x="199.6133" y="409.4214"> </text><text fill="#111111" font-family="Times New Roman" font-size="15" lengthAdjust="spacing" textLength="3.75" x="199.6133" y="426.6699"> </text><text fill="#111111" font-family="Times New Roman" font-size="15" lengthAdjust="spacing" textLength="3.75" x="199.6133" y="443.9185"> </text><text fill="#111111" font-family="Times New Roman" font-size="14" lengthAdjust="spacing" textLength="60.6416" x="120.9717" y="446.1348">[confirm]  </text><text fill="#111111" font-family="Times New Roman" font-size="6" lengthAdjust="spacing" textLength="1.5" x="120.9717" y="454.7646"> </text><text fill="#111111" font-family="Times New Roman" font-size="14" lengthAdjust="spacing" textLength="47.4072" x="205.6133" y="430.0361">  [cancel</text><text fill="#111111" font-family="Times New Roman" font-size="14" lengthAdjust="spacing" textLength="65.7207" x="205.6133" y="446.1348">  — AF-01]</text><text fill="#111111" font-family="Times New Roman" font-size="6" lengthAdjust="spacing" textLength="1.5" x="205.6133" y="454.7646"> </text><rect fill="#F7F7F7" height="38.3984" rx="9" ry="9" style="stroke:#202020;stroke-width:1.2;" width="129.7422" x="21" y="491.1631" /><text fill="#111111" font-family="Times New Roman" font-size="16" lengthAdjust="spacing" textLength="109.7422" x="31" y="516.1006">Confirm archival</text><polygon fill="#FFFFFF" points="193.6133,612.96,205.6133,624.96,193.6133,636.96,181.6133,624.96,193.6133,612.96" style="stroke:#202020;stroke-width:1.2;" /><line style="stroke:#202020;stroke-width:1.4;" x1="7" x2="7" y1="12.3936" y2="720.96" /><rect fill="#F7F7F7" height="38.3984" rx="9" ry="9" style="stroke:#202020;stroke-width:1.2;" width="187.9453" x="720.7617" y="146.4902" /><text fill="#111111" font-family="Times New Roman" font-size="16" lengthAdjust="spacing" textLength="167.9453" x="730.7617" y="171.4277">Check for an active Sprint</text><polygon fill="#FFFFFF" points="814.7344,248.3789,826.7344,260.3789,814.7344,272.3789,802.7344,260.3789,814.7344,248.3789" style="stroke:#202020;stroke-width:1.2;" /><text fill="#111111" font-family="Times New Roman" font-size="15" lengthAdjust="spacing" textLength="87.063" x="820.7344" y="210.6372">Active Sprint?</text><text fill="#111111" font-family="Times New Roman" font-size="15" lengthAdjust="spacing" textLength="3.75" x="820.7344" y="227.8857"> </text><text fill="#111111" font-family="Times New Roman" font-size="15" lengthAdjust="spacing" textLength="3.75" x="820.7344" y="245.1343"> </text><text fill="#111111" font-family="Times New Roman" font-size="14" lengthAdjust="spacing" textLength="43.5381" x="759.1963" y="247.3506">[none]  </text><text fill="#111111" font-family="Times New Roman" font-size="6" lengthAdjust="spacing" textLength="1.5" x="759.1963" y="255.9805"> </text><text fill="#111111" font-family="Times New Roman" font-size="14" lengthAdjust="spacing" textLength="82.8105" x="826.7344" y="231.252">  [active Sprint</text><text fill="#111111" font-family="Times New Roman" font-size="14" lengthAdjust="spacing" textLength="66.4863" x="826.7344" y="247.3506">  — EX-01]</text><text fill="#111111" font-family="Times New Roman" font-size="6" lengthAdjust="spacing" textLength="1.5" x="826.7344" y="255.9805"> </text><rect fill="#F7F7F7" height="56.7969" rx="9" ry="9" style="stroke:#202020;stroke-width:1.2;" width="166.6016" x="581.709" y="292.3789" /><text fill="#111111" font-family="Times New Roman" font-size="16" lengthAdjust="spacing" textLength="146.6016" x="591.709" y="317.3164">Summarize effects and</text><text fill="#111111" font-family="Times New Roman" font-size="16" lengthAdjust="spacing" textLength="132.8438" x="591.709" y="335.7148">request confirmation</text><rect fill="#F7F7F7" height="38.3984" rx="9" ry="9" style="stroke:#202020;stroke-width:1.2;" width="232.3672" x="441.084" y="564.5615" /><text fill="#111111" font-family="Times New Roman" font-size="16" lengthAdjust="spacing" textLength="212.3672" x="451.084" y="589.499">Mark project and work read-only</text><rect fill="#F7F7F7" height="56.7969" rx="9" ry="9" style="stroke:#202020;stroke-width:1.2;" width="158.6016" x="693.4512" y="491.1631" /><text fill="#111111" font-family="Times New Roman" font-size="16" lengthAdjust="spacing" textLength="87.5" x="703.4512" y="516.1006">Leave project</text><text fill="#111111" font-family="Times New Roman" font-size="16" lengthAdjust="spacing" textLength="138.6016" x="703.4512" y="534.499">active and unchanged</text><rect fill="#F7F7F7" height="38.3984" rx="9" ry="9" style="stroke:#202020;stroke-width:1.2;" width="164.8125" x="882.0527" y="292.3789" /><text fill="#111111" font-family="Times New Roman" font-size="16" lengthAdjust="spacing" textLength="144.8125" x="892.0527" y="317.3164">Reject project archival</text><polygon fill="#FFFFFF" points="814.7344,646.96,826.7344,658.96,814.7344,670.96,802.7344,658.96,814.7344,646.96" style="stroke:#202020;stroke-width:1.2;" /><ellipse cx="814.7344" cy="701.96" fill="none" rx="11" ry="11" style="stroke:#222222;stroke-width:1.0;" /><ellipse cx="814.7344" cy="701.96" fill="#222222" rx="6" ry="6" style="stroke:#222222;stroke-width:1.0;" /><line style="stroke:#202020;stroke-width:1.4;" x1="435.084" x2="435.084" y1="12.3936" y2="720.96" /><line style="stroke:#202020;stroke-width:1.4;" x1="1058.8652" x2="1058.8652" y1="12.3936" y2="720.96" /><line style="stroke:#202020;stroke-width:1.2;" x1="343.3379" x2="343.3379" y1="68.0918" y2="88.0918" /><polyline points="339.3379,78.0918 343.3379,88.0918 347.3379,78.0918" fill="none" stroke="#202020" stroke-width="1.4" stroke-linejoin="miter" stroke-linecap="butt" class="open-arrowhead" /><line style="stroke:#202020;stroke-width:1.2;" x1="181.6133" x2="85.8711" y1="459.1631" y2="459.1631" /><line style="stroke:#202020;stroke-width:1.2;" x1="85.8711" x2="85.8711" y1="459.1631" y2="491.1631" /><polyline points="81.8711,481.1631 85.8711,491.1631 89.8711,481.1631" fill="none" stroke="#202020" stroke-width="1.4" stroke-linejoin="miter" stroke-linecap="butt" class="open-arrowhead" /><line style="stroke:#202020;stroke-width:1.2;" x1="802.7344" x2="665.0098" y1="260.3789" y2="260.3789" /><line style="stroke:#202020;stroke-width:1.2;" x1="665.0098" x2="665.0098" y1="260.3789" y2="292.3789" /><polyline points="661.0098,282.3789 665.0098,292.3789 669.0098,282.3789" fill="none" stroke="#202020" stroke-width="1.4" stroke-linejoin="miter" stroke-linecap="butt" class="open-arrowhead" /><line style="stroke:#202020;stroke-width:1.2;" x1="826.7344" x2="964.459" y1="260.3789" y2="260.3789" /><line style="stroke:#202020;stroke-width:1.2;" x1="964.459" x2="964.459" y1="260.3789" y2="292.3789" /><polyline points="960.459,282.3789 964.459,292.3789 968.459,282.3789" fill="none" stroke="#202020" stroke-width="1.4" stroke-linejoin="miter" stroke-linecap="butt" class="open-arrowhead" /><line style="stroke:#202020;stroke-width:1.2;" x1="964.459" x2="964.459" y1="330.7773" y2="658.96" /><line style="stroke:#202020;stroke-width:1.2;" x1="964.459" x2="826.7344" y1="658.96" y2="658.96" /><polyline points="836.7344,654.96 826.7344,658.96 836.7344,662.96" fill="none" stroke="#202020" stroke-width="1.4" stroke-linejoin="miter" stroke-linecap="butt" class="open-arrowhead" /><line style="stroke:#202020;stroke-width:1.2;" x1="814.7344" x2="814.7344" y1="184.8887" y2="248.3789" /><polyline points="810.7344,238.3789 814.7344,248.3789 818.7344,238.3789" fill="none" stroke="#202020" stroke-width="1.4" stroke-linejoin="miter" stroke-linecap="butt" class="open-arrowhead" /><line style="stroke:#202020;stroke-width:1.2;" x1="814.7344" x2="814.7344" y1="670.96" y2="690.96" /><polyline points="810.7344,680.96 814.7344,690.96 818.7344,680.96" fill="none" stroke="#202020" stroke-width="1.4" stroke-linejoin="miter" stroke-linecap="butt" class="open-arrowhead" /><line style="stroke:#202020;stroke-width:1.2;" x1="343.3379" x2="343.3379" y1="126.4902" y2="131.4902" /><line style="stroke:#202020;stroke-width:1.2;" x1="343.3379" x2="814.7344" y1="131.4902" y2="131.4902" /><line style="stroke:#202020;stroke-width:1.2;" x1="814.7344" x2="814.7344" y1="131.4902" y2="146.4902" /><polyline points="810.7344,136.4902 814.7344,146.4902 818.7344,136.4902" fill="none" stroke="#202020" stroke-width="1.4" stroke-linejoin="miter" stroke-linecap="butt" class="open-arrowhead" /><line style="stroke:#202020;stroke-width:1.2;" x1="85.8711" x2="85.8711" y1="529.5615" y2="547.0615" /><line style="stroke:#202020;stroke-width:1.2;" x1="85.8711" x2="557.2676" y1="547.0615" y2="547.0615" /><line style="stroke:#202020;stroke-width:1.2;" x1="557.2676" x2="557.2676" y1="547.0615" y2="564.5615" /><polyline points="553.2676,554.5615 557.2676,564.5615 561.2676,554.5615" fill="none" stroke="#202020" stroke-width="1.4" stroke-linejoin="miter" stroke-linecap="butt" class="open-arrowhead" /><line style="stroke:#202020;stroke-width:1.2;" x1="205.6133" x2="772.752" y1="459.1631" y2="459.1631" /><line style="stroke:#202020;stroke-width:1.2;" x1="772.752" x2="772.752" y1="459.1631" y2="491.1631" /><polyline points="768.752,481.1631 772.752,491.1631 776.752,481.1631" fill="none" stroke="#202020" stroke-width="1.4" stroke-linejoin="miter" stroke-linecap="butt" class="open-arrowhead" /><line style="stroke:#202020;stroke-width:1.2;" x1="557.2676" x2="557.2676" y1="602.96" y2="606.96" /><line style="stroke:#202020;stroke-width:1.2;" x1="557.2676" x2="163.6133" y1="606.96" y2="606.96" /><line style="stroke:#202020;stroke-width:1.2;" x1="163.6133" x2="163.6133" y1="606.96" y2="624.96" /><line style="stroke:#202020;stroke-width:1.2;" x1="163.6133" x2="181.6133" y1="624.96" y2="624.96" /><polyline points="171.6133,620.96 181.6133,624.96 171.6133,628.96" fill="none" stroke="#202020" stroke-width="1.4" stroke-linejoin="miter" stroke-linecap="butt" class="open-arrowhead" /><line style="stroke:#202020;stroke-width:1.2;" x1="772.752" x2="772.752" y1="547.96" y2="624.96" /><line style="stroke:#202020;stroke-width:1.2;" x1="772.752" x2="205.6133" y1="624.96" y2="624.96" /><polyline points="215.6133,620.96 205.6133,624.96 215.6133,628.96" fill="none" stroke="#202020" stroke-width="1.4" stroke-linejoin="miter" stroke-linecap="butt" class="open-arrowhead" /><line style="stroke:#202020;stroke-width:1.2;" x1="665.0098" x2="665.0098" y1="349.1758" y2="386.5417" /><line style="stroke:#202020;stroke-width:1.2;" x1="665.0098" x2="193.6133" y1="386.5417" y2="386.5417" /><line style="stroke:#202020;stroke-width:1.2;" x1="193.6133" x2="193.6133" y1="386.5417" y2="447.1631" /><polyline points="189.6133,437.1631 193.6133,447.1631 197.6133,437.1631" fill="none" stroke="#202020" stroke-width="1.4" stroke-linejoin="miter" stroke-linecap="butt" class="open-arrowhead" /><line style="stroke:#202020;stroke-width:1.2;" x1="193.6133" x2="193.6133" y1="636.96" y2="658.96" /><line style="stroke:#202020;stroke-width:1.2;" x1="193.6133" x2="802.7344" y1="658.96" y2="658.96" /><polyline points="792.7344,654.96 802.7344,658.96 792.7344,662.96" fill="none" stroke="#202020" stroke-width="1.4" stroke-linejoin="miter" stroke-linecap="butt" class="open-arrowhead" /><text fill="#111111" font-family="Times New Roman" font-size="18" font-weight="bold" lengthAdjust="spacing" textLength="113.4404" x="170.5718" y="29.1982">Project Owner</text><text fill="#111111" font-family="Times New Roman" font-size="7" font-weight="bold" lengthAdjust="spacing" textLength="1.75" x="166.0718" y="39.627"> </text><text fill="#111111" font-family="Times New Roman" font-size="18" font-weight="bold" lengthAdjust="spacing" textLength="54.9932" x="717.728" y="29.1982">System</text><text fill="#111111" font-family="Times New Roman" font-size="7" font-weight="bold" lengthAdjust="spacing" textLength="1.75" x="713.228" y="39.627"> </text></g><g id="pres-frame" fill="none" stroke="#202020" stroke-width="1.4"><rect x="7" y="12.3936" width="1051.8652" height="708.5664" /><line x1="7" x2="1058.8652" y1="38.6982" y2="38.6982" /></g></svg>