<svg xmlns="http://www.w3.org/2000/svg" contentStyleType="text/css" height="798px" preserveAspectRatio="none" style="width:950px;height:798px;background:#FFFFFF;" version="1.1" viewBox="-5 0.3936 950 798" width="950px" zoomAndPan="magnify" data-pres-formatted="1"><rect id="pres-background" x="-5" y="0.3936" width="950" height="798" fill="#FFFFFF" stroke="none" /><defs /><g><rect fill="#FFFFFF" height="30.6982" style="stroke:#FFFFFF;stroke-width:1.0;" width="910.2559" x="15" y="12.3936" /><ellipse cx="225.3975" cy="58.0918" fill="#111111" rx="10" ry="10" style="stroke:#222222;stroke-width:1.0;" /><rect fill="#F7F7F7" height="38.3984" rx="9" ry="9" style="stroke:#202020;stroke-width:1.2;" width="149.7422" x="150.5264" y="88.0918" /><text fill="#111111" font-family="Times New Roman" font-size="16" lengthAdjust="spacing" textLength="129.7422" x="160.5264" y="113.0293">Open profile editing</text><rect fill="#F7F7F7" height="38.3984" rx="9" ry="9" style="stroke:#202020;stroke-width:1.2;" width="163.9531" x="143.4209" y="223.2871" /><text fill="#111111" font-family="Times New Roman" font-size="16" lengthAdjust="spacing" textLength="143.9531" x="153.4209" y="248.2246">Change desired values</text><polygon fill="#FFFFFF" points="225.3975,325.1758,237.3975,337.1758,225.3975,349.1758,213.3975,337.1758,225.3975,325.1758" style="stroke:#202020;stroke-width:1.2;" /><text fill="#111111" font-family="Times New Roman" font-size="15" lengthAdjust="spacing" textLength="108.2959" x="231.3975" y="287.4341">Submit or cancel?</text><text fill="#111111" font-family="Times New Roman" font-size="15" lengthAdjust="spacing" textLength="3.75" x="231.3975" y="304.6826"> </text><text fill="#111111" font-family="Times New Roman" font-size="15" lengthAdjust="spacing" textLength="3.75" x="231.3975" y="321.9312"> </text><text fill="#111111" font-family="Times New Roman" font-size="14" lengthAdjust="spacing" textLength="54.4414" x="158.9561" y="324.1475">[submit]  </text><text fill="#111111" font-family="Times New Roman" font-size="6" lengthAdjust="spacing" textLength="1.5" x="158.9561" y="332.7773"> </text><text fill="#111111" font-family="Times New Roman" font-size="14" lengthAdjust="spacing" textLength="86.6592" x="237.3975" y="308.0488">  [cancel before</text><text fill="#111111" font-family="Times New Roman" font-size="14" lengthAdjust="spacing" textLength="105.7725" x="237.3975" y="324.1475">  saving — AF-01]</text><text fill="#111111" font-family="Times New Roman" font-size="6" lengthAdjust="spacing" textLength="1.5" x="237.3975" y="332.7773"> </text><rect fill="#F7F7F7" height="38.3984" rx="9" ry="9" style="stroke:#202020;stroke-width:1.2;" width="112.8828" x="21" y="369.1758" /><text fill="#111111" font-family="Times New Roman" font-size="16" lengthAdjust="spacing" textLength="92.8828" x="31" y="394.1133">Submit profile</text><polygon fill="#FFFFFF" points="225.3975,712.2598,237.3975,724.2598,225.3975,736.2598,213.3975,724.2598,225.3975,712.2598" style="stroke:#202020;stroke-width:1.2;" /><line style="stroke:#202020;stroke-width:1.4;" x1="7" x2="7" y1="12.3936" y2="786.2598" /><rect fill="#F7F7F7" height="56.7969" rx="9" ry="9" style="stroke:#202020;stroke-width:1.2;" width="162.1641" x="600.1084" y="146.4902" /><text fill="#111111" font-family="Times New Roman" font-size="16" lengthAdjust="spacing" textLength="99.0781" x="610.1084" y="171.4277">Display current</text><text fill="#111111" font-family="Times New Roman" font-size="16" lengthAdjust="spacing" textLength="142.1641" x="610.1084" y="189.8262">editable profile values</text><rect fill="#F7F7F7" height="38.3984" rx="9" ry="9" style="stroke:#202020;stroke-width:1.2;" width="176.375" x="445.0469" y="427.5742" /><text fill="#111111" font-family="Times New Roman" font-size="16" lengthAdjust="spacing" textLength="156.375" x="455.0469" y="452.5117">Validate profile changes</text><polygon fill="#FFFFFF" points="533.2344,529.4629,545.2344,541.4629,533.2344,553.4629,521.2344,541.4629,533.2344,529.4629" style="stroke:#202020;stroke-width:1.2;" /><text fill="#111111" font-family="Times New Roman" font-size="15" lengthAdjust="spacing" textLength="82.0532" x="539.2344" y="491.7212">Values valid?</text><text fill="#111111" font-family="Times New Roman" font-size="15" lengthAdjust="spacing" textLength="3.75" x="539.2344" y="508.9697"> </text><text fill="#111111" font-family="Times New Roman" font-size="15" lengthAdjust="spacing" textLength="3.75" x="539.2344" y="526.2183"> </text><text fill="#111111" font-family="Times New Roman" font-size="14" lengthAdjust="spacing" textLength="44.3174" x="476.917" y="528.4346">[valid]  </text><text fill="#111111" font-family="Times New Roman" font-size="6" lengthAdjust="spacing" textLength="1.5" x="476.917" y="537.0645"> </text><text fill="#111111" font-family="Times New Roman" font-size="14" lengthAdjust="spacing" textLength="89.8105" x="545.2344" y="512.3359">  [invalid values</text><text fill="#111111" font-family="Times New Roman" font-size="14" lengthAdjust="spacing" textLength="66.4863" x="545.2344" y="528.4346">  — EX-01]</text><text fill="#111111" font-family="Times New Roman" font-size="6" lengthAdjust="spacing" textLength="1.5" x="545.2344" y="537.0645"> </text><rect fill="#F7F7F7" height="38.3984" rx="9" ry="9" style="stroke:#202020;stroke-width:1.2;" width="153.2813" x="363.0645" y="563.4629" /><text fill="#111111" font-family="Times New Roman" font-size="16" lengthAdjust="spacing" textLength="133.2813" x="373.0645" y="588.4004">Save profile changes</text><rect fill="#F7F7F7" height="38.3984" rx="9" ry="9" style="stroke:#202020;stroke-width:1.2;" width="171.0703" x="354.1699" y="621.8613" /><text fill="#111111" font-family="Times New Roman" font-size="16" lengthAdjust="spacing" textLength="151.0703" x="364.1699" y="646.7988">Display updated profile</text><ellipse cx="439.7051" cy="691.2598" fill="none" rx="11" ry="11" style="stroke:#222222;stroke-width:1.0;" /><ellipse cx="439.7051" cy="691.2598" fill="#222222" rx="6" ry="6" style="stroke:#222222;stroke-width:1.0;" /><rect fill="#F7F7F7" height="38.3984" rx="9" ry="9" style="stroke:#202020;stroke-width:1.2;" width="163.0469" x="545.2402" y="563.4629" /><text fill="#111111" font-family="Times New Roman" font-size="16" lengthAdjust="spacing" textLength="143.0469" x="555.2402" y="588.4004">Reject profile changes</text><rect fill="#F7F7F7" height="38.3984" rx="9" ry="9" style="stroke:#202020;stroke-width:1.2;" width="181.7188" x="738.2871" y="369.1758" /><text fill="#111111" font-family="Times New Roman" font-size="16" lengthAdjust="spacing" textLength="161.7188" x="748.2871" y="394.1133">Discard unsaved changes</text><ellipse cx="681.1904" cy="767.2598" fill="none" rx="11" ry="11" style="stroke:#222222;stroke-width:1.0;" /><ellipse cx="681.1904" cy="767.2598" fill="#222222" rx="6" ry="6" style="stroke:#222222;stroke-width:1.0;" /><line style="stroke:#202020;stroke-width:1.4;" x1="348.1699" x2="348.1699" y1="12.3936" y2="786.2598" /><line style="stroke:#202020;stroke-width:1.4;" x1="932.0059" x2="932.0059" y1="12.3936" y2="786.2598" /><line style="stroke:#202020;stroke-width:1.2;" x1="225.3975" x2="225.3975" y1="68.0918" y2="88.0918" /><polyline points="221.3975,78.0918 225.3975,88.0918 229.3975,78.0918" fill="none" stroke="#202020" stroke-width="1.4" stroke-linejoin="miter" stroke-linecap="butt" class="open-arrowhead" /><line style="stroke:#202020;stroke-width:1.2;" x1="213.3975" x2="77.4414" y1="337.1758" y2="337.1758" /><line style="stroke:#202020;stroke-width:1.2;" x1="77.4414" x2="77.4414" y1="337.1758" y2="369.1758" /><polyline points="73.4414,359.1758 77.4414,369.1758 81.4414,359.1758" fill="none" stroke="#202020" stroke-width="1.4" stroke-linejoin="miter" stroke-linecap="butt" class="open-arrowhead" /><line style="stroke:#202020;stroke-width:1.2;" x1="225.3975" x2="225.3975" y1="261.6855" y2="325.1758" /><polyline points="221.3975,315.1758 225.3975,325.1758 229.3975,315.1758" fill="none" stroke="#202020" stroke-width="1.4" stroke-linejoin="miter" stroke-linecap="butt" class="open-arrowhead" /><line style="stroke:#202020;stroke-width:1.2;" x1="439.7051" x2="439.7051" y1="601.8613" y2="621.8613" /><polyline points="435.7051,611.8613 439.7051,621.8613 443.7051,611.8613" fill="none" stroke="#202020" stroke-width="1.4" stroke-linejoin="miter" stroke-linecap="butt" class="open-arrowhead" /><line style="stroke:#202020;stroke-width:1.2;" x1="439.7051" x2="439.7051" y1="660.2598" y2="680.2598" /><polyline points="435.7051,670.2598 439.7051,680.2598 443.7051,670.2598" fill="none" stroke="#202020" stroke-width="1.4" stroke-linejoin="miter" stroke-linecap="butt" class="open-arrowhead" /><line style="stroke:#202020;stroke-width:1.2;" x1="521.2344" x2="439.7051" y1="541.4629" y2="541.4629" /><line style="stroke:#202020;stroke-width:1.2;" x1="439.7051" x2="439.7051" y1="541.4629" y2="563.4629" /><polyline points="435.7051,553.4629 439.7051,563.4629 443.7051,553.4629" fill="none" stroke="#202020" stroke-width="1.4" stroke-linejoin="miter" stroke-linecap="butt" class="open-arrowhead" /><line style="stroke:#202020;stroke-width:1.2;" x1="545.2344" x2="626.7637" y1="541.4629" y2="541.4629" /><line style="stroke:#202020;stroke-width:1.2;" x1="626.7637" x2="626.7637" y1="541.4629" y2="563.4629" /><polyline points="622.7637,553.4629 626.7637,563.4629 630.7637,553.4629" fill="none" stroke="#202020" stroke-width="1.4" stroke-linejoin="miter" stroke-linecap="butt" class="open-arrowhead" /><line style="stroke:#202020;stroke-width:1.2;" x1="626.7637" x2="626.7637" y1="601.8613" y2="707.2598" /><line style="stroke:#202020;stroke-width:1.2;" x1="626.7637" x2="195.3975" y1="707.2598" y2="707.2598" /><line style="stroke:#202020;stroke-width:1.2;" x1="195.3975" x2="195.3975" y1="707.2598" y2="724.2598" /><line style="stroke:#202020;stroke-width:1.2;" x1="195.3975" x2="213.3975" y1="724.2598" y2="724.2598" /><polyline points="203.3975,720.2598 213.3975,724.2598 203.3975,728.2598" fill="none" stroke="#202020" stroke-width="1.4" stroke-linejoin="miter" stroke-linecap="butt" class="open-arrowhead" /><line style="stroke:#202020;stroke-width:1.2;" x1="533.2344" x2="533.2344" y1="465.9727" y2="529.4629" /><polyline points="529.2344,519.4629 533.2344,529.4629 537.2344,519.4629" fill="none" stroke="#202020" stroke-width="1.4" stroke-linejoin="miter" stroke-linecap="butt" class="open-arrowhead" /><line style="stroke:#202020;stroke-width:1.2;" x1="225.3975" x2="225.3975" y1="126.4902" y2="131.4902" /><line style="stroke:#202020;stroke-width:1.2;" x1="225.3975" x2="681.1904" y1="131.4902" y2="131.4902" /><line style="stroke:#202020;stroke-width:1.2;" x1="681.1904" x2="681.1904" y1="131.4902" y2="146.4902" /><polyline points="677.1904,136.4902 681.1904,146.4902 685.1904,136.4902" fill="none" stroke="#202020" stroke-width="1.4" stroke-linejoin="miter" stroke-linecap="butt" class="open-arrowhead" /><line style="stroke:#202020;stroke-width:1.2;" x1="681.1904" x2="681.1904" y1="203.2871" y2="208.2871" /><line style="stroke:#202020;stroke-width:1.2;" x1="681.1904" x2="225.3975" y1="208.2871" y2="208.2871" /><line style="stroke:#202020;stroke-width:1.2;" x1="225.3975" x2="225.3975" y1="208.2871" y2="223.2871" /><polyline points="221.3975,213.2871 225.3975,223.2871 229.3975,213.2871" fill="none" stroke="#202020" stroke-width="1.4" stroke-linejoin="miter" stroke-linecap="butt" class="open-arrowhead" /><line style="stroke:#202020;stroke-width:1.2;" x1="77.4414" x2="77.4414" y1="407.5742" y2="412.5742" /><line style="stroke:#202020;stroke-width:1.2;" x1="77.4414" x2="533.2344" y1="412.5742" y2="412.5742" /><line style="stroke:#202020;stroke-width:1.2;" x1="533.2344" x2="533.2344" y1="412.5742" y2="427.5742" /><polyline points="529.2344,417.5742 533.2344,427.5742 537.2344,417.5742" fill="none" stroke="#202020" stroke-width="1.4" stroke-linejoin="miter" stroke-linecap="butt" class="open-arrowhead" /><line style="stroke:#202020;stroke-width:1.2;" x1="237.3975" x2="829.1465" y1="337.1758" y2="337.1758" /><line style="stroke:#202020;stroke-width:1.2;" x1="829.1465" x2="829.1465" y1="337.1758" y2="369.1758" /><polyline points="825.1465,359.1758 829.1465,369.1758 833.1465,359.1758" fill="none" stroke="#202020" stroke-width="1.4" stroke-linejoin="miter" stroke-linecap="butt" class="open-arrowhead" /><line style="stroke:#202020;stroke-width:1.2;" x1="829.1465" x2="829.1465" y1="407.5742" y2="724.2598" /><line style="stroke:#202020;stroke-width:1.2;" x1="829.1465" x2="237.3975" y1="724.2598" y2="724.2598" /><polyline points="247.3975,720.2598 237.3975,724.2598 247.3975,728.2598" fill="none" stroke="#202020" stroke-width="1.4" stroke-linejoin="miter" stroke-linecap="butt" class="open-arrowhead" /><line style="stroke:#202020;stroke-width:1.2;" x1="225.3975" x2="225.3975" y1="736.2598" y2="741.2598" /><line style="stroke:#202020;stroke-width:1.2;" x1="225.3975" x2="681.1904" y1="741.2598" y2="741.2598" /><line style="stroke:#202020;stroke-width:1.2;" x1="681.1904" x2="681.1904" y1="741.2598" y2="756.2598" /><polyline points="677.1904,746.2598 681.1904,756.2598 685.1904,746.2598" fill="none" stroke="#202020" stroke-width="1.4" stroke-linejoin="miter" stroke-linecap="butt" class="open-arrowhead" /><text fill="#111111" font-family="Times New Roman" font-size="18" font-weight="bold" lengthAdjust="spacing" textLength="35.9824" x="165.8438" y="29.1982">User</text><text fill="#111111" font-family="Times New Roman" font-size="7" font-weight="bold" lengthAdjust="spacing" textLength="1.75" x="161.3438" y="39.627"> </text><text fill="#111111" font-family="Times New Roman" font-size="18" font-weight="bold" lengthAdjust="spacing" textLength="54.9932" x="610.8413" y="29.1982">System</text><text fill="#111111" font-family="Times New Roman" font-size="7" font-weight="bold" lengthAdjust="spacing" textLength="1.75" x="606.3413" y="39.627"> </text></g><g id="pres-frame" fill="none" stroke="#202020" stroke-width="1.4"><rect x="7" y="12.3936" width="925.0059" height="773.8662" /><line x1="7" x2="932.0059" y1="38.6982" y2="38.6982" /></g></svg>