<svg xmlns="http://www.w3.org/2000/svg" contentStyleType="text/css" height="1068px" preserveAspectRatio="none" style="width:991px;height:1068px;background:#FFFFFF;" version="1.1" viewBox="-5 0.3936 991 1068" width="991px" zoomAndPan="magnify" data-pres-formatted="1"><rect id="pres-background" x="-5" y="0.3936" width="991" height="1068" fill="#FFFFFF" stroke="none" /><defs /><g><rect fill="#FFFFFF" height="30.6982" style="stroke:#FFFFFF;stroke-width:1.0;" width="951.7188" x="15" y="12.3936" /><ellipse cx="308.2422" cy="58.0918" fill="#111111" rx="10" ry="10" style="stroke:#222222;stroke-width:1.0;" /><rect fill="#F7F7F7" height="75.1953" rx="9" ry="9" style="stroke:#202020;stroke-width:1.2;" width="127.5" x="160.7422" y="210.0791" /><text fill="#111111" font-family="Times New Roman" font-size="16" lengthAdjust="spacing" textLength="107.5" x="170.7422" y="235.0166">Enter the current</text><text fill="#111111" font-family="Times New Roman" font-size="16" lengthAdjust="spacing" textLength="98.6406" x="170.7422" y="253.415">password and a</text><text fill="#111111" font-family="Times New Roman" font-size="16" lengthAdjust="spacing" textLength="91.0938" x="170.7422" y="271.8135">new password</text><rect fill="#F7F7F7" height="56.7969" rx="9" ry="9" style="stroke:#202020;stroke-width:1.2;" width="129.7422" x="21" y="648.8486" /><text fill="#111111" font-family="Times New Roman" font-size="16" lengthAdjust="spacing" textLength="77.7656" x="31" y="673.7861">Confirm the</text><text fill="#111111" font-family="Times New Roman" font-size="16" lengthAdjust="spacing" textLength="109.7422" x="31" y="692.1846">password change</text><line style="stroke:#202020;stroke-width:1.4;" x1="7" x2="7" y1="12.3936" y2="1056.0361" /><polygon fill="#FFFFFF" points="738.6963,166.0791,750.6963,178.0791,738.6963,190.0791,726.6963,178.0791,738.6963,166.0791" style="stroke:#202020;stroke-width:1.2;" /><text fill="#111111" font-family="Times New Roman" font-size="15" lengthAdjust="spacing" textLength="166.6187" x="744.6963" y="93.8403">Password managed locally?</text><text fill="#111111" font-family="Times New Roman" font-size="15" lengthAdjust="spacing" textLength="3.75" x="744.6963" y="111.0889"> </text><text fill="#111111" font-family="Times New Roman" font-size="15" lengthAdjust="spacing" textLength="3.75" x="744.6963" y="128.3374"> </text><text fill="#111111" font-family="Times New Roman" font-size="15" lengthAdjust="spacing" textLength="3.75" x="744.6963" y="145.5859"> </text><text fill="#111111" font-family="Times New Roman" font-size="15" lengthAdjust="spacing" textLength="3.75" x="744.6963" y="162.8345"> </text><text fill="#111111" font-family="Times New Roman" font-size="14" lengthAdjust="spacing" textLength="108.4521" x="618.2441" y="165.0508">[locally managed]  </text><text fill="#111111" font-family="Times New Roman" font-size="6" lengthAdjust="spacing" textLength="1.5" x="618.2441" y="173.6807"> </text><text fill="#111111" font-family="Times New Roman" font-size="14" lengthAdjust="spacing" textLength="87.4795" x="750.6963" y="148.9521">  [provider only</text><text fill="#111111" font-family="Times New Roman" font-size="14" lengthAdjust="spacing" textLength="65.7207" x="750.6963" y="165.0508">  — AF-01]</text><text fill="#111111" font-family="Times New Roman" font-size="6" lengthAdjust="spacing" textLength="1.5" x="750.6963" y="173.6807"> </text><rect fill="#F7F7F7" height="38.3984" rx="9" ry="9" style="stroke:#202020;stroke-width:1.2;" width="199.0469" x="495.502" y="320.2744" /><text fill="#111111" font-family="Times New Roman" font-size="16" lengthAdjust="spacing" textLength="179.0469" x="505.502" y="345.2119">Verify the current password</text><polygon fill="#FFFFFF" points="595.0254,422.1631,607.0254,434.1631,595.0254,446.1631,583.0254,434.1631,595.0254,422.1631" style="stroke:#202020;stroke-width:1.2;" /><text fill="#111111" font-family="Times New Roman" font-size="15" lengthAdjust="spacing" textLength="158.269" x="601.0254" y="384.4214">Current password correct?</text><text fill="#111111" font-family="Times New Roman" font-size="15" lengthAdjust="spacing" textLength="3.75" x="601.0254" y="401.6699"> </text><text fill="#111111" font-family="Times New Roman" font-size="15" lengthAdjust="spacing" textLength="3.75" x="601.0254" y="418.9185"> </text><text fill="#111111" font-family="Times New Roman" font-size="14" lengthAdjust="spacing" textLength="55.1797" x="527.8457" y="421.1348">[correct]  </text><text fill="#111111" font-family="Times New Roman" font-size="6" lengthAdjust="spacing" textLength="1.5" x="527.8457" y="429.7646"> </text><text fill="#111111" font-family="Times New Roman" font-size="14" lengthAdjust="spacing" textLength="61.4072" x="607.0254" y="405.0361">  [incorrect</text><text fill="#111111" font-family="Times New Roman" font-size="14" lengthAdjust="spacing" textLength="66.4863" x="607.0254" y="421.1348">  — EX-01]</text><text fill="#111111" font-family="Times New Roman" font-size="6" lengthAdjust="spacing" textLength="1.5" x="607.0254" y="429.7646"> </text><rect fill="#F7F7F7" height="75.1953" rx="9" ry="9" style="stroke:#202020;stroke-width:1.2;" width="147.9766" x="407.668" y="466.1631" /><text fill="#111111" font-family="Times New Roman" font-size="16" lengthAdjust="spacing" textLength="108.3984" x="417.668" y="491.1006">Validate the new</text><text fill="#111111" font-family="Times New Roman" font-size="16" lengthAdjust="spacing" textLength="109.7578" x="417.668" y="509.499">password against</text><text fill="#111111" font-family="Times New Roman" font-size="16" lengthAdjust="spacing" textLength="127.9766" x="417.668" y="527.8975">the password policy</text><polygon fill="#FFFFFF" points="481.6563,604.8486,493.6563,616.8486,481.6563,628.8486,469.6563,616.8486,481.6563,604.8486" style="stroke:#202020;stroke-width:1.2;" /><text fill="#111111" font-family="Times New Roman" font-size="15" lengthAdjust="spacing" textLength="98.7305" x="487.6563" y="567.1069">Policy satisfied?</text><text fill="#111111" font-family="Times New Roman" font-size="15" lengthAdjust="spacing" textLength="3.75" x="487.6563" y="584.3555"> </text><text fill="#111111" font-family="Times New Roman" font-size="15" lengthAdjust="spacing" textLength="3.75" x="487.6563" y="601.604"> </text><text fill="#111111" font-family="Times New Roman" font-size="14" lengthAdjust="spacing" textLength="62.9795" x="406.6768" y="603.8203">[satisfied]  </text><text fill="#111111" font-family="Times New Roman" font-size="6" lengthAdjust="spacing" textLength="1.5" x="406.6768" y="612.4502"> </text><text fill="#111111" font-family="Times New Roman" font-size="14" lengthAdjust="spacing" textLength="79.707" x="493.6563" y="587.7217">  [not satisfied</text><text fill="#111111" font-family="Times New Roman" font-size="14" lengthAdjust="spacing" textLength="66.4863" x="493.6563" y="603.8203">  — EX-02]</text><text fill="#111111" font-family="Times New Roman" font-size="6" lengthAdjust="spacing" textLength="1.5" x="493.6563" y="612.4502"> </text><rect fill="#F7F7F7" height="75.1953" rx="9" ry="9" style="stroke:#202020;stroke-width:1.2;" width="149.7344" x="330.4688" y="725.6455" /><text fill="#111111" font-family="Times New Roman" font-size="16" lengthAdjust="spacing" textLength="87.9766" x="340.4688" y="750.583">Store the new</text><text fill="#111111" font-family="Times New Roman" font-size="16" lengthAdjust="spacing" textLength="117.7422" x="340.4688" y="768.9814">password securely</text><text fill="#111111" font-family="Times New Roman" font-size="16" lengthAdjust="spacing" textLength="129.7344" x="340.4688" y="787.3799">and confirm success</text><rect fill="#F7F7F7" height="75.1953" rx="9" ry="9" style="stroke:#202020;stroke-width:1.2;" width="154.1875" x="328.2422" y="820.8408" /><text fill="#111111" font-family="Times New Roman" font-size="16" lengthAdjust="spacing" textLength="134.1875" x="338.2422" y="845.7783">Record the password</text><text fill="#111111" font-family="Times New Roman" font-size="16" lengthAdjust="spacing" textLength="73.7344" x="338.2422" y="864.1768">change as a</text><text fill="#111111" font-family="Times New Roman" font-size="16" lengthAdjust="spacing" textLength="89.2969" x="338.2422" y="882.5752">security event</text><ellipse cx="405.3359" cy="927.0361" fill="none" rx="11" ry="11" style="stroke:#222222;stroke-width:1.0;" /><ellipse cx="405.3359" cy="927.0361" fill="#222222" rx="6" ry="6" style="stroke:#222222;stroke-width:1.0;" /><rect fill="#F7F7F7" height="56.7969" rx="9" ry="9" style="stroke:#202020;stroke-width:1.2;" width="111.0938" x="502.4297" y="648.8486" /><text fill="#111111" font-family="Times New Roman" font-size="16" lengthAdjust="spacing" textLength="64.4141" x="512.4297" y="673.7861">Reject the</text><text fill="#111111" font-family="Times New Roman" font-size="16" lengthAdjust="spacing" textLength="91.0938" x="512.4297" y="692.1846">new password</text><rect fill="#F7F7F7" height="56.7969" rx="9" ry="9" style="stroke:#202020;stroke-width:1.2;" width="129.7422" x="643.5234" y="466.1631" /><text fill="#111111" font-family="Times New Roman" font-size="16" lengthAdjust="spacing" textLength="64.4141" x="653.5234" y="491.1006">Reject the</text><text fill="#111111" font-family="Times New Roman" font-size="16" lengthAdjust="spacing" textLength="109.7422" x="653.5234" y="509.499">password change</text><polygon fill="#FFFFFF" points="595.0254,948.0361,607.0254,960.0361,595.0254,972.0361,583.0254,960.0361,595.0254,948.0361" style="stroke:#202020;stroke-width:1.2;" /><rect fill="#F7F7F7" height="93.5938" rx="9" ry="9" style="stroke:#202020;stroke-width:1.2;" width="158.2031" x="803.2656" y="210.0791" /><text fill="#111111" font-family="Times New Roman" font-size="16" lengthAdjust="spacing" textLength="130.1797" x="813.2656" y="235.0166">Inform the User that</text><text fill="#111111" font-family="Times New Roman" font-size="16" lengthAdjust="spacing" textLength="138.2031" x="813.2656" y="253.415">the password must be</text><text fill="#111111" font-family="Times New Roman" font-size="16" lengthAdjust="spacing" textLength="107.0781" x="813.2656" y="271.8135">changed through</text><text fill="#111111" font-family="Times New Roman" font-size="16" lengthAdjust="spacing" textLength="82.1953" x="813.2656" y="290.2119">that provider</text><polygon fill="#FFFFFF" points="738.6963,982.0361,750.6963,994.0361,738.6963,1006.0361,726.6963,994.0361,738.6963,982.0361" style="stroke:#202020;stroke-width:1.2;" /><ellipse cx="738.6963" cy="1037.0361" fill="none" rx="11" ry="11" style="stroke:#222222;stroke-width:1.0;" /><ellipse cx="738.6963" cy="1037.0361" fill="#222222" rx="6" ry="6" style="stroke:#222222;stroke-width:1.0;" /><line style="stroke:#202020;stroke-width:1.4;" x1="322.2422" x2="322.2422" y1="12.3936" y2="1056.0361" /><line style="stroke:#202020;stroke-width:1.4;" x1="973.4688" x2="973.4688" y1="12.3936" y2="1056.0361" /><line style="stroke:#202020;stroke-width:1.2;" x1="405.3359" x2="405.3359" y1="800.8408" y2="820.8408" /><polyline points="401.3359,810.8408 405.3359,820.8408 409.3359,810.8408" fill="none" stroke="#202020" stroke-width="1.4" stroke-linejoin="miter" stroke-linecap="butt" class="open-arrowhead" /><line style="stroke:#202020;stroke-width:1.2;" x1="405.3359" x2="405.3359" y1="896.0361" y2="916.0361" /><polyline points="401.3359,906.0361 405.3359,916.0361 409.3359,906.0361" fill="none" stroke="#202020" stroke-width="1.4" stroke-linejoin="miter" stroke-linecap="butt" class="open-arrowhead" /><line style="stroke:#202020;stroke-width:1.2;" x1="493.6563" x2="557.9766" y1="616.8486" y2="616.8486" /><line style="stroke:#202020;stroke-width:1.2;" x1="557.9766" x2="557.9766" y1="616.8486" y2="648.8486" /><polyline points="553.9766,638.8486 557.9766,648.8486 561.9766,638.8486" fill="none" stroke="#202020" stroke-width="1.4" stroke-linejoin="miter" stroke-linecap="butt" class="open-arrowhead" /><line style="stroke:#202020;stroke-width:1.2;" x1="557.9766" x2="557.9766" y1="705.6455" y2="960.0361" /><line style="stroke:#202020;stroke-width:1.2;" x1="557.9766" x2="583.0254" y1="960.0361" y2="960.0361" /><polyline points="573.0254,956.0361 583.0254,960.0361 573.0254,964.0361" fill="none" stroke="#202020" stroke-width="1.4" stroke-linejoin="miter" stroke-linecap="butt" class="open-arrowhead" /><line style="stroke:#202020;stroke-width:1.2;" x1="481.6563" x2="481.6563" y1="541.3584" y2="604.8486" /><polyline points="477.6563,594.8486 481.6563,604.8486 485.6563,594.8486" fill="none" stroke="#202020" stroke-width="1.4" stroke-linejoin="miter" stroke-linecap="butt" class="open-arrowhead" /><line style="stroke:#202020;stroke-width:1.2;" x1="583.0254" x2="481.6563" y1="434.1631" y2="434.1631" /><line style="stroke:#202020;stroke-width:1.2;" x1="481.6563" x2="481.6563" y1="434.1631" y2="466.1631" /><polyline points="477.6563,456.1631 481.6563,466.1631 485.6563,456.1631" fill="none" stroke="#202020" stroke-width="1.4" stroke-linejoin="miter" stroke-linecap="butt" class="open-arrowhead" /><line style="stroke:#202020;stroke-width:1.2;" x1="607.0254" x2="708.3945" y1="434.1631" y2="434.1631" /><line style="stroke:#202020;stroke-width:1.2;" x1="708.3945" x2="708.3945" y1="434.1631" y2="466.1631" /><polyline points="704.3945,456.1631 708.3945,466.1631 712.3945,456.1631" fill="none" stroke="#202020" stroke-width="1.4" stroke-linejoin="miter" stroke-linecap="butt" class="open-arrowhead" /><line style="stroke:#202020;stroke-width:1.2;" x1="708.3945" x2="708.3945" y1="522.96" y2="960.0361" /><line style="stroke:#202020;stroke-width:1.2;" x1="708.3945" x2="607.0254" y1="960.0361" y2="960.0361" /><polyline points="617.0254,956.0361 607.0254,960.0361 617.0254,964.0361" fill="none" stroke="#202020" stroke-width="1.4" stroke-linejoin="miter" stroke-linecap="butt" class="open-arrowhead" /><line style="stroke:#202020;stroke-width:1.2;" x1="595.0254" x2="595.0254" y1="358.6729" y2="422.1631" /><polyline points="591.0254,412.1631 595.0254,422.1631 599.0254,412.1631" fill="none" stroke="#202020" stroke-width="1.4" stroke-linejoin="miter" stroke-linecap="butt" class="open-arrowhead" /><line style="stroke:#202020;stroke-width:1.2;" x1="750.6963" x2="882.3672" y1="178.0791" y2="178.0791" /><line style="stroke:#202020;stroke-width:1.2;" x1="882.3672" x2="882.3672" y1="178.0791" y2="210.0791" /><polyline points="878.3672,200.0791 882.3672,210.0791 886.3672,200.0791" fill="none" stroke="#202020" stroke-width="1.4" stroke-linejoin="miter" stroke-linecap="butt" class="open-arrowhead" /><line style="stroke:#202020;stroke-width:1.2;" x1="595.0254" x2="595.0254" y1="972.0361" y2="994.0361" /><line style="stroke:#202020;stroke-width:1.2;" x1="595.0254" x2="726.6963" y1="994.0361" y2="994.0361" /><polyline points="716.6963,990.0361 726.6963,994.0361 716.6963,998.0361" fill="none" stroke="#202020" stroke-width="1.4" stroke-linejoin="miter" stroke-linecap="butt" class="open-arrowhead" /><line style="stroke:#202020;stroke-width:1.2;" x1="882.3672" x2="882.3672" y1="303.6729" y2="1056.0361" /><line style="stroke:#202020;stroke-width:1.2;" x1="882.3672" x2="750.6963" y1="994.0361" y2="994.0361" /><polyline points="760.6963,990.0361 750.6963,994.0361 760.6963,998.0361" fill="none" stroke="#202020" stroke-width="1.4" stroke-linejoin="miter" stroke-linecap="butt" class="open-arrowhead" /><line style="stroke:#202020;stroke-width:1.2;" x1="738.6963" x2="738.6963" y1="1006.0361" y2="1026.0361" /><polyline points="734.6963,1016.0361 738.6963,1026.0361 742.6963,1016.0361" fill="none" stroke="#202020" stroke-width="1.4" stroke-linejoin="miter" stroke-linecap="butt" class="open-arrowhead" /><line style="stroke:#202020;stroke-width:1.2;" x1="224.4922" x2="224.4922" y1="285.2744" y2="302.7744" /><line style="stroke:#202020;stroke-width:1.2;" x1="224.4922" x2="595.0254" y1="302.7744" y2="302.7744" /><line style="stroke:#202020;stroke-width:1.2;" x1="595.0254" x2="595.0254" y1="302.7744" y2="320.2744" /><polyline points="591.0254,310.2744 595.0254,320.2744 599.0254,310.2744" fill="none" stroke="#202020" stroke-width="1.4" stroke-linejoin="miter" stroke-linecap="butt" class="open-arrowhead" /><line style="stroke:#202020;stroke-width:1.2;" x1="85.8711" x2="85.8711" y1="705.6455" y2="710.6455" /><line style="stroke:#202020;stroke-width:1.2;" x1="85.8711" x2="405.3359" y1="710.6455" y2="710.6455" /><line style="stroke:#202020;stroke-width:1.2;" x1="405.3359" x2="405.3359" y1="710.6455" y2="725.6455" /><polyline points="401.3359,715.6455 405.3359,725.6455 409.3359,715.6455" fill="none" stroke="#202020" stroke-width="1.4" stroke-linejoin="miter" stroke-linecap="butt" class="open-arrowhead" /><line style="stroke:#202020;stroke-width:1.2;" x1="469.6563" x2="85.8711" y1="616.8486" y2="616.8486" /><line style="stroke:#202020;stroke-width:1.2;" x1="85.8711" x2="85.8711" y1="616.8486" y2="648.8486" /><polyline points="81.8711,638.8486 85.8711,648.8486 89.8711,638.8486" fill="none" stroke="#202020" stroke-width="1.4" stroke-linejoin="miter" stroke-linecap="butt" class="open-arrowhead" /><line style="stroke:#202020;stroke-width:1.2;" x1="726.6963" x2="224.4922" y1="178.0791" y2="178.0791" /><line style="stroke:#202020;stroke-width:1.2;" x1="224.4922" x2="224.4922" y1="178.0791" y2="210.0791" /><polyline points="220.4922,200.0791 224.4922,210.0791 228.4922,200.0791" fill="none" stroke="#202020" stroke-width="1.4" stroke-linejoin="miter" stroke-linecap="butt" class="open-arrowhead" /><line style="stroke:#202020;stroke-width:1.2;" x1="308.2422" x2="308.2422" y1="68.0918" y2="105.4578" /><line style="stroke:#202020;stroke-width:1.2;" x1="308.2422" x2="738.6963" y1="105.4578" y2="105.4578" /><line style="stroke:#202020;stroke-width:1.2;" x1="738.6963" x2="738.6963" y1="105.4578" y2="166.0791" /><polyline points="734.6963,156.0791 738.6963,166.0791 742.6963,156.0791" fill="none" stroke="#202020" stroke-width="1.4" stroke-linejoin="miter" stroke-linecap="butt" class="open-arrowhead" /><text fill="#111111" font-family="Times New Roman" font-size="18" font-weight="bold" lengthAdjust="spacing" textLength="35.9824" x="152.8799" y="29.1982">User</text><text fill="#111111" font-family="Times New Roman" font-size="7" font-weight="bold" lengthAdjust="spacing" textLength="1.75" x="148.3799" y="39.627"> </text><text fill="#111111" font-family="Times New Roman" font-size="18" font-weight="bold" lengthAdjust="spacing" textLength="54.9932" x="618.6089" y="29.1982">System</text><text fill="#111111" font-family="Times New Roman" font-size="7" font-weight="bold" lengthAdjust="spacing" textLength="1.75" x="614.1089" y="39.627"> </text></g><g id="pres-frame" fill="none" stroke="#202020" stroke-width="1.4"><rect x="7" y="12.3936" width="966.4688" height="1043.6425" /><line x1="7" x2="973.4688" y1="38.6982" y2="38.6982" /></g></svg>