<svg xmlns="http://www.w3.org/2000/svg" contentStyleType="text/css" height="776px" preserveAspectRatio="none" style="width:708px;height:776px;background:#FFFFFF;" version="1.1" viewBox="-5 0.3936 708 776" width="708px" zoomAndPan="magnify" data-pres-formatted="1"><rect id="pres-background" x="-5" y="0.3936" width="708" height="776" fill="#FFFFFF" stroke="none" /><defs /><g><rect fill="#FFFFFF" height="30.6982" style="stroke:#FFFFFF;stroke-width:1.0;" width="669.2363" x="15" y="12.3936" /><ellipse cx="180.8613" cy="58.0918" fill="#111111" rx="10" ry="10" style="stroke:#222222;stroke-width:1.0;" /><rect fill="#F7F7F7" height="38.3984" rx="9" ry="9" style="stroke:#202020;stroke-width:1.2;" width="163.5391" x="99.0918" y="88.0918" /><text fill="#111111" font-family="Times New Roman" font-size="16" lengthAdjust="spacing" textLength="143.5391" x="109.0918" y="113.0293">Open system audit log</text><rect fill="#F7F7F7" height="56.7969" rx="9" ry="9" style="stroke:#202020;stroke-width:1.2;" width="195.9531" x="82.8848" y="337.9253" /><text fill="#111111" font-family="Times New Roman" font-size="16" lengthAdjust="spacing" textLength="175.9531" x="92.8848" y="362.8628">Filter events by time, actor,</text><text fill="#111111" font-family="Times New Roman" font-size="16" lengthAdjust="spacing" textLength="123.9453" x="92.8848" y="381.2612">event type or target</text><rect fill="#F7F7F7" height="38.3984" rx="9" ry="9" style="stroke:#202020;stroke-width:1.2;" width="114.6484" x="21" y="628.5063" /><text fill="#111111" font-family="Times New Roman" font-size="16" lengthAdjust="spacing" textLength="94.6484" x="31" y="653.4438">Review results</text><ellipse cx="78.3242" cy="697.9048" fill="none" rx="11" ry="11" style="stroke:#222222;stroke-width:1.0;" /><ellipse cx="78.3242" cy="697.9048" fill="#222222" rx="6" ry="6" style="stroke:#222222;stroke-width:1.0;" /><line style="stroke:#202020;stroke-width:1.4;" x1="7" x2="7" y1="12.3936" y2="763.9541" /><rect fill="#F7F7F7" height="38.3984" rx="9" ry="9" style="stroke:#202020;stroke-width:1.2;" width="193.7188" x="383.6094" y="279.5269" /><text fill="#111111" font-family="Times New Roman" font-size="16" lengthAdjust="spacing" textLength="173.7188" x="393.6094" y="304.4644">Display recent audit events</text><polygon fill="#FFFFFF" points="480.4688,492.7095,492.4688,504.7095,480.4688,516.7095,468.4688,504.7095,480.4688,492.7095" style="stroke:#202020;stroke-width:1.2;" /><text fill="#111111" font-family="Times New Roman" font-size="15" lengthAdjust="spacing" textLength="144.9609" x="486.4688" y="420.4707">Matching events found?</text><text fill="#111111" font-family="Times New Roman" font-size="15" lengthAdjust="spacing" textLength="3.75" x="486.4688" y="437.7192"> </text><text fill="#111111" font-family="Times New Roman" font-size="15" lengthAdjust="spacing" textLength="3.75" x="486.4688" y="454.9678"> </text><text fill="#111111" font-family="Times New Roman" font-size="15" lengthAdjust="spacing" textLength="3.75" x="486.4688" y="472.2163"> </text><text fill="#111111" font-family="Times New Roman" font-size="15" lengthAdjust="spacing" textLength="3.75" x="486.4688" y="489.4648"> </text><text fill="#111111" font-family="Times New Roman" font-size="14" lengthAdjust="spacing" textLength="48.9863" x="419.4824" y="491.6812">[found]  </text><text fill="#111111" font-family="Times New Roman" font-size="6" lengthAdjust="spacing" textLength="1.5" x="419.4824" y="500.311"> </text><text fill="#111111" font-family="Times New Roman" font-size="14" lengthAdjust="spacing" textLength="63.3691" x="492.4688" y="475.5825">  [no match</text><text fill="#111111" font-family="Times New Roman" font-size="14" lengthAdjust="spacing" textLength="65.7207" x="492.4688" y="491.6812">  — AF-01]</text><text fill="#111111" font-family="Times New Roman" font-size="6" lengthAdjust="spacing" textLength="1.5" x="492.4688" y="500.311"> </text><rect fill="#F7F7F7" height="56.7969" rx="9" ry="9" style="stroke:#202020;stroke-width:1.2;" width="178.1875" x="288.8379" y="536.7095" /><text fill="#111111" font-family="Times New Roman" font-size="16" lengthAdjust="spacing" textLength="158.1875" x="298.8379" y="561.647">Display matching events</text><text fill="#111111" font-family="Times New Roman" font-size="16" lengthAdjust="spacing" textLength="128.8281" x="298.8379" y="580.0454">and recorded details</text><rect fill="#F7F7F7" height="38.3984" rx="9" ry="9" style="stroke:#202020;stroke-width:1.2;" width="191.9609" x="487.0254" y="536.7095" /><text fill="#111111" font-family="Times New Roman" font-size="16" lengthAdjust="spacing" textLength="171.9609" x="497.0254" y="561.647">Report no matching events</text><ellipse cx="583.0059" cy="621.1079" fill="none" rx="11" ry="11" style="stroke:#222222;stroke-width:1.0;" /><ellipse cx="583.0059" cy="621.1079" fill="#222222" rx="6" ry="6" style="stroke:#222222;stroke-width:1.0;" /><polygon fill="#FFFFFF" points="480.4688,224.4775,492.4688,236.4775,480.4688,248.4775,468.4688,236.4775,480.4688,224.4775" style="stroke:#202020;stroke-width:1.2;" /><text fill="#111111" font-family="Times New Roman" font-size="15" lengthAdjust="spacing" textLength="131.6162" x="486.4688" y="152.2388">Audit store available?</text><text fill="#111111" font-family="Times New Roman" font-size="15" lengthAdjust="spacing" textLength="3.75" x="486.4688" y="169.4873"> </text><text fill="#111111" font-family="Times New Roman" font-size="15" lengthAdjust="spacing" textLength="3.75" x="486.4688" y="186.7358"> </text><text fill="#111111" font-family="Times New Roman" font-size="15" lengthAdjust="spacing" textLength="3.75" x="486.4688" y="203.9844"> </text><text fill="#111111" font-family="Times New Roman" font-size="15" lengthAdjust="spacing" textLength="3.75" x="486.4688" y="221.2329"> </text><text fill="#111111" font-family="Times New Roman" font-size="14" lengthAdjust="spacing" textLength="66.8486" x="486.4688" y="261.5479">[available]  </text><text fill="#111111" font-family="Times New Roman" font-size="6" lengthAdjust="spacing" textLength="1.5" x="486.4688" y="270.1777"> </text><text fill="#111111" font-family="Times New Roman" font-size="14" lengthAdjust="spacing" textLength="144.9971" x="492.4688" y="207.3506">  [temporarily unavailable</text><text fill="#111111" font-family="Times New Roman" font-size="14" lengthAdjust="spacing" textLength="66.4863" x="492.4688" y="223.4492">  — EX-01]</text><text fill="#111111" font-family="Times New Roman" font-size="6" lengthAdjust="spacing" textLength="1.5" x="492.4688" y="232.0791"> </text><ellipse cx="659.4658" cy="236.4775" fill="none" rx="11" ry="11" style="stroke:#222222;stroke-width:1.0;" /><ellipse cx="659.4658" cy="236.4775" fill="#222222" rx="6" ry="6" style="stroke:#222222;stroke-width:1.0;" /><line style="stroke:#202020;stroke-width:1.4;" x1="282.8379" x2="282.8379" y1="12.3936" y2="763.9541" /><line style="stroke:#202020;stroke-width:1.4;" x1="690.9863" x2="690.9863" y1="12.3936" y2="763.9541" /><line style="stroke:#202020;stroke-width:1.2;" x1="180.8613" x2="180.8613" y1="68.0918" y2="88.0918" /><polyline points="176.8613,78.0918 180.8613,88.0918 184.8613,78.0918" fill="none" stroke="#202020" stroke-width="1.4" stroke-linejoin="miter" stroke-linecap="butt" class="open-arrowhead" /><line style="stroke:#202020;stroke-width:1.2;" x1="78.3242" x2="78.3242" y1="666.9048" y2="686.9048" /><polyline points="74.3242,676.9048 78.3242,686.9048 82.3242,676.9048" fill="none" stroke="#202020" stroke-width="1.4" stroke-linejoin="miter" stroke-linecap="butt" class="open-arrowhead" /><line style="stroke:#202020;stroke-width:1.2;" x1="583.0059" x2="583.0059" y1="575.1079" y2="610.1079" /><polyline points="579.0059,600.1079 583.0059,610.1079 587.0059,600.1079" fill="none" stroke="#202020" stroke-width="1.4" stroke-linejoin="miter" stroke-linecap="butt" class="open-arrowhead" /><line style="stroke:#202020;stroke-width:1.2;" x1="468.4688" x2="377.9316" y1="504.7095" y2="504.7095" /><line style="stroke:#202020;stroke-width:1.2;" x1="377.9316" x2="377.9316" y1="504.7095" y2="536.7095" /><polyline points="373.9316,526.7095 377.9316,536.7095 381.9316,526.7095" fill="none" stroke="#202020" stroke-width="1.4" stroke-linejoin="miter" stroke-linecap="butt" class="open-arrowhead" /><line style="stroke:#202020;stroke-width:1.2;" x1="492.4688" x2="583.0059" y1="504.7095" y2="504.7095" /><line style="stroke:#202020;stroke-width:1.2;" x1="583.0059" x2="583.0059" y1="504.7095" y2="536.7095" /><polyline points="579.0059,526.7095 583.0059,536.7095 587.0059,526.7095" fill="none" stroke="#202020" stroke-width="1.4" stroke-linejoin="miter" stroke-linecap="butt" class="open-arrowhead" /><line style="stroke:#202020;stroke-width:1.2;" x1="480.4688" x2="480.4688" y1="248.4775" y2="279.5269" /><polyline points="476.4688,269.5269 480.4688,279.5269 484.4688,269.5269" fill="none" stroke="#202020" stroke-width="1.4" stroke-linejoin="miter" stroke-linecap="butt" class="open-arrowhead" /><line style="stroke:#202020;stroke-width:1.2;" x1="492.4688" x2="648.4658" y1="236.4775" y2="236.4775" /><polyline points="638.4658,232.4775 648.4658,236.4775 638.4658,240.4775" fill="none" stroke="#202020" stroke-width="1.4" stroke-linejoin="miter" stroke-linecap="butt" class="open-arrowhead" /><line style="stroke:#202020;stroke-width:1.2;" x1="480.4688" x2="480.4688" y1="317.9253" y2="322.9253" /><line style="stroke:#202020;stroke-width:1.2;" x1="480.4688" x2="180.8613" y1="322.9253" y2="322.9253" /><line style="stroke:#202020;stroke-width:1.2;" x1="180.8613" x2="180.8613" y1="322.9253" y2="337.9253" /><polyline points="176.8613,327.9253 180.8613,337.9253 184.8613,327.9253" fill="none" stroke="#202020" stroke-width="1.4" stroke-linejoin="miter" stroke-linecap="butt" class="open-arrowhead" /><line style="stroke:#202020;stroke-width:1.2;" x1="377.9316" x2="377.9316" y1="593.5063" y2="611.0063" /><line style="stroke:#202020;stroke-width:1.2;" x1="377.9316" x2="78.3242" y1="611.0063" y2="611.0063" /><line style="stroke:#202020;stroke-width:1.2;" x1="78.3242" x2="78.3242" y1="611.0063" y2="628.5063" /><polyline points="74.3242,618.5063 78.3242,628.5063 82.3242,618.5063" fill="none" stroke="#202020" stroke-width="1.4" stroke-linejoin="miter" stroke-linecap="butt" class="open-arrowhead" /><line style="stroke:#202020;stroke-width:1.2;" x1="180.8613" x2="180.8613" y1="394.7222" y2="432.0881" /><line style="stroke:#202020;stroke-width:1.2;" x1="180.8613" x2="480.4688" y1="432.0881" y2="432.0881" /><line style="stroke:#202020;stroke-width:1.2;" x1="480.4688" x2="480.4688" y1="432.0881" y2="492.7095" /><polyline points="476.4688,482.7095 480.4688,492.7095 484.4688,482.7095" fill="none" stroke="#202020" stroke-width="1.4" stroke-linejoin="miter" stroke-linecap="butt" class="open-arrowhead" /><line style="stroke:#202020;stroke-width:1.2;" x1="180.8613" x2="180.8613" y1="126.4902" y2="163.8562" /><line style="stroke:#202020;stroke-width:1.2;" x1="180.8613" x2="480.4688" y1="163.8562" y2="163.8562" /><line style="stroke:#202020;stroke-width:1.2;" x1="480.4688" x2="480.4688" y1="163.8562" y2="224.4775" /><polyline points="476.4688,214.4775 480.4688,224.4775 484.4688,214.4775" fill="none" stroke="#202020" stroke-width="1.4" stroke-linejoin="miter" stroke-linecap="butt" class="open-arrowhead" /><text fill="#111111" font-family="Times New Roman" font-size="18" font-weight="bold" lengthAdjust="spacing" textLength="170.4814" x="65.9282" y="29.1982">System Administrator</text><text fill="#111111" font-family="Times New Roman" font-size="7" font-weight="bold" lengthAdjust="spacing" textLength="1.75" x="61.4282" y="39.627"> </text><text fill="#111111" font-family="Times New Roman" font-size="18" font-weight="bold" lengthAdjust="spacing" textLength="54.9932" x="457.6655" y="29.1982">System</text><text fill="#111111" font-family="Times New Roman" font-size="7" font-weight="bold" lengthAdjust="spacing" textLength="1.75" x="453.1655" y="39.627"> </text></g><g id="pres-frame" fill="none" stroke="#202020" stroke-width="1.4"><rect x="7" y="12.3936" width="683.9863" height="751.5605" /><line x1="7" x2="690.9863" y1="38.6982" y2="38.6982" /></g></svg>