<svg xmlns="http://www.w3.org/2000/svg" contentStyleType="text/css" height="1095px" preserveAspectRatio="none" style="width:809px;height:1095px;background:#FFFFFF;" version="1.1" viewBox="-5 0.3936 809 1095" width="809px" zoomAndPan="magnify" data-pres-formatted="1"><rect id="pres-background" x="-5" y="0.3936" width="809" height="1095" fill="#FFFFFF" stroke="none" /><defs /><g><rect fill="#FFFFFF" height="30.6982" style="stroke:#FFFFFF;stroke-width:1.0;" width="769.3037" x="15" y="12.3936" /><ellipse cx="197.166" cy="58.0918" fill="#111111" rx="10" ry="10" style="stroke:#222222;stroke-width:1.0;" /><rect fill="#F7F7F7" height="56.7969" rx="9" ry="9" style="stroke:#202020;stroke-width:1.2;" width="208.3516" x="92.9902" y="88.0918" /><text fill="#111111" font-family="Times New Roman" font-size="16" lengthAdjust="spacing" textLength="188.3516" x="102.9902" y="113.0293">Select an active User account</text><text fill="#111111" font-family="Times New Roman" font-size="16" lengthAdjust="spacing" textLength="147.5313" x="102.9902" y="131.4277">and request suspension</text><polygon fill="#FFFFFF" points="197.166,824.7461,209.166,836.7461,197.166,848.7461,185.166,836.7461,197.166,824.7461" style="stroke:#202020;stroke-width:1.2;" /><text fill="#111111" font-family="Times New Roman" font-size="15" lengthAdjust="spacing" textLength="127.0752" x="203.166" y="752.5073">Confirm suspension?</text><text fill="#111111" font-family="Times New Roman" font-size="15" lengthAdjust="spacing" textLength="3.75" x="203.166" y="769.7559"> </text><text fill="#111111" font-family="Times New Roman" font-size="15" lengthAdjust="spacing" textLength="3.75" x="203.166" y="787.0044"> </text><text fill="#111111" font-family="Times New Roman" font-size="15" lengthAdjust="spacing" textLength="3.75" x="203.166" y="804.2529"> </text><text fill="#111111" font-family="Times New Roman" font-size="15" lengthAdjust="spacing" textLength="3.75" x="203.166" y="821.5015"> </text><text fill="#111111" font-family="Times New Roman" font-size="14" lengthAdjust="spacing" textLength="60.6416" x="124.5244" y="823.7178">[confirm]  </text><text fill="#111111" font-family="Times New Roman" font-size="6" lengthAdjust="spacing" textLength="1.5" x="124.5244" y="832.3477"> </text><text fill="#111111" font-family="Times New Roman" font-size="14" lengthAdjust="spacing" textLength="47.4072" x="209.166" y="807.6191">  [cancel</text><text fill="#111111" font-family="Times New Roman" font-size="14" lengthAdjust="spacing" textLength="65.7207" x="209.166" y="823.7178">  — AF-01]</text><text fill="#111111" font-family="Times New Roman" font-size="6" lengthAdjust="spacing" textLength="1.5" x="209.166" y="832.3477"> </text><rect fill="#F7F7F7" height="56.7969" rx="9" ry="9" style="stroke:#202020;stroke-width:1.2;" width="153.7344" x="21" y="868.7461" /><text fill="#111111" font-family="Times New Roman" font-size="16" lengthAdjust="spacing" textLength="133.7344" x="31" y="893.6836">Provide a reason and</text><text fill="#111111" font-family="Times New Roman" font-size="16" lengthAdjust="spacing" textLength="124.875" x="31" y="912.082">confirm suspension</text><line style="stroke:#202020;stroke-width:1.4;" x1="7" x2="7" y1="12.3936" y2="1083.3398" /><rect fill="#F7F7F7" height="38.3984" rx="9" ry="9" style="stroke:#202020;stroke-width:1.2;" width="345.6797" x="374.8076" y="305.9746" /><text fill="#111111" font-family="Times New Roman" font-size="16" lengthAdjust="spacing" textLength="325.6797" x="384.8076" y="330.9121">Reject the suspension of the current Project Owner</text><ellipse cx="547.6475" cy="381.6738" fill="none" rx="11" ry="11" style="stroke:#222222;stroke-width:1.0;" /><ellipse cx="547.6475" cy="381.6738" fill="#222222" rx="6" ry="6" style="stroke:#222222;stroke-width:1.0;" /><polygon fill="#FFFFFF" points="547.6475,242.876,559.6475,254.876,547.6475,266.876,535.6475,254.876,547.6475,242.876" style="stroke:#202020;stroke-width:1.2;" /><text fill="#111111" font-family="Times New Roman" font-size="15" lengthAdjust="spacing" textLength="212.8198" x="553.6475" y="170.6372">Project Owner of an active project?</text><text fill="#111111" font-family="Times New Roman" font-size="15" lengthAdjust="spacing" textLength="3.75" x="553.6475" y="187.8857"> </text><text fill="#111111" font-family="Times New Roman" font-size="15" lengthAdjust="spacing" textLength="3.75" x="553.6475" y="205.1343"> </text><text fill="#111111" font-family="Times New Roman" font-size="15" lengthAdjust="spacing" textLength="3.75" x="553.6475" y="222.3828"> </text><text fill="#111111" font-family="Times New Roman" font-size="15" lengthAdjust="spacing" textLength="3.75" x="553.6475" y="239.6313"> </text><text fill="#111111" font-family="Times New Roman" font-size="14" lengthAdjust="spacing" textLength="89.79" x="553.6475" y="279.9463">  [current owner</text><text fill="#111111" font-family="Times New Roman" font-size="14" lengthAdjust="spacing" textLength="66.4863" x="553.6475" y="296.0449">  — EX-01]</text><text fill="#111111" font-family="Times New Roman" font-size="6" lengthAdjust="spacing" textLength="1.5" x="553.6475" y="304.6748"> </text><text fill="#111111" font-family="Times New Roman" font-size="14" lengthAdjust="spacing" textLength="89.4141" x="559.6475" y="241.8477">[not an owner]  </text><text fill="#111111" font-family="Times New Roman" font-size="6" lengthAdjust="spacing" textLength="1.5" x="559.6475" y="250.4775"> </text><rect fill="#F7F7F7" height="38.3984" rx="9" ry="9" style="stroke:#202020;stroke-width:1.2;" width="412.8125" x="341.2412" y="541.2627" /><text fill="#111111" font-family="Times New Roman" font-size="16" lengthAdjust="spacing" textLength="392.8125" x="351.2412" y="566.2002">Reject the suspension of the last active System Administrator</text><ellipse cx="547.6475" cy="616.9619" fill="none" rx="11" ry="11" style="stroke:#222222;stroke-width:1.0;" /><ellipse cx="547.6475" cy="616.9619" fill="#222222" rx="6" ry="6" style="stroke:#222222;stroke-width:1.0;" /><polygon fill="#FFFFFF" points="547.6475,478.1641,559.6475,490.1641,547.6475,502.1641,535.6475,490.1641,547.6475,478.1641" style="stroke:#202020;stroke-width:1.2;" /><text fill="#111111" font-family="Times New Roman" font-size="15" lengthAdjust="spacing" textLength="207.8687" x="553.6475" y="440.4224">Last active System Administrator?</text><text fill="#111111" font-family="Times New Roman" font-size="15" lengthAdjust="spacing" textLength="3.75" x="553.6475" y="457.6709"> </text><text fill="#111111" font-family="Times New Roman" font-size="15" lengthAdjust="spacing" textLength="3.75" x="553.6475" y="474.9194"> </text><text fill="#111111" font-family="Times New Roman" font-size="14" lengthAdjust="spacing" textLength="109.252" x="553.6475" y="515.2344">  [last administrator</text><text fill="#111111" font-family="Times New Roman" font-size="14" lengthAdjust="spacing" textLength="66.4863" x="553.6475" y="531.333">  — EX-02]</text><text fill="#111111" font-family="Times New Roman" font-size="6" lengthAdjust="spacing" textLength="1.5" x="553.6475" y="539.9629"> </text><text fill="#111111" font-family="Times New Roman" font-size="14" lengthAdjust="spacing" textLength="77.7588" x="559.6475" y="477.1357">[not the last]  </text><text fill="#111111" font-family="Times New Roman" font-size="6" lengthAdjust="spacing" textLength="1.5" x="559.6475" y="485.7656"> </text><rect fill="#F7F7F7" height="56.7969" rx="9" ry="9" style="stroke:#202020;stroke-width:1.2;" width="218.1641" x="438.5654" y="669.9619" /><text fill="#111111" font-family="Times New Roman" font-size="16" lengthAdjust="spacing" textLength="198.1641" x="448.5654" y="694.8994">Display the impact and request</text><text fill="#111111" font-family="Times New Roman" font-size="16" lengthAdjust="spacing" textLength="166.6016" x="448.5654" y="713.2979">a reason and confirmation</text><rect fill="#F7F7F7" height="56.7969" rx="9" ry="9" style="stroke:#202020;stroke-width:1.2;" width="178.625" x="359.0361" y="960.543" /><text fill="#111111" font-family="Times New Roman" font-size="16" lengthAdjust="spacing" textLength="158.625" x="369.0361" y="985.4805">Suspend the account and</text><text fill="#111111" font-family="Times New Roman" font-size="16" lengthAdjust="spacing" textLength="139.0469" x="369.0361" y="1003.8789">record the audit event</text><ellipse cx="448.3486" cy="1048.3398" fill="none" rx="11" ry="11" style="stroke:#222222;stroke-width:1.0;" /><ellipse cx="448.3486" cy="1048.3398" fill="#222222" rx="6" ry="6" style="stroke:#222222;stroke-width:1.0;" /><rect fill="#F7F7F7" height="38.3984" rx="9" ry="9" style="stroke:#202020;stroke-width:1.2;" width="178.5703" x="557.6611" y="868.7461" /><text fill="#111111" font-family="Times New Roman" font-size="16" lengthAdjust="spacing" textLength="158.5703" x="567.6611" y="893.6836">Leave the account active</text><ellipse cx="646.9463" cy="953.1445" fill="none" rx="11" ry="11" style="stroke:#222222;stroke-width:1.0;" /><ellipse cx="646.9463" cy="953.1445" fill="#222222" rx="6" ry="6" style="stroke:#222222;stroke-width:1.0;" /><line style="stroke:#202020;stroke-width:1.4;" x1="335.2412" x2="335.2412" y1="12.3936" y2="1083.3398" /><line style="stroke:#202020;stroke-width:1.4;" x1="791.0537" x2="791.0537" y1="12.3936" y2="1083.3398" /><line style="stroke:#202020;stroke-width:1.2;" x1="197.166" x2="197.166" y1="68.0918" y2="88.0918" /><polyline points="193.166,78.0918 197.166,88.0918 201.166,78.0918" fill="none" stroke="#202020" stroke-width="1.4" stroke-linejoin="miter" stroke-linecap="butt" class="open-arrowhead" /><line style="stroke:#202020;stroke-width:1.2;" x1="185.166" x2="97.8672" y1="836.7461" y2="836.7461" /><line style="stroke:#202020;stroke-width:1.2;" x1="97.8672" x2="97.8672" y1="836.7461" y2="868.7461" /><polyline points="93.8672,858.7461 97.8672,868.7461 101.8672,858.7461" fill="none" stroke="#202020" stroke-width="1.4" stroke-linejoin="miter" stroke-linecap="butt" class="open-arrowhead" /><line style="stroke:#202020;stroke-width:1.2;" x1="547.6475" x2="547.6475" y1="344.373" y2="370.6738" /><polyline points="543.6475,360.6738 547.6475,370.6738 551.6475,360.6738" fill="none" stroke="#202020" stroke-width="1.4" stroke-linejoin="miter" stroke-linecap="butt" class="open-arrowhead" /><line style="stroke:#202020;stroke-width:1.2;" x1="547.6475" x2="547.6475" y1="266.876" y2="305.9746" /><polyline points="543.6475,295.9746 547.6475,305.9746 551.6475,295.9746" fill="none" stroke="#202020" stroke-width="1.4" stroke-linejoin="miter" stroke-linecap="butt" class="open-arrowhead" /><line style="stroke:#202020;stroke-width:1.2;" x1="559.6475" x2="730.4873" y1="254.876" y2="254.876" /><polyline points="726.4873,340.6738 730.4873,350.6738 734.4873,340.6738" fill="none" stroke="#202020" stroke-width="1.4" stroke-linejoin="miter" stroke-linecap="butt" class="open-arrowhead" /><line style="stroke:#202020;stroke-width:1.2;" x1="730.4873" x2="730.4873" y1="254.876" y2="414.6738" /><line style="stroke:#202020;stroke-width:1.2;" x1="730.4873" x2="547.6475" y1="414.6738" y2="414.6738" /><line style="stroke:#202020;stroke-width:1.2;" x1="547.6475" x2="547.6475" y1="414.6738" y2="478.1641" /><polyline points="543.6475,468.1641 547.6475,478.1641 551.6475,468.1641" fill="none" stroke="#202020" stroke-width="1.4" stroke-linejoin="miter" stroke-linecap="butt" class="open-arrowhead" /><line style="stroke:#202020;stroke-width:1.2;" x1="547.6475" x2="547.6475" y1="579.6611" y2="605.9619" /><polyline points="543.6475,595.9619 547.6475,605.9619 551.6475,595.9619" fill="none" stroke="#202020" stroke-width="1.4" stroke-linejoin="miter" stroke-linecap="butt" class="open-arrowhead" /><line style="stroke:#202020;stroke-width:1.2;" x1="547.6475" x2="547.6475" y1="502.1641" y2="541.2627" /><polyline points="543.6475,531.2627 547.6475,541.2627 551.6475,531.2627" fill="none" stroke="#202020" stroke-width="1.4" stroke-linejoin="miter" stroke-linecap="butt" class="open-arrowhead" /><line style="stroke:#202020;stroke-width:1.2;" x1="559.6475" x2="764.0537" y1="490.1641" y2="490.1641" /><polyline points="760.0537,575.9619 764.0537,585.9619 768.0537,575.9619" fill="none" stroke="#202020" stroke-width="1.4" stroke-linejoin="miter" stroke-linecap="butt" class="open-arrowhead" /><line style="stroke:#202020;stroke-width:1.2;" x1="764.0537" x2="764.0537" y1="490.1641" y2="649.9619" /><line style="stroke:#202020;stroke-width:1.2;" x1="764.0537" x2="547.6475" y1="649.9619" y2="649.9619" /><line style="stroke:#202020;stroke-width:1.2;" x1="547.6475" x2="547.6475" y1="649.9619" y2="669.9619" /><polyline points="543.6475,659.9619 547.6475,669.9619 551.6475,659.9619" fill="none" stroke="#202020" stroke-width="1.4" stroke-linejoin="miter" stroke-linecap="butt" class="open-arrowhead" /><line style="stroke:#202020;stroke-width:1.2;" x1="448.3486" x2="448.3486" y1="1017.3398" y2="1037.3398" /><polyline points="444.3486,1027.3398 448.3486,1037.3398 452.3486,1027.3398" fill="none" stroke="#202020" stroke-width="1.4" stroke-linejoin="miter" stroke-linecap="butt" class="open-arrowhead" /><line style="stroke:#202020;stroke-width:1.2;" x1="646.9463" x2="646.9463" y1="907.1445" y2="942.1445" /><polyline points="642.9463,932.1445 646.9463,942.1445 650.9463,932.1445" fill="none" stroke="#202020" stroke-width="1.4" stroke-linejoin="miter" stroke-linecap="butt" class="open-arrowhead" /><line style="stroke:#202020;stroke-width:1.2;" x1="197.166" x2="197.166" y1="144.8887" y2="182.2546" /><line style="stroke:#202020;stroke-width:1.2;" x1="197.166" x2="547.6475" y1="182.2546" y2="182.2546" /><line style="stroke:#202020;stroke-width:1.2;" x1="547.6475" x2="547.6475" y1="182.2546" y2="242.876" /><polyline points="543.6475,232.876 547.6475,242.876 551.6475,232.876" fill="none" stroke="#202020" stroke-width="1.4" stroke-linejoin="miter" stroke-linecap="butt" class="open-arrowhead" /><line style="stroke:#202020;stroke-width:1.2;" x1="97.8672" x2="97.8672" y1="925.543" y2="943.043" /><line style="stroke:#202020;stroke-width:1.2;" x1="97.8672" x2="448.3486" y1="943.043" y2="943.043" /><line style="stroke:#202020;stroke-width:1.2;" x1="448.3486" x2="448.3486" y1="943.043" y2="960.543" /><polyline points="444.3486,950.543 448.3486,960.543 452.3486,950.543" fill="none" stroke="#202020" stroke-width="1.4" stroke-linejoin="miter" stroke-linecap="butt" class="open-arrowhead" /><line style="stroke:#202020;stroke-width:1.2;" x1="209.166" x2="646.9463" y1="836.7461" y2="836.7461" /><line style="stroke:#202020;stroke-width:1.2;" x1="646.9463" x2="646.9463" y1="836.7461" y2="868.7461" /><polyline points="642.9463,858.7461 646.9463,868.7461 650.9463,858.7461" fill="none" stroke="#202020" stroke-width="1.4" stroke-linejoin="miter" stroke-linecap="butt" class="open-arrowhead" /><line style="stroke:#202020;stroke-width:1.2;" x1="547.6475" x2="547.6475" y1="726.7588" y2="764.1248" /><line style="stroke:#202020;stroke-width:1.2;" x1="547.6475" x2="197.166" y1="764.1248" y2="764.1248" /><line style="stroke:#202020;stroke-width:1.2;" x1="197.166" x2="197.166" y1="764.1248" y2="824.7461" /><polyline points="193.166,814.7461 197.166,824.7461 201.166,814.7461" fill="none" stroke="#202020" stroke-width="1.4" stroke-linejoin="miter" stroke-linecap="butt" class="open-arrowhead" /><text fill="#111111" font-family="Times New Roman" font-size="18" font-weight="bold" lengthAdjust="spacing" textLength="170.4814" x="92.1299" y="29.1982">System Administrator</text><text fill="#111111" font-family="Times New Roman" font-size="7" font-weight="bold" lengthAdjust="spacing" textLength="1.75" x="87.6299" y="39.627"> </text><text fill="#111111" font-family="Times New Roman" font-size="18" font-weight="bold" lengthAdjust="spacing" textLength="54.9932" x="533.9009" y="29.1982">System</text><text fill="#111111" font-family="Times New Roman" font-size="7" font-weight="bold" lengthAdjust="spacing" textLength="1.75" x="529.4009" y="39.627"> </text></g><g id="pres-frame" fill="none" stroke="#202020" stroke-width="1.4"><rect x="7" y="12.3936" width="784.0537" height="1070.9462" /><line x1="7" x2="791.0537" y1="38.6982" y2="38.6982" /></g></svg>