<svg xmlns="http://www.w3.org/2000/svg" contentStyleType="text/css" height="744px" preserveAspectRatio="none" style="width:971px;height:744px;background:#FFFFFF;" version="1.1" viewBox="-5 0.3936 971 744" width="971px" zoomAndPan="magnify" data-pres-formatted="1"><rect id="pres-background" x="-5" y="0.3936" width="971" height="744" fill="#FFFFFF" stroke="none" /><defs /><g><rect fill="#FFFFFF" height="30.6982" style="stroke:#FFFFFF;stroke-width:1.0;" width="932.0596" x="15" y="12.3936" /><ellipse cx="233.0039" cy="58.0918" fill="#111111" rx="10" ry="10" style="stroke:#222222;stroke-width:1.0;" /><rect fill="#F7F7F7" height="56.7969" rx="9" ry="9" style="stroke:#202020;stroke-width:1.2;" width="205.2813" x="130.3633" y="88.0918" /><text fill="#111111" font-family="Times New Roman" font-size="16" lengthAdjust="spacing" textLength="185.2813" x="140.3633" y="113.0293">Select an incomplete subtask</text><text fill="#111111" font-family="Times New Roman" font-size="16" lengthAdjust="spacing" textLength="128.8438" x="140.3633" y="131.4277">and request deletion</text><polygon fill="#FFFFFF" points="233.0039,301.2744,245.0039,313.2744,233.0039,325.2744,221.0039,313.2744,233.0039,301.2744" style="stroke:#202020;stroke-width:1.2;" /><text fill="#111111" font-family="Times New Roman" font-size="15" lengthAdjust="spacing" textLength="109.5557" x="239.0039" y="229.0356">Confirm deletion?</text><text fill="#111111" font-family="Times New Roman" font-size="15" lengthAdjust="spacing" textLength="3.75" x="239.0039" y="246.2842"> </text><text fill="#111111" font-family="Times New Roman" font-size="15" lengthAdjust="spacing" textLength="3.75" x="239.0039" y="263.5327"> </text><text fill="#111111" font-family="Times New Roman" font-size="15" lengthAdjust="spacing" textLength="3.75" x="239.0039" y="280.7813"> </text><text fill="#111111" font-family="Times New Roman" font-size="15" lengthAdjust="spacing" textLength="3.75" x="239.0039" y="298.0298"> </text><text fill="#111111" font-family="Times New Roman" font-size="14" lengthAdjust="spacing" textLength="60.6416" x="160.3623" y="300.2461">[confirm]  </text><text fill="#111111" font-family="Times New Roman" font-size="6" lengthAdjust="spacing" textLength="1.5" x="160.3623" y="308.876"> </text><text fill="#111111" font-family="Times New Roman" font-size="14" lengthAdjust="spacing" textLength="47.4072" x="245.0039" y="284.1475">  [cancel</text><text fill="#111111" font-family="Times New Roman" font-size="14" lengthAdjust="spacing" textLength="65.7207" x="245.0039" y="300.2461">  — AF-01]</text><text fill="#111111" font-family="Times New Roman" font-size="6" lengthAdjust="spacing" textLength="1.5" x="245.0039" y="308.876"> </text><rect fill="#F7F7F7" height="38.3984" rx="9" ry="9" style="stroke:#202020;stroke-width:1.2;" width="129.7578" x="21" y="345.2744" /><text fill="#111111" font-family="Times New Roman" font-size="16" lengthAdjust="spacing" textLength="109.7578" x="31" y="370.2119">Confirm deletion</text><polygon fill="#FFFFFF" points="233.0039,657.8555,245.0039,669.8555,233.0039,681.8555,221.0039,669.8555,233.0039,657.8555" style="stroke:#202020;stroke-width:1.2;" /><ellipse cx="233.0039" cy="712.8555" fill="none" rx="11" ry="11" style="stroke:#222222;stroke-width:1.0;" /><ellipse cx="233.0039" cy="712.8555" fill="#222222" rx="6" ry="6" style="stroke:#222222;stroke-width:1.0;" /><line style="stroke:#202020;stroke-width:1.4;" x1="7" x2="7" y1="12.3936" y2="731.8555" /><rect fill="#F7F7F7" height="38.3984" rx="9" ry="9" style="stroke:#202020;stroke-width:1.2;" width="158.1875" x="648.2783" y="164.8887" /><text fill="#111111" font-family="Times New Roman" font-size="16" lengthAdjust="spacing" textLength="138.1875" x="658.2783" y="189.8262">Request confirmation</text><polygon fill="#FFFFFF" points="580.2471,500.0586,592.2471,512.0586,580.2471,524.0586,568.2471,512.0586,580.2471,500.0586" style="stroke:#202020;stroke-width:1.2;" /><text fill="#111111" font-family="Times New Roman" font-size="15" lengthAdjust="spacing" textLength="135.7983" x="586.2471" y="427.8198">Deletion still allowed?</text><text fill="#111111" font-family="Times New Roman" font-size="15" lengthAdjust="spacing" textLength="3.75" x="586.2471" y="445.0684"> </text><text fill="#111111" font-family="Times New Roman" font-size="15" lengthAdjust="spacing" textLength="3.75" x="586.2471" y="462.3169"> </text><text fill="#111111" font-family="Times New Roman" font-size="15" lengthAdjust="spacing" textLength="3.75" x="586.2471" y="479.5654"> </text><text fill="#111111" font-family="Times New Roman" font-size="15" lengthAdjust="spacing" textLength="3.75" x="586.2471" y="496.814"> </text><text fill="#111111" font-family="Times New Roman" font-size="14" lengthAdjust="spacing" textLength="60.6416" x="507.6055" y="499.0303">[allowed]  </text><text fill="#111111" font-family="Times New Roman" font-size="6" lengthAdjust="spacing" textLength="1.5" x="507.6055" y="507.6602"> </text><text fill="#111111" font-family="Times New Roman" font-size="14" lengthAdjust="spacing" textLength="85.1348" x="592.2471" y="482.9316">  [completed or</text><text fill="#111111" font-family="Times New Roman" font-size="14" lengthAdjust="spacing" textLength="141.1416" x="592.2471" y="499.0303">  Sprint ended — EX-01]</text><text fill="#111111" font-family="Times New Roman" font-size="6" lengthAdjust="spacing" textLength="1.5" x="592.2471" y="507.6602"> </text><rect fill="#F7F7F7" height="56.7969" rx="9" ry="9" style="stroke:#202020;stroke-width:1.2;" width="222.5625" x="359.5596" y="534.0586" /><text fill="#111111" font-family="Times New Roman" font-size="16" lengthAdjust="spacing" textLength="155.9688" x="369.5596" y="558.9961">Remove the subtask and</text><text fill="#111111" font-family="Times New Roman" font-size="16" lengthAdjust="spacing" textLength="202.5625" x="369.5596" y="577.3945">recalculate parent-task progress</text><ellipse cx="470.8408" cy="636.8555" fill="none" rx="11" ry="11" style="stroke:#222222;stroke-width:1.0;" /><ellipse cx="470.8408" cy="636.8555" fill="#222222" rx="6" ry="6" style="stroke:#222222;stroke-width:1.0;" /><rect fill="#F7F7F7" height="93.5938" rx="9" ry="9" style="stroke:#202020;stroke-width:1.2;" width="175.0625" x="602.1221" y="534.0586" /><text fill="#111111" font-family="Times New Roman" font-size="16" lengthAdjust="spacing" textLength="119.9531" x="612.1221" y="558.9961">Reject the deletion</text><text fill="#111111" font-family="Times New Roman" font-size="16" lengthAdjust="spacing" textLength="155.0625" x="612.1221" y="577.3945">because the subtask was</text><text fill="#111111" font-family="Times New Roman" font-size="16" lengthAdjust="spacing" textLength="107.5156" x="612.1221" y="595.793">completed or the</text><text fill="#111111" font-family="Times New Roman" font-size="16" lengthAdjust="spacing" textLength="81.3203" x="612.1221" y="614.1914">Sprint ended</text><rect fill="#F7F7F7" height="56.7969" rx="9" ry="9" style="stroke:#202020;stroke-width:1.2;" width="134.625" x="807.1846" y="345.2744" /><text fill="#111111" font-family="Times New Roman" font-size="16" lengthAdjust="spacing" textLength="114.625" x="817.1846" y="370.2119">Leave the subtask</text><text fill="#111111" font-family="Times New Roman" font-size="16" lengthAdjust="spacing" textLength="69.3047" x="817.1846" y="388.6104">unchanged</text><line style="stroke:#202020;stroke-width:1.4;" x1="353.5596" x2="353.5596" y1="12.3936" y2="731.8555" /><line style="stroke:#202020;stroke-width:1.4;" x1="953.8096" x2="953.8096" y1="12.3936" y2="731.8555" /><line style="stroke:#202020;stroke-width:1.2;" x1="233.0039" x2="233.0039" y1="68.0918" y2="88.0918" /><polyline points="229.0039,78.0918 233.0039,88.0918 237.0039,78.0918" fill="none" stroke="#202020" stroke-width="1.4" stroke-linejoin="miter" stroke-linecap="butt" class="open-arrowhead" /><line style="stroke:#202020;stroke-width:1.2;" x1="221.0039" x2="85.8789" y1="313.2744" y2="313.2744" /><line style="stroke:#202020;stroke-width:1.2;" x1="85.8789" x2="85.8789" y1="313.2744" y2="345.2744" /><polyline points="81.8789,335.2744 85.8789,345.2744 89.8789,335.2744" fill="none" stroke="#202020" stroke-width="1.4" stroke-linejoin="miter" stroke-linecap="butt" class="open-arrowhead" /><line style="stroke:#202020;stroke-width:1.2;" x1="233.0039" x2="233.0039" y1="681.8555" y2="701.8555" /><polyline points="229.0039,691.8555 233.0039,701.8555 237.0039,691.8555" fill="none" stroke="#202020" stroke-width="1.4" stroke-linejoin="miter" stroke-linecap="butt" class="open-arrowhead" /><line style="stroke:#202020;stroke-width:1.2;" x1="470.8408" x2="470.8408" y1="590.8555" y2="625.8555" /><polyline points="466.8408,615.8555 470.8408,625.8555 474.8408,615.8555" fill="none" stroke="#202020" stroke-width="1.4" stroke-linejoin="miter" stroke-linecap="butt" class="open-arrowhead" /><line style="stroke:#202020;stroke-width:1.2;" x1="568.2471" x2="470.8408" y1="512.0586" y2="512.0586" /><line style="stroke:#202020;stroke-width:1.2;" x1="470.8408" x2="470.8408" y1="512.0586" y2="534.0586" /><polyline points="466.8408,524.0586 470.8408,534.0586 474.8408,524.0586" fill="none" stroke="#202020" stroke-width="1.4" stroke-linejoin="miter" stroke-linecap="butt" class="open-arrowhead" /><line style="stroke:#202020;stroke-width:1.2;" x1="592.2471" x2="689.6533" y1="512.0586" y2="512.0586" /><line style="stroke:#202020;stroke-width:1.2;" x1="689.6533" x2="689.6533" y1="512.0586" y2="534.0586" /><polyline points="685.6533,524.0586 689.6533,534.0586 693.6533,524.0586" fill="none" stroke="#202020" stroke-width="1.4" stroke-linejoin="miter" stroke-linecap="butt" class="open-arrowhead" /><line style="stroke:#202020;stroke-width:1.2;" x1="689.6533" x2="689.6533" y1="627.6523" y2="652.8555" /><line style="stroke:#202020;stroke-width:1.2;" x1="689.6533" x2="203.0039" y1="652.8555" y2="652.8555" /><line style="stroke:#202020;stroke-width:1.2;" x1="203.0039" x2="203.0039" y1="652.8555" y2="669.8555" /><line style="stroke:#202020;stroke-width:1.2;" x1="203.0039" x2="221.0039" y1="669.8555" y2="669.8555" /><polyline points="211.0039,665.8555 221.0039,669.8555 211.0039,673.8555" fill="none" stroke="#202020" stroke-width="1.4" stroke-linejoin="miter" stroke-linecap="butt" class="open-arrowhead" /><line style="stroke:#202020;stroke-width:1.2;" x1="233.0039" x2="233.0039" y1="144.8887" y2="149.8887" /><line style="stroke:#202020;stroke-width:1.2;" x1="233.0039" x2="727.3721" y1="149.8887" y2="149.8887" /><line style="stroke:#202020;stroke-width:1.2;" x1="727.3721" x2="727.3721" y1="149.8887" y2="164.8887" /><polyline points="723.3721,154.8887 727.3721,164.8887 731.3721,154.8887" fill="none" stroke="#202020" stroke-width="1.4" stroke-linejoin="miter" stroke-linecap="butt" class="open-arrowhead" /><line style="stroke:#202020;stroke-width:1.2;" x1="85.8789" x2="85.8789" y1="383.6729" y2="439.4373" /><line style="stroke:#202020;stroke-width:1.2;" x1="85.8789" x2="580.2471" y1="439.4373" y2="439.4373" /><line style="stroke:#202020;stroke-width:1.2;" x1="580.2471" x2="580.2471" y1="439.4373" y2="500.0586" /><polyline points="576.2471,490.0586 580.2471,500.0586 584.2471,490.0586" fill="none" stroke="#202020" stroke-width="1.4" stroke-linejoin="miter" stroke-linecap="butt" class="open-arrowhead" /><line style="stroke:#202020;stroke-width:1.2;" x1="245.0039" x2="874.4971" y1="313.2744" y2="313.2744" /><line style="stroke:#202020;stroke-width:1.2;" x1="874.4971" x2="874.4971" y1="313.2744" y2="345.2744" /><polyline points="870.4971,335.2744 874.4971,345.2744 878.4971,335.2744" fill="none" stroke="#202020" stroke-width="1.4" stroke-linejoin="miter" stroke-linecap="butt" class="open-arrowhead" /><line style="stroke:#202020;stroke-width:1.2;" x1="874.4971" x2="874.4971" y1="402.0713" y2="669.8555" /><line style="stroke:#202020;stroke-width:1.2;" x1="874.4971" x2="245.0039" y1="669.8555" y2="669.8555" /><polyline points="255.0039,665.8555 245.0039,669.8555 255.0039,673.8555" fill="none" stroke="#202020" stroke-width="1.4" stroke-linejoin="miter" stroke-linecap="butt" class="open-arrowhead" /><line style="stroke:#202020;stroke-width:1.2;" x1="727.3721" x2="727.3721" y1="203.2871" y2="240.6531" /><line style="stroke:#202020;stroke-width:1.2;" x1="727.3721" x2="233.0039" y1="240.6531" y2="240.6531" /><line style="stroke:#202020;stroke-width:1.2;" x1="233.0039" x2="233.0039" y1="240.6531" y2="301.2744" /><polyline points="229.0039,291.2744 233.0039,301.2744 237.0039,291.2744" fill="none" stroke="#202020" stroke-width="1.4" stroke-linejoin="miter" stroke-linecap="butt" class="open-arrowhead" /><text fill="#111111" font-family="Times New Roman" font-size="18" font-weight="bold" lengthAdjust="spacing" textLength="77.9678" x="147.5459" y="29.1982">Developer</text><text fill="#111111" font-family="Times New Roman" font-size="7" font-weight="bold" lengthAdjust="spacing" textLength="1.75" x="143.0459" y="39.627"> </text><text fill="#111111" font-family="Times New Roman" font-size="18" font-weight="bold" lengthAdjust="spacing" textLength="54.9932" x="624.438" y="29.1982">System</text><text fill="#111111" font-family="Times New Roman" font-size="7" font-weight="bold" lengthAdjust="spacing" textLength="1.75" x="619.938" y="39.627"> </text></g><g id="pres-frame" fill="none" stroke="#202020" stroke-width="1.4"><rect x="7" y="12.3936" width="946.8096" height="719.4619" /><line x1="7" x2="953.8096" y1="38.6982" y2="38.6982" /></g></svg>