<svg xmlns="http://www.w3.org/2000/svg" contentStyleType="text/css" height="757px" preserveAspectRatio="none" style="width:812px;height:757px;background:#FFFFFF;" version="1.1" viewBox="-5 0.3936 812 757" width="812px" zoomAndPan="magnify" data-pres-formatted="1"><rect id="pres-background" x="-5" y="0.3936" width="812" height="757" fill="#FFFFFF" stroke="none" /><defs /><g><rect fill="#FFFFFF" height="30.6982" style="stroke:#FFFFFF;stroke-width:1.0;" width="772.4375" x="15" y="12.3936" /><ellipse cx="91.4375" cy="58.0918" fill="#111111" rx="10" ry="10" style="stroke:#222222;stroke-width:1.0;" /><rect fill="#F7F7F7" height="38.3984" rx="9" ry="9" style="stroke:#202020;stroke-width:1.2;" width="140.875" x="21" y="88.0918" /><text fill="#111111" font-family="Times New Roman" font-size="16" lengthAdjust="spacing" textLength="120.875" x="31" y="113.0293">Open Sprint Board</text><line style="stroke:#202020;stroke-width:1.4;" x1="7" x2="7" y1="12.3936" y2="744.8062" /><polygon fill="#FFFFFF" points="412.6172,224.4775,424.6172,236.4775,412.6172,248.4775,400.6172,236.4775,412.6172,224.4775" style="stroke:#202020;stroke-width:1.2;" /><text fill="#111111" font-family="Times New Roman" font-size="15" lengthAdjust="spacing" textLength="124.9805" x="418.6172" y="152.2388">Active Sprint exists?</text><text fill="#111111" font-family="Times New Roman" font-size="15" lengthAdjust="spacing" textLength="3.75" x="418.6172" y="169.4873"> </text><text fill="#111111" font-family="Times New Roman" font-size="15" lengthAdjust="spacing" textLength="3.75" x="418.6172" y="186.7358"> </text><text fill="#111111" font-family="Times New Roman" font-size="15" lengthAdjust="spacing" textLength="3.75" x="418.6172" y="203.9844"> </text><text fill="#111111" font-family="Times New Roman" font-size="15" lengthAdjust="spacing" textLength="3.75" x="418.6172" y="221.2329"> </text><text fill="#111111" font-family="Times New Roman" font-size="14" lengthAdjust="spacing" textLength="87.4727" x="313.1445" y="223.4492">[active Sprint]  </text><text fill="#111111" font-family="Times New Roman" font-size="6" lengthAdjust="spacing" textLength="1.5" x="313.1445" y="232.0791"> </text><text fill="#111111" font-family="Times New Roman" font-size="14" lengthAdjust="spacing" textLength="100.3105" x="424.6172" y="207.3506">  [no active Sprint</text><text fill="#111111" font-family="Times New Roman" font-size="14" lengthAdjust="spacing" textLength="65.7207" x="424.6172" y="223.4492">  — AF-01]</text><text fill="#111111" font-family="Times New Roman" font-size="6" lengthAdjust="spacing" textLength="1.5" x="424.6172" y="232.0791"> </text><rect fill="#F7F7F7" height="56.7969" rx="9" ry="9" style="stroke:#202020;stroke-width:1.2;" width="138.1875" x="212.9844" y="258.4775" /><text fill="#111111" font-family="Times New Roman" font-size="16" lengthAdjust="spacing" textLength="118.1875" x="222.9844" y="283.415">Load active Sprint</text><text fill="#111111" font-family="Times New Roman" font-size="16" lengthAdjust="spacing" textLength="117.7656" x="222.9844" y="301.8135">and its work items</text><rect fill="#F7F7F7" height="56.7969" rx="9" ry="9" style="stroke:#202020;stroke-width:1.2;" width="168.8516" x="197.6523" y="452.2124" /><text fill="#111111" font-family="Times New Roman" font-size="16" lengthAdjust="spacing" textLength="148.8516" x="207.6523" y="477.1499">Group items by current</text><text fill="#111111" font-family="Times New Roman" font-size="16" lengthAdjust="spacing" textLength="102.6563" x="207.6523" y="495.5483">workflow status</text><rect fill="#F7F7F7" height="56.7969" rx="9" ry="9" style="stroke:#202020;stroke-width:1.2;" width="220.4063" x="171.875" y="544.0093" /><text fill="#111111" font-family="Times New Roman" font-size="16" lengthAdjust="spacing" textLength="200.4063" x="181.875" y="568.9468">Display item priority, assignee,</text><text fill="#111111" font-family="Times New Roman" font-size="16" lengthAdjust="spacing" textLength="120.8594" x="181.875" y="587.3452">estimate and status</text><ellipse cx="282.0781" cy="631.8062" fill="none" rx="11" ry="11" style="stroke:#222222;stroke-width:1.0;" /><ellipse cx="282.0781" cy="631.8062" fill="#222222" rx="6" ry="6" style="stroke:#222222;stroke-width:1.0;" /><polygon fill="#FFFFFF" points="282.0781,397.1631,294.0781,409.1631,282.0781,421.1631,270.0781,409.1631,282.0781,397.1631" style="stroke:#202020;stroke-width:1.2;" /><text fill="#111111" font-family="Times New Roman" font-size="15" lengthAdjust="spacing" textLength="129.9463" x="288.0781" y="359.4214">Sprint data available?</text><text fill="#111111" font-family="Times New Roman" font-size="15" lengthAdjust="spacing" textLength="3.75" x="288.0781" y="376.6699"> </text><text fill="#111111" font-family="Times New Roman" font-size="15" lengthAdjust="spacing" textLength="3.75" x="288.0781" y="393.9185"> </text><text fill="#111111" font-family="Times New Roman" font-size="14" lengthAdjust="spacing" textLength="66.8486" x="288.0781" y="434.2334">[available]  </text><text fill="#111111" font-family="Times New Roman" font-size="6" lengthAdjust="spacing" textLength="1.5" x="288.0781" y="442.8633"> </text><text fill="#111111" font-family="Times New Roman" font-size="14" lengthAdjust="spacing" textLength="76.1865" x="294.0781" y="380.0361">  [unavailable</text><text fill="#111111" font-family="Times New Roman" font-size="14" lengthAdjust="spacing" textLength="66.4863" x="294.0781" y="396.1348">  — EX-01]</text><text fill="#111111" font-family="Times New Roman" font-size="6" lengthAdjust="spacing" textLength="1.5" x="294.0781" y="404.7646"> </text><rect fill="#F7F7F7" height="38.3984" rx="9" ry="9" style="stroke:#202020;stroke-width:1.2;" width="217.75" x="434.2813" y="258.4775" /><text fill="#111111" font-family="Times New Roman" font-size="16" lengthAdjust="spacing" textLength="197.75" x="444.2813" y="283.415">Display that no Sprint is active</text><rect fill="#F7F7F7" height="56.7969" rx="9" ry="9" style="stroke:#202020;stroke-width:1.2;" width="175.0469" x="455.6328" y="433.814" /><text fill="#111111" font-family="Times New Roman" font-size="16" lengthAdjust="spacing" textLength="155.0469" x="465.6328" y="458.7515">Offer access to previous</text><text fill="#111111" font-family="Times New Roman" font-size="16" lengthAdjust="spacing" textLength="118.6563" x="465.6328" y="477.1499">Sprint information</text><polygon fill="#FFFFFF" points="543.1563,378.7646,555.1563,390.7646,543.1563,402.7646,531.1563,390.7646,543.1563,378.7646" style="stroke:#202020;stroke-width:1.2;" /><text fill="#111111" font-family="Times New Roman" font-size="15" lengthAdjust="spacing" textLength="232.0313" x="549.1563" y="341.0229">Previous Sprint information available?</text><text fill="#111111" font-family="Times New Roman" font-size="15" lengthAdjust="spacing" textLength="3.75" x="549.1563" y="358.2715"> </text><text fill="#111111" font-family="Times New Roman" font-size="15" lengthAdjust="spacing" textLength="3.75" x="549.1563" y="375.52"> </text><text fill="#111111" font-family="Times New Roman" font-size="14" lengthAdjust="spacing" textLength="66.8486" x="549.1563" y="415.835">[available]  </text><text fill="#111111" font-family="Times New Roman" font-size="6" lengthAdjust="spacing" textLength="1.5" x="549.1563" y="424.4648"> </text><text fill="#111111" font-family="Times New Roman" font-size="14" lengthAdjust="spacing" textLength="29.5518" x="555.1563" y="361.6377">  [not</text><text fill="#111111" font-family="Times New Roman" font-size="14" lengthAdjust="spacing" textLength="62.1865" x="555.1563" y="377.7363">  available]</text><text fill="#111111" font-family="Times New Roman" font-size="6" lengthAdjust="spacing" textLength="1.5" x="555.1563" y="386.3662"> </text><polygon fill="#FFFFFF" points="543.1563,521.6602,555.1563,533.6602,543.1563,545.6602,531.1563,533.6602,543.1563,521.6602" style="stroke:#202020;stroke-width:1.2;" /><polygon fill="#FFFFFF" points="412.6172,670.8062,424.6172,682.8062,412.6172,694.8062,400.6172,682.8062,412.6172,670.8062" style="stroke:#202020;stroke-width:1.2;" /><ellipse cx="412.6172" cy="725.8062" fill="none" rx="11" ry="11" style="stroke:#222222;stroke-width:1.0;" /><ellipse cx="412.6172" cy="725.8062" fill="#222222" rx="6" ry="6" style="stroke:#222222;stroke-width:1.0;" /><line style="stroke:#202020;stroke-width:1.4;" x1="165.875" x2="165.875" y1="12.3936" y2="744.8062" /><line style="stroke:#202020;stroke-width:1.4;" x1="794.1875" x2="794.1875" y1="12.3936" y2="744.8062" /><line style="stroke:#202020;stroke-width:1.2;" x1="91.4375" x2="91.4375" y1="68.0918" y2="88.0918" /><polyline points="87.4375,78.0918 91.4375,88.0918 95.4375,78.0918" fill="none" stroke="#202020" stroke-width="1.4" stroke-linejoin="miter" stroke-linecap="butt" class="open-arrowhead" /><line style="stroke:#202020;stroke-width:1.2;" x1="282.0781" x2="282.0781" y1="509.0093" y2="544.0093" /><polyline points="278.0781,534.0093 282.0781,544.0093 286.0781,534.0093" fill="none" stroke="#202020" stroke-width="1.4" stroke-linejoin="miter" stroke-linecap="butt" class="open-arrowhead" /><line style="stroke:#202020;stroke-width:1.2;" x1="282.0781" x2="282.0781" y1="600.8062" y2="620.8062" /><polyline points="278.0781,610.8062 282.0781,620.8062 286.0781,610.8062" fill="none" stroke="#202020" stroke-width="1.4" stroke-linejoin="miter" stroke-linecap="butt" class="open-arrowhead" /><line style="stroke:#202020;stroke-width:1.2;" x1="282.0781" x2="282.0781" y1="421.1631" y2="452.2124" /><polyline points="278.0781,442.2124 282.0781,452.2124 286.0781,442.2124" fill="none" stroke="#202020" stroke-width="1.4" stroke-linejoin="miter" stroke-linecap="butt" class="open-arrowhead" /><line style="stroke:#202020;stroke-width:1.2;" x1="294.0781" x2="402.2813" y1="409.1631" y2="409.1631" /><polyline points="398.2813,542.0093 402.2813,552.0093 406.2813,542.0093" fill="none" stroke="#202020" stroke-width="1.4" stroke-linejoin="miter" stroke-linecap="butt" class="open-arrowhead" /><line style="stroke:#202020;stroke-width:1.2;" x1="402.2813" x2="402.2813" y1="409.1631" y2="664.8062" /><line style="stroke:#202020;stroke-width:1.2;" x1="402.2813" x2="282.0781" y1="664.8062" y2="664.8062" /><line style="stroke:#202020;stroke-width:1.2;" x1="282.0781" x2="282.0781" y1="664.8062" y2="682.8062" /><line style="stroke:#202020;stroke-width:1.2;" x1="282.0781" x2="400.6172" y1="682.8062" y2="682.8062" /><polyline points="390.6172,678.8062 400.6172,682.8062 390.6172,686.8062" fill="none" stroke="#202020" stroke-width="1.4" stroke-linejoin="miter" stroke-linecap="butt" class="open-arrowhead" /><line style="stroke:#202020;stroke-width:1.2;" x1="282.0781" x2="282.0781" y1="315.2744" y2="397.1631" /><polyline points="278.0781,387.1631 282.0781,397.1631 286.0781,387.1631" fill="none" stroke="#202020" stroke-width="1.4" stroke-linejoin="miter" stroke-linecap="butt" class="open-arrowhead" /><line style="stroke:#202020;stroke-width:1.2;" x1="543.1563" x2="543.1563" y1="402.7646" y2="433.814" /><polyline points="539.1563,423.814 543.1563,433.814 547.1563,423.814" fill="none" stroke="#202020" stroke-width="1.4" stroke-linejoin="miter" stroke-linecap="butt" class="open-arrowhead" /><line style="stroke:#202020;stroke-width:1.2;" x1="555.1563" x2="640.6797" y1="390.7646" y2="390.7646" /><polyline points="636.6797,452.2124 640.6797,462.2124 644.6797,452.2124" fill="none" stroke="#202020" stroke-width="1.4" stroke-linejoin="miter" stroke-linecap="butt" class="open-arrowhead" /><line style="stroke:#202020;stroke-width:1.2;" x1="640.6797" x2="640.6797" y1="390.7646" y2="533.6602" /><line style="stroke:#202020;stroke-width:1.2;" x1="640.6797" x2="555.1563" y1="533.6602" y2="533.6602" /><polyline points="565.1563,529.6602 555.1563,533.6602 565.1563,537.6602" fill="none" stroke="#202020" stroke-width="1.4" stroke-linejoin="miter" stroke-linecap="butt" class="open-arrowhead" /><line style="stroke:#202020;stroke-width:1.2;" x1="543.1563" x2="543.1563" y1="490.6108" y2="521.6602" /><polyline points="539.1563,511.6602 543.1563,521.6602 547.1563,511.6602" fill="none" stroke="#202020" stroke-width="1.4" stroke-linejoin="miter" stroke-linecap="butt" class="open-arrowhead" /><line style="stroke:#202020;stroke-width:1.2;" x1="543.1563" x2="543.1563" y1="296.876" y2="378.7646" /><polyline points="539.1563,368.7646 543.1563,378.7646 547.1563,368.7646" fill="none" stroke="#202020" stroke-width="1.4" stroke-linejoin="miter" stroke-linecap="butt" class="open-arrowhead" /><line style="stroke:#202020;stroke-width:1.2;" x1="400.6172" x2="282.0781" y1="236.4775" y2="236.4775" /><line style="stroke:#202020;stroke-width:1.2;" x1="282.0781" x2="282.0781" y1="236.4775" y2="258.4775" /><polyline points="278.0781,248.4775 282.0781,258.4775 286.0781,248.4775" fill="none" stroke="#202020" stroke-width="1.4" stroke-linejoin="miter" stroke-linecap="butt" class="open-arrowhead" /><line style="stroke:#202020;stroke-width:1.2;" x1="424.6172" x2="543.1563" y1="236.4775" y2="236.4775" /><line style="stroke:#202020;stroke-width:1.2;" x1="543.1563" x2="543.1563" y1="236.4775" y2="258.4775" /><polyline points="539.1563,248.4775 543.1563,258.4775 547.1563,248.4775" fill="none" stroke="#202020" stroke-width="1.4" stroke-linejoin="miter" stroke-linecap="butt" class="open-arrowhead" /><line style="stroke:#202020;stroke-width:1.2;" x1="543.1563" x2="543.1563" y1="545.6602" y2="682.8062" /><line style="stroke:#202020;stroke-width:1.2;" x1="543.1563" x2="424.6172" y1="682.8062" y2="682.8062" /><polyline points="434.6172,678.8062 424.6172,682.8062 434.6172,686.8062" fill="none" stroke="#202020" stroke-width="1.4" stroke-linejoin="miter" stroke-linecap="butt" class="open-arrowhead" /><line style="stroke:#202020;stroke-width:1.2;" x1="412.6172" x2="412.6172" y1="694.8062" y2="714.8062" /><polyline points="408.6172,704.8062 412.6172,714.8062 416.6172,704.8062" fill="none" stroke="#202020" stroke-width="1.4" stroke-linejoin="miter" stroke-linecap="butt" class="open-arrowhead" /><line style="stroke:#202020;stroke-width:1.2;" x1="91.4375" x2="91.4375" y1="126.4902" y2="163.8562" /><line style="stroke:#202020;stroke-width:1.2;" x1="91.4375" x2="412.6172" y1="163.8562" y2="163.8562" /><line style="stroke:#202020;stroke-width:1.2;" x1="412.6172" x2="412.6172" y1="163.8562" y2="224.4775" /><polyline points="408.6172,214.4775 412.6172,224.4775 416.6172,214.4775" fill="none" stroke="#202020" stroke-width="1.4" stroke-linejoin="miter" stroke-linecap="butt" class="open-arrowhead" /><text fill="#111111" font-family="Times New Roman" font-size="18" font-weight="bold" lengthAdjust="spacing" textLength="35.9824" x="74.6963" y="29.1982">User</text><text fill="#111111" font-family="Times New Roman" font-size="7" font-weight="bold" lengthAdjust="spacing" textLength="1.75" x="70.1963" y="39.627"> </text><text fill="#111111" font-family="Times New Roman" font-size="18" font-weight="bold" lengthAdjust="spacing" textLength="54.9932" x="450.7847" y="29.1982">System</text><text fill="#111111" font-family="Times New Roman" font-size="7" font-weight="bold" lengthAdjust="spacing" textLength="1.75" x="446.2847" y="39.627"> </text></g><g id="pres-frame" fill="none" stroke="#202020" stroke-width="1.4"><rect x="7" y="12.3936" width="787.1875" height="732.4126" /><line x1="7" x2="794.1875" y1="38.6982" y2="38.6982" /></g></svg>